<svg xmlns="http://www.w3.org/2000/svg" data-name="Layer 1" viewBox="0 0 64 64"><path d="M34.13,14.73a1.76,1.76,0,0,0-.69-1.45,2.21,2.21,0,0,0-.91-.44V12.7a.77.77,0,0,0-.78-.77.76.76,0,0,0-.76.77v.08a5.8,5.8,0,0,0-.68.08.79.79,0,0,0-.61.76v4.79a.76.76,0,0,0,.66.75,4.19,4.19,0,0,0,.63.06v.07a.76.76,0,0,0,.76.76.77.77,0,0,0,.78-.76v-.18a2.5,2.5,0,0,0,1.13-.55A2.09,2.09,0,0,0,34.3,17a1.94,1.94,0,0,0-.48-1.3A1.79,1.79,0,0,0,34.13,14.73Zm-2.89-.43.38,0a1.3,1.3,0,0,1,.88.2.29.29,0,0,1,.09.25.36.36,0,0,1-.22.3H31.24Zm1.37,3.14a1.72,1.72,0,0,1-1.16.26h-.21V16.56h1.14a.5.5,0,0,1,.39.47A.51.51,0,0,1,32.61,17.44Z"/><path d="M61.09,6.65H2.92A2.91,2.91,0,0,0,0,9.56v30a.34.34,0,0,0,0,.1v6.08a2.92,2.92,0,0,0,2.91,2.91H25.1L24,51.41H22.2a8,8,0,0,0-4.59,1.35,4.43,4.43,0,0,0-2.09,3.62,1,1,0,0,0,1,1h31a1,1,0,0,0,1-1c0-2.74-3-5-6.67-5H40.05l-1.14-2.76H61.09A2.91,2.91,0,0,0,64,45.74V9.56A2.91,2.91,0,0,0,61.09,6.65ZM32,45.55a1.88,1.88,0,1,1,1.88-1.87A1.87,1.87,0,0,1,32,45.55Zm28.12-6.86H53.34V25.57a.47.47,0,0,0-.46-.46H46.42a.47.47,0,0,0-.46.46V38.69H35.69V21.89a.45.45,0,0,0-.46-.46H28.78a.45.45,0,0,0-.46.46v16.8H18.05V31.1a.46.46,0,0,0-.46-.46H11.13a.46.46,0,0,0-.46.46v7.59H3.89V11.5a1,1,0,0,1,1-1H59.15a1,1,0,0,1,1,1Z"/><path d="M14.38 20.62h0a1 1 0 0 1 1 .7.89.89 0 0 0 .87.73h.16a.9.9 0 0 0 .73-1 2.7 2.7 0 0 0-1.85-2v-.15a.9.9 0 0 0-1.8 0V19A2.71 2.71 0 0 0 12 20.05a2.35 2.35 0 0 0-.16 2.29 2.63 2.63 0 0 0 1 1 3.11 3.11 0 0 0 1.38.37l.33 0c.3 0 .65.2.73.4a.43.43 0 0 1-.05.45 1 1 0 0 1-.83.41h0c-.42 0-1-.27-1-.71a.92.92 0 0 0-.92-.92.88.88 0 0 0-.87.88 2.47 2.47 0 0 0 1.86 2.38v.12a.9.9 0 0 0 1.8 0v-.11a2.78 2.78 0 0 0 1.41-1 2.21 2.21 0 0 0 .24-2.15A2.63 2.63 0 0 0 14.83 22l-.5-.06a1.51 1.51 0 0 1-.6-.12.85.85 0 0 1-.29-.27.58.58 0 0 1 .05-.54A1 1 0 0 1 14.38 20.62zM47.2 18.24l2.15 1.18a.63.63 0 0 0 .3.07.53.53 0 0 0 .28-.07l2.17-1.18a.64.64 0 0 0 .29-.37.62.62 0 0 0-.06-.46l-2.16-3.67a.62.62 0 0 0-1 0L47 17.4a.65.65 0 0 0-.06.47A.63.63 0 0 0 47.2 18.24z"/><path d="M51.81,19.15a.59.59,0,0,0-.29.07l-1.87,1-1.87-1a.62.62,0,0,0-.74.13.62.62,0,0,0,0,.76L49.16,23a.62.62,0,0,0,1,0l2.15-2.93a.6.6,0,0,0,0-.76A.59.59,0,0,0,51.81,19.15Z"/></svg>