<svg xmlns="http://www.w3.org/2000/svg" viewBox="0 0 512 512"><path fill-rule="evenodd" d="M206.192 366.842a8 8 0 0 1 8-8h104.492a8 8 0 0 1 0 16H214.192a8 8 0 0 1-8-8zm8-202.362h104.492a8 8 0 0 0 0-16H214.192a8 8 0 0 0 0 16zm0 254.832h104.492a8 8 0 0 0 0-16H214.192a8 8 0 0 0 0 16zM110.69 139.59h37.5c8.917 0 16.495 5.767 19.25 13.76l12.47-11.316a7.998 7.998 0 0 1 11.301.548 8 8 0 0 1-.548 11.3l-22.099 20.055v23.529c0 11.234-9.14 20.375-20.375 20.375h-37.5c-11.234 0-20.375-9.141-20.375-20.375v-37.5c.002-11.236 9.142-20.376 20.376-20.376zm37.501 16h-37.5c-2.371 0-4.375 2.004-4.375 4.375v37.5c0 2.371 2.003 4.375 4.375 4.375h37.5c2.371 0 4.375-2.004 4.375-4.375v-9.009l-6.124 5.558a7.974 7.974 0 0 1-5.375 2.076 7.98 7.98 0 0 1-5.658-2.343l-18.208-18.207a8 8 0 1 1 11.313-11.314l12.818 12.818 11.233-10.194v-6.885c0-2.371-2.003-4.375-4.374-4.375zm43.021 92.172a8 8 0 0 1-.548 11.3l-22.099 20.055v23.53c0 11.234-9.14 20.374-20.375 20.374h-37.5c-11.234 0-20.375-9.14-20.375-20.374v-37.501c0-11.234 9.14-20.375 20.375-20.375h37.5c8.917 0 16.495 5.767 19.25 13.76l12.47-11.316a7.997 7.997 0 0 1 11.302.547zm-38.647 45.875-6.124 5.558a7.974 7.974 0 0 1-5.375 2.076 7.98 7.98 0 0 1-5.658-2.343L117.2 280.721a8 8 0 1 1 11.313-11.314l12.818 12.818 11.233-10.194v-6.885c0-2.371-2.003-4.375-4.375-4.375h-37.5c-2.371 0-4.375 2.004-4.375 4.375v37.501c0 2.371 2.003 4.374 4.375 4.374h37.5c2.371 0 4.375-2.003 4.375-4.374v-9.01zm38.647 59.306a8 8 0 0 1-.548 11.3l-22.099 20.055v23.529c0 11.234-9.14 20.375-20.375 20.375h-37.5c-11.234 0-20.375-9.141-20.375-20.375v-37.501c0-11.234 9.14-20.374 20.375-20.374h37.5c8.917 0 16.496 5.767 19.251 13.76l12.469-11.316a8 8 0 0 1 11.302.547zm-38.647 45.875-6.124 5.558a7.974 7.974 0 0 1-5.375 2.076 7.98 7.98 0 0 1-5.658-2.343L117.2 385.901a8 8 0 1 1 11.313-11.314l12.818 12.819 11.233-10.194v-6.886c0-2.371-2.003-4.374-4.375-4.374h-37.5c-2.371 0-4.375 2.003-4.375 4.374v37.501c0 2.371 2.003 4.375 4.375 4.375h37.5c2.371 0 4.375-2.004 4.375-4.375v-9.009zm352.403-204.409v76.815c0 27.734-9.912 54.787-27.908 76.174-17.289 20.546-41.018 34.616-67.092 39.91v94.454c0 16.673-13.564 30.237-30.237 30.237H37.27c-16.673 0-30.237-13.564-30.237-30.237V72.588c0-16.673 13.564-30.237 30.237-30.237h77.615V36.91a8 8 0 0 1 8-8h43.023C172.725 11.611 189.432 0 208.5 0c19.069 0 35.775 11.609 42.592 28.909h43.023a8 8 0 0 1 8 8v5.441h77.616c16.673 0 30.237 13.564 30.237 30.237v75.832l90.151 38.636a8.001 8.001 0 0 1 4.849 7.354zM302.115 58.351v14.935h68.917a8 8 0 0 1 8 8v73.535l14.936-6.401V72.588c0-7.851-6.387-14.237-14.237-14.237h-77.616zm-171.23 28.376h155.23V44.909h-40.866a8 8 0 0 1-7.777-6.124C234.236 25.369 222.322 16 208.5 16c-13.823 0-25.736 9.369-28.972 22.785a7.999 7.999 0 0 1-7.777 6.124h-40.867v41.818zm-8 16a8 8 0 0 1-8-8v-5.441H53.967v375.779h309.065v-88.687a119.186 119.186 0 0 1-55.934-62.247h-92.906a8 8 0 0 1 0-16h87.92a117.24 117.24 0 0 1-3.145-26.906v-1.563h-84.776a8 8 0 0 1 0-16h84.776V208.95h-84.776a8 8 0 0 1 0-16h84.926a7.99 7.99 0 0 1 4.699-5.894l59.216-25.378V89.285h-60.917v5.441a8 8 0 0 1-8 8h-171.23zm271.083 379.036v-94.455a117.311 117.311 0 0 1-14.936-4.076v89.833a8 8 0 0 1-8 8H45.967a8 8 0 0 1-8-8V81.285a8 8 0 0 1 8-8h68.917V58.351H37.27c-7.851 0-14.237 6.387-14.237 14.237v409.175c0 7.851 6.387 14.237 14.237 14.237h342.46c7.851 0 14.238-6.387 14.238-14.237zm95-282.078-87-37.285-87 37.285v71.54c0 10.904 1.705 21.452 4.882 31.369.305.616.538 1.272.676 1.965a102.315 102.315 0 0 0 79.358 67.613l2.083.363 2.084-.363c49.204-8.578 84.916-51.032 84.916-100.947v-71.54zm-83.849-17.907 62.429 26.754a8.002 8.002 0 0 1 4.849 7.354v55.339c0 40.662-28.949 76.063-68.834 84.177a8.08 8.08 0 0 1-3.19 0c-39.885-8.113-68.834-43.515-68.834-84.177v-55.339c0-3.2 1.907-6.093 4.849-7.354l62.429-26.754a8.01 8.01 0 0 1 6.302 0zm-3.151 16.058-54.429 23.325v50.063c0 32.544 22.791 60.946 54.429 68.153 31.638-7.207 54.429-35.609 54.429-68.153v-50.063l-54.429-23.325zm-25.559 65.541a8 8 0 0 0-11.313.001 7.999 7.999 0 0 0 0 11.313l18.208 18.207a7.98 7.98 0 0 0 5.658 2.343 7.97 7.97 0 0 0 5.375-2.076l44.223-40.133a8 8 0 0 0-10.753-11.848l-38.579 35.011-12.819-12.818zM208.5 28.991c-5.508 0-10 4.492-10 10s4.492 10 10 10 10-4.492 10-10-4.492-10-10-10z" clip-rule="evenodd"/></svg>