<svg xmlns="http://www.w3.org/2000/svg" data-name="Layer 1" viewBox="0 0 128 128"><path d="M122,11H6a6.00656,6.00656,0,0,0-6,6v86a6.00656,6.00656,0,0,0,6,6H46v4H32a2,2,0,0,0,0,4H96a2,2,0,0,0,0-4H82v-4h40a6.00656,6.00656,0,0,0,6-6V17A6.00656,6.00656,0,0,0,122,11ZM78,113H50v-4H78Zm46-10a2.00229,2.00229,0,0,1-2,2H6a2.00229,2.00229,0,0,1-2-2v-2H124Zm0-6H4V17a2.00229,2.00229,0,0,1,2-2H122a2.00229,2.00229,0,0,1,2,2Z"/><path d="M118,19H10a2.0001,2.0001,0,0,0-2,2V91a2.0001,2.0001,0,0,0,2,2H118a2.0001,2.0001,0,0,0,2-2V21A2.0001,2.0001,0,0,0,118,19Zm-2,70H12V23H116Z"/><path d="M23 52h82a2 2 0 0 0 0-4H23a2 2 0 0 0 0 4zM32 56a2 2 0 0 0 0 4H55.25a2 2 0 0 0 0-4zM23 68H55.25a2 2 0 0 0 0-4H23a2 2 0 0 0 0 4zM23 76H55.25a2 2 0 0 0 0-4H23a2 2 0 0 0 0 4zM105.25 72H93a2 2 0 0 0 0 4h12.25a2 2 0 0 0 0-4zM105.25 80H71a2 2 0 0 0 0 4h34.25a2 2 0 0 0 0-4zM23 84H55.25a2 2 0 0 0 0-4H23a2 2 0 0 0 0 4zM32.06543 44.27393a1.519 1.519 0 0 0 1.56055-1.436V32.91211L41.70215 43.644a1.60854 1.60854 0 0 0 1.28613.62988 1.519 1.519 0 0 0 1.56055-1.436V28.35254a1.56594 1.56594 0 0 0-3.12109 0v9.97607L33.3252 27.521a1.5001 1.5001 0 0 0-1.25977-.60449 1.51837 1.51837 0 0 0-1.55957 1.436V42.83789A1.5187 1.5187 0 0 0 32.06543 44.27393zM49.28516 44.07227H58.127a1.31453 1.31453 0 1 0 0-2.62012H50.87207V36.81689H56.0459a1.28937 1.28937 0 1 0 0-2.56982H50.87207V29.73779H57.8252a1.3146 1.3146 0 1 0 0-2.62012h-8.54a1.52987 1.52987 0 0 0-1.58789 1.46143V42.61133A1.52948 1.52948 0 0 0 49.28516 44.07227zM65.65527 43.26611a1.62769 1.62769 0 0 0 3.03906-.07568L71.8418 32.86182l3.14844 10.32861a1.627 1.627 0 0 0 3.03809.07568L82.71 28.83105a1.2263 1.2263 0 0 0 .082-.45361 1.60855 1.60855 0 0 0-3.09375-.45361L76.49512 38.50488 73.375 27.97461a1.63986 1.63986 0 0 0-3.06641 0L67.18848 38.50488 63.98535 27.92383a1.60793 1.60793 0 0 0-3.09277.45361 1.2263 1.2263 0 0 0 .082.45361zM91.252 44.4248c4.5166 0 6.87109-1.91455 6.87109-4.98779 0-6.29834-9.99121-4.76123-9.99121-8.06152 0-1.00781.84766-1.99023 3.12012-1.99023a5.93709 5.93709 0 0 1 3.832 1.335 1.875 1.875 0 0 0 1.17773.5542 1.41284 1.41284 0 0 0 1.47754-1.335 1.37767 1.37767 0 0 0-.27344-.80615c-1.09473-1.436-3.47656-2.36816-6.21387-2.36816-4.35254 0-6.2959 2.11621-6.2959 4.61035 0 6.07129 9.99121 4.3833 9.99121 8.06152 0 1.562-1.2041 2.31738-3.69531 2.31738a6.51209 6.51209 0 0 1-4.48926-1.91455 1.6511 1.6511 0 0 0-1.2041-.5542A1.40976 1.40976 0 0 0 84.10742 40.646a1.2775 1.2775 0 0 0 .21875.70557C85.39355 42.93848 87.99414 44.4248 91.252 44.4248zM71 76H85a2.0001 2.0001 0 0 0 2-2V58a2.0001 2.0001 0 0 0-2-2H71a2.0001 2.0001 0 0 0-2 2V74A2.0001 2.0001 0 0 0 71 76zm2-16H83V72H73zM93 60h12a2 2 0 0 0 0-4H93a2 2 0 0 0 0 4zM93 68h12a2 2 0 0 0 0-4H93a2 2 0 0 0 0 4z"/></svg>