<svg xmlns="http://www.w3.org/2000/svg" viewBox="0 0 32 32"><path d="M27 7h-9.7c-.6 0-1.2-.2-1.7-.5-.1-.1-.9-.7-1.7-1.3-.9-.7-1.8-1.3-1.8-1.4-.7-.5-1.7-.8-2.7-.8H5C3.3 3 2 4.3 2 6v20c0 1.7 1.3 3 3 3h22c1.7 0 3-1.3 3-3V10c0-1.7-1.3-3-3-3zm1 19c0 .6-.4 1-1 1H5c-.6 0-1-.4-1-1V6c0-.6.4-1 1-1h4.4c.6 0 1.2.2 1.6.5.1.1.9.7 1.7 1.3.8.6 1.7 1.3 1.7 1.3 1 .6 1.9.9 2.9.9H27c.6 0 1 .4 1 1v16z"/><path d="M18.3 15c-.6 0-1 .4-1 1s.5 1 1 1c.6 0 1-.4 1-1s-.5-1-1-1z"/><path d="M20 11h-8c-1.7 0-3 1.3-3 3v8c0 .4.1.9.3 1.2.5 1.1 1.5 1.8 2.7 1.8h8c1.7 0 3-1.3 3-3v-8c0-1.7-1.3-3-3-3zm-8.9 11.4c-.1-.1-.1-.3-.1-.4v-2.9h.1c.3-.1.6-.1.9-.1.3 0 .6 0 .9.1.1 0 .2.1.3.1.2.1.4.1.6.2.1 0 .2.1.3.1.2.1.3.2.5.3.1.1.2.1.3.2.1.1.3.2.4.3l.3.3c.1.1.2.3.4.4.1.1.1.2.2.3.1.2.2.4.3.5 0 .1.1.2.1.3.1.3.2.5.3.8v.1H12c-.4 0-.7-.2-.9-.6zM21 22c0 .6-.4 1-1 1h-1.1c0-.1 0-.2-.1-.4v-.2c0-.2-.1-.4-.2-.6 0 0 0-.1-.1-.1-.1-.2-.1-.3-.2-.5 0-.1-.1-.1-.1-.2-.1-.1-.1-.2-.2-.4 0-.1-.1-.2-.1-.2-.1-.1-.1-.2-.2-.3l-.2-.2c-.1-.1-.1-.2-.2-.3l-.2-.2c-.1-.1-.2-.2-.2-.3l-.2-.2c-.1-.1-.2-.2-.3-.2l-.2-.2c-.1-.1-.2-.1-.3-.2-.1-.1-.2-.1-.2-.2-.1-.1-.2-.1-.3-.2-.1 0-.2-.1-.2-.1-.1-.1-.2-.1-.3-.2-.1 0-.2-.1-.3-.1-.1 0-.2-.1-.4-.1-.1 0-.2-.1-.3-.1-.1 0-.3-.1-.4-.1-.1 0-.2 0-.3-.1-.1 0-.3 0-.4-.1H11.9c-.3 0-.7 0-1 .1V14c0-.6.4-1 1-1h8c.6 0 1 .4 1 1v8z"/></svg>