<svg xmlns="http://www.w3.org/2000/svg" fill="#fff" viewBox="0 0 24 24"><path d="M21.4963,9.7777l-2.93,2.93a2.0371,2.0371,0,0,1-2.8792,0,1,1,0,0,1,1.4144-1.4144l2.98-2.9295a3.1433,3.1433,0,1,0-4.445-4.4456l-2.93,2.9305a1.0308,1.0308,0,0,1,0,1.44,1,1,0,0,1-1.4144.0244,2.0378,2.0378,0,0,1,0-2.8787l2.93-2.93a5.1436,5.1436,0,0,1,7.274,7.2744ZM11.2928,15.7119a1.0306,1.0306,0,0,0,0,1.44l-2.93,2.93a3.1433,3.1433,0,0,1-4.445-4.4455l2.98-2.9295a1,1,0,0,0,1.4144-1.4144,2.0393,2.0393,0,0,0-2.8792,0l-2.93,2.9294a5.1436,5.1436,0,0,0,7.274,7.2744l2.93-2.93a2.0378,2.0378,0,0,0,0-2.8787A1.0011,1.0011,0,0,0,11.2928,15.7119Zm-3.6622.6574a1,1,0,0,0,1.4145,0l7.3243-7.3242a1,1,0,1,0-1.4145-1.4144L7.6306,14.9549A1,1,0,0,0,7.6306,16.3693Z" data-name="Layer 2"/></svg>