<svg width="200" height="200" viewBox="0 0 200 200" fill="none" xmlns="http://www.w3.org/2000/svg">
<mask id="mask0_129_3532" style="mask-type:alpha" maskUnits="userSpaceOnUse" x="0" y="0" width="200" height="200">
<path d="M200 100C200 155.228 155.228 200 100 200C44.7715 200 0 155.228 0 100C0 44.7715 44.7715 0 100 0C155.228 0 200 44.7715 200 100ZM20 100C20 144.183 55.8172 180 100 180C144.183 180 180 144.183 180 100C180 55.8172 144.183 20 100 20C55.8172 20 20 55.8172 20 100Z" fill="#D9D9D9"/>
</mask>
<g mask="url(#mask0_129_3532)">
<path d="M200 100C200 155.228 155.228 200 100 200C44.7715 200 0 155.228 0 100C0 44.7715 44.7715 0 100 0C155.228 0 200 44.7715 200 100ZM20 100C20 144.183 55.8172 180 100 180C144.183 180 180 144.183 180 100C180 55.8172 144.183 20 100 20C55.8172 20 20 55.8172 20 100Z" fill="#FFAF36"/>
<path d="M200 100C200 115.781 196.265 131.338 189.101 145.399C181.936 159.46 171.546 171.626 158.779 180.902C146.011 190.178 131.23 196.3 115.643 198.769C100.057 201.238 84.107 199.982 69.0983 195.106L75.2786 176.085C87.2856 179.986 100.045 180.99 112.515 179.015C124.984 177.04 136.809 172.142 147.023 164.721C157.237 157.301 165.549 147.568 171.281 136.319C177.012 125.07 180 112.625 180 100H200Z" fill="#6170EF"/>
<path d="M100 200C84.219 200 68.662 196.265 54.6009 189.101C40.5399 181.936 28.3742 171.546 19.0983 158.779C9.82244 146.011 3.69986 131.23 1.23117 115.643C-1.23753 100.057 0.0177386 84.107 4.89435 69.0983L23.9155 75.2786C20.0142 87.2856 19.01 100.045 20.9849 112.515C22.9599 124.984 27.858 136.809 35.2786 147.023C42.6993 157.237 52.4319 165.549 63.6808 171.281C74.9296 177.012 87.3752 180 100 180L100 200Z" fill="#27B510"/>
<path d="M1.51923 117.365C-1.22112 101.824 -0.244406 85.8543 4.36952 70.7628C8.98345 55.6713 17.1036 41.8861 28.066 30.5342C39.0285 19.1822 52.5219 10.5859 67.4432 5.44814C82.3645 0.310336 98.2899 -1.2231 113.917 0.973196L111.134 20.7786C98.6319 19.0215 85.8916 20.2483 73.9546 24.3585C62.0175 28.4688 51.2228 35.3458 42.4528 44.4273C33.6829 53.5089 27.1868 64.5371 23.4956 76.6103C19.8045 88.6835 19.0231 101.459 21.2154 113.892L1.51923 117.365Z" fill="#FF5B65"/>
</g>
</svg>
