<svg width="22" height="22" viewBox="0 0 22 22" fill="none" xmlns="http://www.w3.org/2000/svg">
<path d="M21.1425 4.58775C20.3484 3.64374 18.8822 3.25867 16.0821 3.25867H5.91772C3.05353 3.25867 1.5625 3.66858 0.771348 4.67362C0 5.65354 0 7.09738 0 9.09569V12.9045C0 16.7758 0.9152 18.7414 5.91772 18.7414H16.0821C18.5104 18.7414 19.8559 18.4016 20.7264 17.5685C21.6191 16.7142 22 15.3194 22 12.9045V9.09569C22 6.98831 21.9403 5.53595 21.1425 4.58775ZM14.1241 11.5259L9.50847 13.9382C9.40528 13.9921 9.29245 14.0189 9.17975 14.0189C9.05215 14.0189 8.92483 13.9845 8.81206 13.9162C8.59973 13.7876 8.47007 13.5574 8.47007 13.3092V8.50013C8.47007 8.25231 8.59937 8.02238 8.81128 7.89364C9.02326 7.76491 9.28691 7.75611 9.50684 7.87036L14.1224 10.2671C14.3573 10.389 14.5047 10.6314 14.5051 10.8959C14.5054 11.1606 14.3585 11.4034 14.1241 11.5259Z" fill="#20212C"/>
</svg>
