<svg width="24" height="24" viewBox="0 0 24 24" fill="none" xmlns="http://www.w3.org/2000/svg">
<path d="M12.056 16.1629C9.7868 16.1629 7.9404 14.3165 7.9404 12.0473C7.9404 9.77807 9.7868 7.93166 12.056 7.93166C14.3252 7.93166 16.1716 9.77807 16.1716 12.0473C16.1716 14.317 14.3252 16.1629 12.056 16.1629ZM12.056 9.64214C10.7299 9.64214 9.65087 10.7212 9.65087 12.0473C9.65087 13.3734 10.7299 14.4525 12.056 14.4525C13.3821 14.4525 14.4612 13.3734 14.4612 12.0473C14.4612 10.7212 13.3821 9.64214 12.056 9.64214Z" fill="#20212C"/>
<path d="M16.121 8.90533C16.6559 8.90533 17.0895 8.47174 17.0895 7.93689C17.0895 7.40204 16.6559 6.96845 16.121 6.96845C15.5862 6.96845 15.1526 7.40204 15.1526 7.93689C15.1526 8.47174 15.5862 8.90533 16.121 8.90533Z" fill="#20212C"/>
<path d="M15.4479 20.0573H8.55258C6.01102 20.0573 3.94336 17.9897 3.94336 15.4481V8.55233C3.94336 6.01077 6.01102 3.94312 8.55258 3.94312H15.4484C17.9899 3.94312 20.0576 6.01077 20.0576 8.55233V15.4481C20.0576 17.9892 17.9895 20.0573 15.4479 20.0573ZM8.55258 5.65312C6.95414 5.65312 5.65383 6.95343 5.65383 8.55187V15.4476C5.65383 17.0461 6.95414 18.3464 8.55258 18.3464H15.4484C17.0468 18.3464 18.3471 17.0461 18.3471 15.4476V8.55233C18.3471 6.9539 17.0468 5.65358 15.4484 5.65358L8.55258 5.65312Z" fill="#20212C"/>
</svg>
