<svg width="41" height="41" viewBox="0 0 41 41" fill="none" xmlns="http://www.w3.org/2000/svg">
<path d="M27.5535 24.6876C26.7267 23.8609 25.3861 23.8608 24.5593 24.6877L11.8613 37.3856C11.0345 38.2125 11.0345 39.553 11.8614 40.3799C12.2748 40.7932 12.8166 41 13.3585 41C13.9003 41 14.4422 40.7933 14.8556 40.3799L27.5536 27.6819C28.3804 26.8551 28.3804 25.5145 27.5535 24.6876Z" fill="url(#paint0_linear_219_6053)"/>
<path d="M27.5535 24.6876C26.7267 23.8609 25.3861 23.8608 24.5593 24.6877L11.8613 37.3856C11.0345 38.2125 11.0345 39.553 11.8614 40.3799C12.2748 40.7932 12.8166 41 13.3585 41C13.9003 41 14.4422 40.7933 14.8556 40.3799L27.5536 27.6819C28.3804 26.8551 28.3804 25.5145 27.5535 24.6876Z" fill="url(#paint1_linear_219_6053)"/>
<path d="M21.9334 19.0668C21.1066 18.24 19.766 18.24 18.9392 19.0668L6.24122 31.7648C5.41439 32.5917 5.41439 33.9322 6.24122 34.7591C6.6546 35.1725 7.19644 35.3792 7.73828 35.3792C8.28012 35.3792 8.82197 35.1724 9.23542 34.7591L21.9334 22.0611C22.7603 21.2342 22.7603 19.8937 21.9334 19.0668Z" fill="url(#paint2_linear_219_6053)"/>
<path d="M21.9334 19.0668C21.1066 18.24 19.766 18.24 18.9392 19.0668L6.24122 31.7648C5.41439 32.5917 5.41439 33.9322 6.24122 34.7591C6.6546 35.1725 7.19644 35.3792 7.73828 35.3792C8.28012 35.3792 8.82197 35.1724 9.23542 34.7591L21.9334 22.0611C22.7603 21.2342 22.7603 19.8937 21.9334 19.0668Z" fill="url(#paint3_linear_219_6053)"/>
<path d="M16.3124 13.4461C15.4855 12.6192 14.1449 12.6192 13.3182 13.4461L0.620135 26.1439C-0.206698 26.9708 -0.206698 28.3114 0.620055 29.1382C1.03351 29.5517 1.57527 29.7584 2.1172 29.7584C2.65904 29.7584 3.20096 29.5516 3.61426 29.1383L16.3123 16.4404C17.1392 15.6134 17.1392 14.2729 16.3124 13.4461Z" fill="url(#paint4_linear_219_6053)"/>
<path d="M16.3124 13.4461C15.4855 12.6192 14.1449 12.6192 13.3182 13.4461L0.620135 26.1439C-0.206698 26.9708 -0.206698 28.3114 0.620055 29.1382C1.03351 29.5517 1.57527 29.7584 2.1172 29.7584C2.65904 29.7584 3.20096 29.5516 3.61426 29.1383L16.3123 16.4404C17.1392 15.6134 17.1392 14.2729 16.3124 13.4461Z" fill="url(#paint5_linear_219_6053)"/>
<path d="M12.1611 18.3297V29.6585C12.1611 30.4597 13.1299 30.861 13.6964 30.2944L30.5568 14.0366V6.57672L12.1611 18.3297Z" fill="url(#paint6_linear_219_6053)"/>
<path d="M12.1611 18.3297V29.6585C12.1611 30.4597 13.1299 30.861 13.6964 30.2944L30.5568 14.0366V6.57672L12.1611 18.3297Z" fill="url(#paint7_linear_219_6053)"/>
<path d="M12.1611 18.3297V18.6558L18.84 25.3347L30.5568 14.0366V6.57672L12.1611 18.3297Z" fill="url(#paint8_linear_219_6053)"/>
<path d="M38.8706 0.0596348L0.805676 10.2594C-0.132339 10.5108 -0.294732 11.7725 0.549065 12.2532L11.137 18.2983C12.0353 18.8112 13.1384 18.8085 14.0342 18.2912L27.9282 10.2681C29.4248 9.40386 30.9338 11.3717 29.7109 12.5929L19.1024 23.1864C18.38 23.9076 18.2726 25.0405 18.8464 25.8848L28.747 40.4512C29.2277 41.295 30.4895 41.1326 30.7408 40.1945L40.9406 2.12965C41.2773 0.872882 40.1273 -0.277128 38.8706 0.0596348Z" fill="url(#paint9_linear_219_6053)"/>
<path d="M22.6436 22.087C22.086 21.2667 22.1735 20.1749 22.8415 19.4519L19.1021 23.1861C18.3797 23.9073 18.2723 25.0402 18.8461 25.8845L28.7466 40.4509C29.2273 41.2948 30.4891 41.1324 30.7404 40.1943L31.931 35.7513L22.6436 22.087Z" fill="url(#paint10_linear_219_6053)"/>
<path d="M27.4372 14.8577L31.1485 11.1516C32.7337 9.56867 30.7776 7.01775 28.8376 8.13801L17.8318 14.4934C16.936 15.0107 15.8328 15.0134 14.9345 14.5005L5.3656 9.03728L0.805676 10.2592C-0.132339 10.5105 -0.294732 11.7723 0.549065 12.253L11.137 18.2981C12.0353 18.811 13.1384 18.8082 14.0342 18.291L25.0401 11.9357C26.9432 10.8366 28.8613 13.2704 27.4372 14.8577Z" fill="url(#paint11_linear_219_6053)"/>
<defs>
<linearGradient id="paint0_linear_219_6053" x1="1.92276" y1="32.5337" x2="24.3203" y2="32.5337" gradientUnits="userSpaceOnUse">
<stop stop-color="#76CCF8"/>
<stop offset="0.833" stop-color="#518EF8"/>
<stop offset="1" stop-color="#4981F8"/>
</linearGradient>
<linearGradient id="paint1_linear_219_6053" x1="18.6807" y1="33.2241" x2="21.7892" y2="31.1339" gradientUnits="userSpaceOnUse">
<stop stop-color="#4071F7" stop-opacity="0"/>
<stop offset="1" stop-color="#30569F"/>
</linearGradient>
<linearGradient id="paint2_linear_219_6053" x1="1.92344" y1="26.913" x2="24.3209" y2="26.913" gradientUnits="userSpaceOnUse">
<stop stop-color="#76CCF8"/>
<stop offset="0.833" stop-color="#518EF8"/>
<stop offset="1" stop-color="#4981F8"/>
</linearGradient>
<linearGradient id="paint3_linear_219_6053" x1="9.48649" y1="26.913" x2="13.7744" y2="26.913" gradientUnits="userSpaceOnUse">
<stop stop-color="#4071F7" stop-opacity="0"/>
<stop offset="1" stop-color="#30569F"/>
</linearGradient>
<linearGradient id="paint4_linear_219_6053" x1="1.92321" y1="21.2921" x2="24.3207" y2="21.2921" gradientUnits="userSpaceOnUse">
<stop stop-color="#76CCF8"/>
<stop offset="0.833" stop-color="#518EF8"/>
<stop offset="1" stop-color="#4981F8"/>
</linearGradient>
<linearGradient id="paint5_linear_219_6053" x1="7.72519" y1="22.1361" x2="11.584" y2="17.7413" gradientUnits="userSpaceOnUse">
<stop stop-color="#4071F7" stop-opacity="0"/>
<stop offset="1" stop-color="#30569F"/>
</linearGradient>
<linearGradient id="paint6_linear_219_6053" x1="21.1019" y1="18.0586" x2="23.0125" y2="19.9176" gradientUnits="userSpaceOnUse">
<stop stop-color="#EEF4FF"/>
<stop offset="1" stop-color="#CFE7FD"/>
</linearGradient>
<linearGradient id="paint7_linear_219_6053" x1="17.7699" y1="14.716" x2="24.0863" y2="21.0326" gradientUnits="userSpaceOnUse">
<stop stop-color="#8AAADC" stop-opacity="0"/>
<stop offset="1" stop-color="#8AAADC"/>
</linearGradient>
<linearGradient id="paint8_linear_219_6053" x1="25.0517" y1="18.5071" x2="21.7806" y2="13.2889" gradientUnits="userSpaceOnUse">
<stop stop-color="#8AAADC" stop-opacity="0"/>
<stop offset="1" stop-color="#8AAADC"/>
</linearGradient>
<linearGradient id="paint9_linear_219_6053" x1="12.2427" y1="-1.8795" x2="39.932" y2="25.8098" gradientUnits="userSpaceOnUse">
<stop stop-color="#EEF4FF"/>
<stop offset="1" stop-color="#CFE7FD"/>
</linearGradient>
<linearGradient id="paint10_linear_219_6053" x1="26.0467" y1="30.5243" x2="22.6004" y2="33.0843" gradientUnits="userSpaceOnUse">
<stop stop-color="#8AAADC" stop-opacity="0"/>
<stop offset="1" stop-color="#8AAADC"/>
</linearGradient>
<linearGradient id="paint11_linear_219_6053" x1="12.8428" y1="16.1305" x2="10.9119" y2="19.632" gradientUnits="userSpaceOnUse">
<stop stop-color="#8AAADC" stop-opacity="0"/>
<stop offset="1" stop-color="#8AAADC"/>
</linearGradient>
</defs>
</svg>
