<svg width="24" height="24" viewBox="0 0 24 24" fill="none" xmlns="http://www.w3.org/2000/svg">
<g clip-path="url(#clip0_541_2372)">
<g clip-path="url(#clip1_541_2372)">
<path d="M8.58778 14.1884C8.37811 14.1884 8.20758 14.0178 8.20758 13.8081V13.4701C8.20758 13.3361 8.23608 13.1891 8.29233 13.0332C8.34914 12.8756 8.44585 12.7304 8.57967 12.6016L11.7796 9.3943C12.0505 9.12341 12.2924 8.86031 12.4987 8.6122C12.7042 8.36517 12.8779 8.11954 13.015 7.88203C13.1512 7.64592 13.2549 7.40301 13.3229 7.16006C13.3909 6.91743 13.4254 6.65887 13.4254 6.39154C13.4254 5.9257 13.3049 5.56776 13.0672 5.32762C12.8295 5.08777 12.488 4.96617 12.0521 4.96617C11.86 4.96617 11.6812 4.99406 11.5207 5.04909C11.36 5.10431 11.2142 5.18081 11.0875 5.27639C10.9481 5.38172 10.841 5.4923 10.7601 5.61436C10.5459 5.9377 10.4738 6.17283 10.4042 6.40022C10.3796 6.48051 10.3542 6.56353 10.3231 6.64818C10.2998 6.71137 10.2399 6.75318 10.1737 6.75318C10.1641 6.75318 10.1545 6.75234 10.1448 6.75056L8.51733 6.45126C8.43206 6.43556 8.37464 6.35381 8.38927 6.26901C8.47252 5.78419 8.61877 5.34928 8.82394 4.97639C9.04406 4.57599 9.32358 4.23802 9.65475 3.972C9.98555 3.70641 10.3691 3.50452 10.7946 3.37182C11.2192 3.23949 11.6824 3.17236 12.1712 3.17236C12.6854 3.17236 13.1604 3.24971 13.5832 3.40228C14.0067 3.55524 14.374 3.77133 14.6749 4.04461C14.9764 4.3186 15.2133 4.65352 15.379 5.04014C15.5446 5.42653 15.6285 5.85872 15.6285 6.32456C15.6285 6.72511 15.5701 7.10095 15.4548 7.44168C15.3398 7.78139 15.1816 8.10928 14.9845 8.41621C14.7877 8.72235 14.557 9.02371 14.2988 9.31185C14.0412 9.5991 13.7652 9.89268 13.4785 10.1844L11.5475 12.1593C11.5353 12.1717 11.5393 12.1854 11.5415 12.1908C11.5437 12.1961 11.5508 12.2085 11.5682 12.2085H15.5705C15.6928 12.2085 15.7924 12.308 15.7924 12.4304V13.9666C15.7924 14.089 15.6928 14.1885 15.5705 14.1885H8.58778V14.1884Z" fill="#FD9727"/>
<path d="M13.5998 10.0595C13.8429 9.80906 14.0779 9.55814 14.2988 9.31181C14.5571 9.02367 14.7878 8.72232 14.9845 8.41618C15.1816 8.10924 15.3398 7.78135 15.4548 7.44165C15.5701 7.10092 15.6285 6.72507 15.6285 6.32453C15.6285 5.85869 15.5446 5.4265 15.379 5.04011C15.2133 4.65349 14.9764 4.31856 14.6749 4.04458C14.378 3.77491 14.0162 3.56121 13.5998 3.40863V10.0595H13.5998Z" fill="#FF6D3A"/>
<path d="M15.7923 13.9666V12.4304C15.7923 12.308 15.6928 12.2085 15.5705 12.2085H13.5998V14.1884H15.5705C15.6928 14.1884 15.7923 14.0889 15.7923 13.9666Z" fill="#FF6D3A"/>
<path d="M1.83264 5.18013C2.43807 4.51957 3.07257 3.92514 3.77115 3.37329C3.85332 3.30841 3.97158 3.38608 3.94407 3.4871C3.55252 4.9263 2.86838 6.34858 1.8137 7.40589C1.76636 6.66569 1.76565 5.9193 1.83264 5.18013Z" fill="#FD9727"/>
<path d="M1.81379 7.40644C1.20489 6.67163 0.68167 5.91192 0.210156 5.09171C0.156249 4.99791 0.0128592 5.03138 0.00737486 5.13943C-0.0776561 6.81956 0.564295 8.78545 2.12827 9.57834C1.97242 8.86382 1.8601 8.13675 1.81379 7.40644Z" fill="#FD9727"/>
<path d="M2.12818 9.57781C2.51138 8.78937 2.94034 8.05577 3.44307 7.34468C3.50275 7.26031 3.63648 7.29898 3.64084 7.4022C3.7021 8.85354 3.45306 10.3878 2.75762 11.6618C2.4999 10.9837 2.2824 10.2872 2.12818 9.57781Z" fill="#FD9727"/>
<path d="M2.7578 11.6623C1.96716 11.1542 1.24487 10.5986 0.55206 9.97451C0.472139 9.90251 0.346748 9.9777 0.373842 10.0818C0.791216 11.6866 1.98479 13.3334 3.68414 13.6243C3.33089 12.9935 3.01444 12.3388 2.7578 11.6623Z" fill="#FD9727"/>
<path d="M3.68387 13.6238C3.82238 12.7636 4.02048 11.943 4.29624 11.1227C4.32906 11.0251 4.46757 11.0232 4.50193 11.1202C4.98423 12.4819 5.1796 14.018 4.8886 15.4297C4.44634 14.8573 4.03712 14.2556 3.68387 13.6238Z" fill="#FD9727"/>
<path d="M4.88898 15.4302C3.98766 15.1749 3.13623 14.8556 2.2929 14.4642C2.19549 14.4189 2.09785 14.5273 2.15401 14.6189C3.02106 16.0328 4.64433 17.257 6.3541 17.046C5.82924 16.5432 5.33326 16.0061 4.88898 15.4302Z" fill="#FD9727"/>
<path d="M6.35367 17.0456C6.23067 16.179 6.17845 15.3337 6.20259 14.4648C6.20545 14.3619 6.33759 14.3196 6.39872 14.4026C7.2623 15.5733 7.90651 16.9955 8.06068 18.4374C7.46021 18.0154 6.88364 17.5541 6.35367 17.0456Z" fill="#FD9727"/>
<path d="M22.1672 5.18013C21.5618 4.51957 20.9273 3.92514 20.2287 3.37329C20.1466 3.30841 20.0283 3.38608 20.0558 3.4871C20.4474 4.9263 21.1315 6.34858 22.1862 7.40589C22.2335 6.66569 22.2342 5.9193 22.1672 5.18013Z" fill="#FD9727"/>
<path d="M22.1861 7.40644C22.795 6.67163 23.3182 5.91192 23.7897 5.09171C23.8436 4.99791 23.987 5.03138 23.9925 5.13943C24.0776 6.81956 23.4356 8.78545 21.8716 9.57834C22.0275 8.86382 22.1398 8.13675 22.1861 7.40644Z" fill="#FD9727"/>
<path d="M21.8717 9.57781C21.4885 8.78937 21.0596 8.05577 20.5568 7.34468C20.4971 7.26031 20.3634 7.29898 20.3591 7.4022C20.2978 8.85354 20.5468 10.3878 21.2423 11.6618C21.5 10.9837 21.7175 10.2872 21.8717 9.57781Z" fill="#FD9727"/>
<path d="M21.2421 11.6623C22.0327 11.1542 22.755 10.5986 23.4478 9.97451C23.5277 9.90251 23.6531 9.9777 23.626 10.0818C23.2087 11.6866 22.0151 13.3334 20.3157 13.6243C20.669 12.9935 20.9854 12.3388 21.2421 11.6623Z" fill="#FD9727"/>
<path d="M20.316 13.6238C20.1775 12.7636 19.9794 11.943 19.7037 11.1227C19.6708 11.0251 19.5323 11.0232 19.498 11.1202C19.0157 12.4819 18.8203 14.018 19.1113 15.4297C19.5536 14.8573 19.9628 14.2556 20.316 13.6238Z" fill="#FD9727"/>
<path d="M19.1109 15.4302C20.0122 15.1749 20.8637 14.8556 21.707 14.4642C21.8045 14.4189 21.902 14.5273 21.8459 14.6189C20.9789 16.0328 19.3556 17.257 17.6458 17.046C18.1707 16.5432 18.6666 16.0061 19.1109 15.4302Z" fill="#FD9727"/>
<path d="M17.6462 17.0456C17.7692 16.179 17.8214 15.3337 17.7973 14.4648C17.7944 14.3619 17.6623 14.3196 17.6012 14.4026C16.7376 15.5733 16.0934 16.9955 15.9392 18.4374C16.5397 18.0154 17.1162 17.5541 17.6462 17.0456Z" fill="#FD9727"/>
<path d="M22.5159 5.20974C22.5157 5.20262 22.5159 5.19554 22.5154 5.18837C22.4326 4.08648 22.2295 2.98187 21.9117 1.9053C21.855 1.71344 21.6535 1.6038 21.4618 1.66047C21.2699 1.7171 21.1603 1.91852 21.2169 2.11038C21.5172 3.12751 21.7098 4.17048 21.7902 5.21082C21.7904 5.2186 21.7904 5.22639 21.7911 5.23426C21.8522 5.90687 21.8583 6.63573 21.8093 7.40068C21.8093 7.40096 21.8092 7.40129 21.8092 7.40157C21.7671 8.06574 21.6641 8.77693 21.503 9.51539C21.503 9.51544 21.5029 9.51553 21.5029 9.51558C21.3627 10.1607 21.1563 10.8434 20.8898 11.5447C20.8897 11.5449 20.8896 11.5451 20.8895 11.5454V11.5454C20.6559 12.1612 20.3523 12.8039 19.9873 13.4557C19.6656 14.0313 19.2708 14.6229 18.814 15.2143C18.8139 15.2144 18.8138 15.2145 18.8137 15.2146C18.8136 15.2147 18.8136 15.2148 18.8135 15.2149C18.4086 15.7396 17.9287 16.2688 17.3871 16.7878L17.387 16.7878C16.9043 17.251 16.3452 17.7067 15.7251 18.1425C15.7228 18.1441 15.7208 18.1459 15.7186 18.1475C15.7165 18.149 15.7143 18.1504 15.7122 18.152C14.669 18.9535 14.1403 19.1534 13.5806 19.365C13.1373 19.5326 12.6848 19.7041 12 20.1606C11.3153 19.7041 10.8628 19.5326 10.4195 19.365C9.85978 19.1534 9.33113 18.9535 8.28788 18.152C8.28582 18.1504 8.28357 18.1491 8.28146 18.1475C8.27925 18.1459 8.27724 18.1441 8.27499 18.1425C7.65483 17.7067 7.09571 17.251 6.61304 16.7878L6.61299 16.7878C6.07135 16.2688 5.59145 15.7396 5.18654 15.2149C5.18645 15.2148 5.18635 15.2147 5.18631 15.2146C5.18621 15.2145 5.18617 15.2144 5.18607 15.2143C4.72923 14.6229 4.33445 14.0313 4.0127 13.4557C3.64768 12.8039 3.34417 12.1612 3.1105 11.5454C3.1105 11.5454 3.1105 11.5454 3.11045 11.5454C3.11036 11.5451 3.11031 11.5449 3.11022 11.5447C2.84359 10.8434 2.63729 10.1607 2.497 9.51558C2.497 9.51549 2.49695 9.51544 2.49695 9.51539C2.33579 8.77693 2.23276 8.06569 2.19067 7.40157C2.19062 7.40124 2.19058 7.40096 2.19058 7.40068C2.14164 6.63577 2.14773 5.90687 2.20876 5.23426C2.20947 5.22639 2.20951 5.2186 2.2097 5.21082C2.29014 4.17048 2.48275 3.12756 2.78303 2.11038C2.83965 1.91852 2.73001 1.7171 2.53815 1.66047C2.34648 1.6037 2.14487 1.71344 2.08825 1.9053C1.77044 2.98187 1.56733 4.08648 1.48455 5.18837C1.48398 5.19554 1.48412 5.20262 1.48403 5.20974C1.42309 5.90795 1.41733 6.6602 1.46772 7.44694C1.46772 7.44713 1.46772 7.44727 1.46772 7.44746C1.51216 8.14744 1.62025 8.89453 1.78891 9.66802C1.789 9.66853 1.78905 9.66905 1.78914 9.66956C1.93708 10.3497 2.15364 11.0671 2.43292 11.8019C2.43301 11.802 2.43306 11.8022 2.43311 11.8024C2.67934 12.4512 2.9979 13.1263 3.38007 13.8088C3.38017 13.8089 3.38022 13.809 3.38031 13.8092C3.7195 14.4159 4.13415 15.0376 4.61284 15.6571C4.61288 15.6572 4.61293 15.6572 4.61298 15.6573C4.61303 15.6573 4.61303 15.6573 4.61303 15.6574C5.03996 16.2107 5.54429 16.7671 6.11204 17.3111C6.11218 17.3112 6.11237 17.3113 6.11251 17.3115C6.61984 17.7981 7.20526 18.2757 7.85255 18.7309C8.97671 19.5939 9.57994 19.822 10.1632 20.0426C10.5263 20.1798 10.8796 20.3137 11.3689 20.6146C10.9943 20.9016 10.5606 21.2618 10.0459 21.7223C9.89682 21.8557 9.88406 22.0847 10.0175 22.2337C10.089 22.3137 10.188 22.3544 10.2875 22.3544C10.3735 22.3544 10.4598 22.324 10.5289 22.2621C11.1257 21.7281 11.6027 21.3378 12 21.0443C12.3972 21.3378 12.8742 21.7281 13.471 22.2621C13.5401 22.324 13.6264 22.3544 13.7124 22.3544C13.8119 22.3544 13.9109 22.3137 13.9824 22.2337C14.1158 22.0847 14.1031 21.8557 13.954 21.7223C13.4394 21.2618 13.0056 20.9016 12.631 20.6146C13.1202 20.3137 13.4737 20.1798 13.8367 20.0426C14.42 19.8221 15.0232 19.5939 16.1474 18.7309C16.7946 18.2757 17.3801 17.7981 17.8874 17.3115C17.8875 17.3113 17.8877 17.3112 17.8879 17.3111C18.4556 16.7671 18.9599 16.2107 19.3869 15.6574C19.3869 15.6573 19.3869 15.6573 19.3869 15.6573C19.387 15.6572 19.387 15.6572 19.3871 15.6571C19.8658 15.0376 20.2804 14.4159 20.6196 13.8092C20.6197 13.809 20.6197 13.8089 20.6198 13.8088C21.002 13.1263 21.3206 12.4512 21.5668 11.8024C21.5668 11.8022 21.5669 11.802 21.567 11.8019C21.8463 11.0671 22.0628 10.3497 22.2108 9.66956C22.2109 9.66905 22.2109 9.66853 22.211 9.66802C22.3797 8.89453 22.4878 8.14744 22.5322 7.44746C22.5322 7.44727 22.5322 7.44713 22.5322 7.44694C22.5826 6.6602 22.5769 5.90795 22.5159 5.20974Z" fill="#FF6D3A"/>
</g>
</g>
<defs>
<clipPath id="clip0_541_2372">
<rect width="24" height="24" fill="white"/>
</clipPath>
<clipPath id="clip1_541_2372">
<rect width="24" height="24" fill="white"/>
</clipPath>
</defs>
</svg>
