<svg width="32" height="32" viewBox="0 0 32 32" fill="none" xmlns="http://www.w3.org/2000/svg">
<path d="M5.33335 4.16663H10.6667V1.16663H5.33335V4.16663ZM11.8334 5.33329V10.6666H14.8334V5.33329H11.8334ZM10.6667 11.8333H5.33335V14.8333H10.6667V11.8333ZM4.16669 10.6666V5.33329H1.16669V10.6666H4.16669ZM5.33335 11.8333C4.68902 11.8333 4.16669 11.311 4.16669 10.6666H1.16669C1.16669 12.9678 3.03217 14.8333 5.33335 14.8333V11.8333ZM11.8334 10.6666C11.8334 11.311 11.311 11.8333 10.6667 11.8333V14.8333C12.9679 14.8333 14.8334 12.9678 14.8334 10.6666H11.8334ZM10.6667 4.16663C11.311 4.16663 11.8334 4.68896 11.8334 5.33329H14.8334C14.8334 3.03211 12.9679 1.16663 10.6667 1.16663V4.16663ZM5.33335 1.16663C3.03217 1.16663 1.16669 3.03211 1.16669 5.33329H4.16669C4.16669 4.68896 4.68902 4.16663 5.33335 4.16663V1.16663ZM27.8334 7.99996C27.8334 10.1171 26.1171 11.8333 24 11.8333V14.8333C27.774 14.8333 30.8334 11.7739 30.8334 7.99996H27.8334ZM24 11.8333C21.8829 11.8333 20.1667 10.1171 20.1667 7.99996H17.1667C17.1667 11.7739 20.2261 14.8333 24 14.8333V11.8333ZM20.1667 7.99996C20.1667 5.88287 21.8829 4.16663 24 4.16663V1.16663C20.2261 1.16663 17.1667 4.22601 17.1667 7.99996H20.1667ZM24 4.16663C26.1171 4.16663 27.8334 5.88287 27.8334 7.99996H30.8334C30.8334 4.22601 27.774 1.16663 24 1.16663V4.16663ZM11.8334 24C11.8334 26.1171 10.1171 27.8333 8.00002 27.8333V30.8333C11.774 30.8333 14.8334 27.7739 14.8334 24H11.8334ZM8.00002 27.8333C5.88293 27.8333 4.16669 26.1171 4.16669 24H1.16669C1.16669 27.7739 4.22607 30.8333 8.00002 30.8333V27.8333ZM4.16669 24C4.16669 21.8829 5.88293 20.1666 8.00002 20.1666V17.1666C4.22607 17.1666 1.16669 20.226 1.16669 24H4.16669ZM8.00002 20.1666C10.1171 20.1666 11.8334 21.8829 11.8334 24H14.8334C14.8334 20.226 11.774 17.1666 8.00002 17.1666V20.1666ZM21.3334 20.1666H26.6667V17.1666H21.3334V20.1666ZM27.8334 21.3333V26.6666H30.8334V21.3333H27.8334ZM26.6667 27.8333H21.3334V30.8333H26.6667V27.8333ZM20.1667 26.6666V21.3333H17.1667V26.6666H20.1667ZM21.3334 27.8333C20.689 27.8333 20.1667 27.311 20.1667 26.6666H17.1667C17.1667 28.9678 19.0322 30.8333 21.3334 30.8333V27.8333ZM27.8334 26.6666C27.8334 27.311 27.311 27.8333 26.6667 27.8333V30.8333C28.9679 30.8333 30.8334 28.9678 30.8334 26.6666H27.8334ZM26.6667 20.1666C27.311 20.1666 27.8334 20.689 27.8334 21.3333H30.8334C30.8334 19.0321 28.9679 17.1666 26.6667 17.1666V20.1666ZM21.3334 17.1666C19.0322 17.1666 17.1667 19.0321 17.1667 21.3333H20.1667C20.1667 20.689 20.689 20.1666 21.3334 20.1666V17.1666Z" fill="#949BA9"/>
</svg>
