<svg width="24" height="24" viewBox="0 0 24 24" fill="none" xmlns="http://www.w3.org/2000/svg">
<g clip-path="url(#clip0_541_3860)">
<path d="M9.44708 14.2416C9.37606 14.2416 9.31827 14.1838 9.31827 14.1127V12.645C9.31827 12.574 9.37602 12.5162 9.44708 12.5162H11.4461V6.69842C11.4461 6.63739 11.4466 6.33842 11.4477 6.02764L9.77403 7.43192C9.73334 7.46609 9.68178 7.48489 9.62881 7.48489C9.55714 7.48489 9.49128 7.45212 9.44816 7.39498L8.6166 6.29281C8.54436 6.19723 8.55946 6.06157 8.65091 5.98404L11.7681 3.34212C11.8089 3.30753 11.8608 3.28845 11.9143 3.28845H13.3484C13.4732 3.28845 13.5746 3.38989 13.5746 3.51458V12.5163H15.3002C15.3712 12.5163 15.429 12.574 15.429 12.6451V14.1128C15.429 14.1838 15.3713 14.2416 15.3002 14.2416H9.44708V14.2416Z" fill="#FFAF36"/>
<path d="M15.3002 12.5163H13.5746V3.51458C13.5746 3.3897 13.4733 3.28845 13.3484 3.28845H11.9143C11.8608 3.28845 11.809 3.30744 11.7681 3.34208L11.4461 3.61503V11.6778C11.4461 12.1409 11.8215 12.5164 12.2846 12.5164H13.2483V14.2417H15.3002C15.3713 14.2417 15.429 14.1841 15.429 14.1129V12.6452C15.429 12.574 15.3713 12.5163 15.3002 12.5163Z" fill="#FFAF36"/>
<path d="M1.83267 5.18013C2.43811 4.51957 3.07261 3.92515 3.77118 3.37329C3.85336 3.30841 3.97162 3.38608 3.94411 3.4871C3.55256 4.9263 2.86842 6.34858 1.81373 7.4059C1.76639 6.66569 1.76568 5.9193 1.83267 5.18013Z" fill="#FFAF36"/>
<path d="M1.81383 7.40644C1.20492 6.67163 0.681703 5.91192 0.210187 5.09171C0.156281 4.99791 0.0128898 5.03138 0.0074054 5.13943C-0.0776259 6.81956 0.564328 8.78545 2.12831 9.57834C1.97245 8.86383 1.86014 8.13675 1.81383 7.40644Z" fill="#FFAF36"/>
<path d="M2.12821 9.57781C2.51142 8.78937 2.94037 8.05578 3.4431 7.34468C3.50277 7.26031 3.63651 7.29898 3.64087 7.4022C3.70213 8.85354 3.45309 10.3878 2.75765 11.6618C2.49993 10.9837 2.28243 10.2872 2.12821 9.57781Z" fill="#FFAF36"/>
<path d="M2.75784 11.6623C1.9672 11.1542 1.2449 10.5986 0.552091 9.97451C0.472169 9.90251 0.346779 9.9777 0.373873 10.0818C0.791247 11.6866 1.98482 13.3334 3.68418 13.6243C3.33093 12.9934 3.01448 12.3387 2.75784 11.6623Z" fill="#FFAF36"/>
<path d="M3.6839 13.6238C3.82241 12.7636 4.02051 11.943 4.29627 11.1227C4.32909 11.0251 4.4676 11.0232 4.50196 11.1202C4.98426 12.4819 5.17963 14.018 4.88863 15.4297C4.44637 14.8573 4.03715 14.2557 3.6839 13.6238Z" fill="#FFAF36"/>
<path d="M4.88901 15.4302C3.9877 15.1749 3.13626 14.8555 2.29293 14.4641C2.19552 14.4189 2.09788 14.5272 2.15404 14.6188C3.02109 16.0328 4.64437 17.257 6.35414 17.046C5.82928 16.5432 5.33329 16.0061 4.88901 15.4302Z" fill="#FFAF36"/>
<path d="M6.35371 17.0456C6.23071 16.179 6.17849 15.3337 6.20263 14.4648C6.20549 14.3619 6.33763 14.3196 6.39876 14.4026C7.26233 15.5734 7.90653 16.9955 8.06071 18.4374C7.46024 18.0154 6.88368 17.5542 6.35371 17.0456Z" fill="#FFAF36"/>
<path d="M22.1673 5.18013C21.5619 4.51957 20.9274 3.92515 20.2288 3.37329C20.1466 3.30841 20.0283 3.38608 20.0559 3.4871C20.4474 4.9263 21.1315 6.34858 22.1862 7.4059C22.2336 6.66569 22.2343 5.9193 22.1673 5.18013Z" fill="#FFAF36"/>
<path d="M22.1861 7.40644C22.795 6.67163 23.3183 5.91192 23.7898 5.09171C23.8437 4.99791 23.9871 5.03138 23.9926 5.13943C24.0776 6.81956 23.4356 8.78545 21.8716 9.57834C22.0275 8.86383 22.1398 8.13675 22.1861 7.40644Z" fill="#FFAF36"/>
<path d="M21.8717 9.57781C21.4885 8.78937 21.0596 8.05578 20.5568 7.34468C20.4972 7.26031 20.3634 7.29898 20.3591 7.4022C20.2978 8.85354 20.5469 10.3878 21.2423 11.6618C21.5 10.9837 21.7175 10.2872 21.8717 9.57781Z" fill="#FFAF36"/>
<path d="M21.2421 11.6623C22.0328 11.1542 22.755 10.5986 23.4479 9.97451C23.5278 9.90251 23.6532 9.9777 23.6261 10.0818C23.2087 11.6866 22.0151 13.3334 20.3158 13.6243C20.669 12.9934 20.9855 12.3387 21.2421 11.6623Z" fill="#FFAF36"/>
<path d="M20.3161 13.6238C20.1776 12.7636 19.9795 11.943 19.7037 11.1227C19.6709 11.0251 19.5324 11.0232 19.498 11.1202C19.0157 12.4819 18.8203 14.018 19.1113 15.4297C19.5536 14.8573 19.9628 14.2557 20.3161 13.6238Z" fill="#FFAF36"/>
<path d="M19.1109 15.4302C20.0123 15.1749 20.8637 14.8555 21.707 14.4641C21.8045 14.4189 21.9021 14.5272 21.846 14.6188C20.9789 16.0328 19.3556 17.257 17.6459 17.046C18.1707 16.5432 18.6667 16.0061 19.1109 15.4302Z" fill="#FFAF36"/>
<path d="M17.6463 17.0456C17.7692 16.179 17.8215 15.3337 17.7973 14.4648C17.7945 14.3619 17.6623 14.3196 17.6012 14.4026C16.7376 15.5734 16.0934 16.9955 15.9393 18.4374C16.5397 18.0154 17.1163 17.5542 17.6463 17.0456Z" fill="#FFAF36"/>
<path d="M22.5159 5.20975C22.5158 5.20263 22.5159 5.19555 22.5154 5.18838C22.4326 4.08649 22.2295 2.98188 21.9117 1.9053C21.8551 1.71344 21.6535 1.6038 21.4618 1.66047C21.27 1.7171 21.1603 1.91852 21.2169 2.11038C21.5172 3.12752 21.7098 4.17049 21.7903 5.21083C21.7905 5.21861 21.7905 5.22639 21.7912 5.23427C21.8522 5.90688 21.8583 6.63574 21.8094 7.40069C21.8094 7.40097 21.8093 7.4013 21.8093 7.40158C21.7672 8.06575 21.6641 8.77694 21.503 9.51541C21.503 9.51545 21.503 9.51555 21.503 9.51559C21.3627 10.1607 21.1564 10.8434 20.8899 11.5447C20.8898 11.545 20.8897 11.5451 20.8896 11.5454V11.5454C20.6559 12.1613 20.3524 12.804 19.9874 13.4557C19.6656 14.0313 19.2709 14.623 18.814 15.2143C18.8139 15.2144 18.8139 15.2145 18.8138 15.2146C18.8137 15.2147 18.8136 15.2148 18.8136 15.2149C18.4087 15.7397 17.9288 16.2688 17.3871 16.7878L17.3871 16.7879C16.9044 17.251 16.3453 17.7067 15.7251 18.1425C15.7229 18.1441 15.7209 18.1459 15.7187 18.1475C15.7166 18.1491 15.7143 18.1504 15.7123 18.152C14.669 18.9535 14.1404 19.1535 13.5807 19.365C13.1374 19.5326 12.6848 19.7042 12.0001 20.1606C11.3153 19.7042 10.8628 19.5326 10.4195 19.365C9.85983 19.1534 9.33117 18.9535 8.28792 18.152C8.28586 18.1504 8.28361 18.1491 8.2815 18.1476C8.2793 18.1459 8.27728 18.1441 8.27503 18.1425C7.65488 17.7068 7.09575 17.251 6.61308 16.7879L6.61303 16.7878C6.07139 16.2689 5.59148 15.7397 5.18658 15.2149C5.18648 15.2148 5.18639 15.2147 5.18634 15.2146C5.18625 15.2145 5.1862 15.2144 5.18611 15.2143C4.72927 14.623 4.33448 14.0313 4.01273 13.4557C3.64772 12.804 3.3442 12.1613 3.11053 11.5454C3.11053 11.5454 3.11053 11.5454 3.11048 11.5454C3.11039 11.5451 3.11034 11.545 3.11025 11.5447C2.84362 10.8434 2.63733 10.1607 2.49703 9.51559C2.49703 9.5155 2.49698 9.51545 2.49698 9.51541C2.33583 8.77694 2.2328 8.0657 2.1907 7.40158C2.19066 7.40125 2.19061 7.40097 2.19061 7.40069C2.14167 6.63578 2.14776 5.90688 2.2088 5.23427C2.2095 5.22639 2.20955 5.21861 2.20973 5.21083C2.29017 4.17049 2.48278 3.12756 2.78306 2.11038C2.83969 1.91852 2.73005 1.7171 2.53819 1.66047C2.34651 1.6037 2.14491 1.71344 2.08828 1.9053C1.77047 2.98188 1.56736 4.08649 1.48458 5.18838C1.48401 5.19555 1.48415 5.20263 1.48406 5.20975C1.42312 5.90795 1.41736 6.6602 1.46775 7.44695C1.46775 7.44714 1.46775 7.44728 1.46775 7.44747C1.51219 8.14745 1.62028 8.89455 1.78894 9.66803C1.78903 9.66855 1.78908 9.66906 1.78917 9.66958C1.93711 10.3497 2.15367 11.0671 2.43295 11.8019C2.43305 11.8021 2.43309 11.8023 2.43314 11.8024C2.67937 12.4512 2.99794 13.1263 3.38011 13.8088C3.3802 13.8089 3.38025 13.8091 3.38034 13.8092C3.71953 14.4159 4.13419 15.0377 4.61287 15.6572C4.61292 15.6572 4.61297 15.6573 4.61302 15.6573C4.61306 15.6573 4.61306 15.6573 4.61306 15.6574C5.04 16.2108 5.54433 16.7671 6.11208 17.3111C6.11222 17.3112 6.11241 17.3114 6.11255 17.3115C6.61988 17.7982 7.2053 18.2757 7.85259 18.7309C8.97675 19.594 9.57999 19.822 10.1633 20.0426C10.5263 20.1798 10.8797 20.3137 11.3689 20.6146C10.9944 20.9017 10.5606 21.2619 10.0459 21.7224C9.89686 21.8557 9.88411 22.0847 10.0175 22.2338C10.089 22.3137 10.1881 22.3545 10.2876 22.3545C10.3735 22.3545 10.4598 22.324 10.5289 22.2622C11.1257 21.7281 11.6027 21.3378 12 21.0443C12.3972 21.3378 12.8742 21.7281 13.4711 22.2622C13.5402 22.324 13.6265 22.3545 13.7124 22.3545C13.8119 22.3545 13.911 22.3137 13.9825 22.2338C14.1159 22.0847 14.1032 21.8557 13.9541 21.7224C13.4394 21.2618 13.0056 20.9016 12.6311 20.6146C13.1203 20.3137 13.4737 20.1798 13.8368 20.0426C14.4201 19.8221 15.0233 19.594 16.1474 18.7309C16.7947 18.2757 17.3801 17.7982 17.8875 17.3115C17.8876 17.3114 17.8878 17.3112 17.8879 17.3111C18.4557 16.7671 18.96 16.2108 19.3869 15.6574C19.3869 15.6573 19.387 15.6573 19.387 15.6573C19.387 15.6573 19.3871 15.6572 19.3871 15.6572C19.8658 15.0377 20.2805 14.4159 20.6197 13.8092C20.6198 13.8091 20.6198 13.8089 20.6199 13.8088C21.002 13.1263 21.3206 12.4512 21.5669 11.8024C21.5669 11.8023 21.567 11.8021 21.5671 11.8019C21.8463 11.0671 22.0629 10.3497 22.2108 9.66958C22.2109 9.66906 22.211 9.66855 22.2111 9.66803C22.3798 8.89455 22.4878 8.14745 22.5323 7.44747C22.5323 7.44728 22.5323 7.44714 22.5323 7.44695C22.5826 6.6602 22.5769 5.90795 22.5159 5.20975Z" fill="#FFAF36"/>
</g>
<defs>
<clipPath id="clip0_541_3860">
<rect width="24" height="24" fill="white"/>
</clipPath>
</defs>
</svg>
