<svg width="18" height="18" viewBox="0 0 18 18" fill="none" xmlns="http://www.w3.org/2000/svg">
<g clip-path="url(#clip0_127_4804)">
<path d="M3.6967 14.3033L3.16637 14.8336H3.16637L3.6967 14.3033ZM9 5.27672L9 6.02672L9 5.27672ZM16.5 9H17.25V8.25H16.5V9ZM14.3033 14.3033L13.773 14.8336L14.3033 15.364L14.8336 14.8336L14.3033 14.3033ZM11.6328 11.6328L11.1024 11.1024L10.5721 11.6328L11.1024 12.1631L11.6328 11.6328ZM12.7233 9V8.25H11.9733V9H12.7233ZM9 2.25C10.11 2.25 11.203 2.52376 12.1819 3.04703L12.889 1.72415C11.6925 1.0846 10.3567 0.75 9 0.75L9 2.25ZM12.1819 3.04703C13.1609 3.5703 13.9957 4.32693 14.6124 5.2499L15.8596 4.41655C15.1059 3.28847 14.0855 2.3637 12.889 1.72415L12.1819 3.04703ZM14.6124 5.2499C15.2291 6.17287 15.6087 7.23368 15.7175 8.33838L17.2103 8.19136C17.0773 6.84117 16.6134 5.54462 15.8596 4.41655L14.6124 5.2499ZM15.7175 8.33838C15.8263 9.44308 15.661 10.5576 15.2362 11.5831L16.622 12.1571C17.1412 10.9037 17.3433 9.54154 17.2103 8.19136L15.7175 8.33838ZM15.2362 11.5831C14.8114 12.6087 14.1402 13.5136 13.2822 14.2178L14.2337 15.3773C15.2825 14.5166 16.1028 13.4106 16.622 12.1571L15.2362 11.5831ZM13.2822 14.2178C12.4241 14.922 11.4056 15.4037 10.3169 15.6203L10.6095 17.0915C11.9402 16.8268 13.185 16.238 14.2337 15.3773L13.2822 14.2178ZM10.3169 15.6203C9.22815 15.8369 8.10283 15.7816 7.04058 15.4593L6.60516 16.8948C7.90346 17.2886 9.27885 17.3562 10.6095 17.0915L10.3169 15.6203ZM7.04058 15.4593C5.97834 15.1371 5.01195 14.5579 4.22703 13.773L3.16637 14.8336C4.12572 15.793 5.30686 16.5009 6.60516 16.8948L7.04058 15.4593ZM4.22703 14.8336L6.89758 12.1631L5.83692 11.1024L3.16637 13.773L4.22703 14.8336ZM5.83692 12.1631C6.35709 12.6833 6.99752 13.0671 7.70148 13.2807L8.13691 11.8452C7.669 11.7033 7.24333 11.4482 6.89758 11.1024L5.83692 12.1631ZM7.70148 13.2807C8.40544 13.4942 9.1512 13.5308 9.8727 13.3873L9.58006 11.9161C9.1005 12.0115 8.60481 11.9872 8.13691 11.8452L7.70148 13.2807ZM9.8727 13.3873C10.5942 13.2438 11.2692 12.9246 11.8378 12.4579L10.8862 11.2984C10.5083 11.6086 10.0596 11.8208 9.58006 11.9161L9.8727 13.3873ZM11.8378 12.4579C12.4065 11.9912 12.8513 11.3915 13.1328 10.7118L11.747 10.1378C11.5598 10.5896 11.2642 10.9882 10.8862 11.2984L11.8378 12.4579ZM13.1328 10.7118C13.4143 10.0322 13.5238 9.29363 13.4517 8.56154L11.959 8.70857C12.0069 9.19517 11.9341 9.68608 11.747 10.1378L13.1328 10.7118ZM13.4517 8.56154C13.3796 7.82945 13.1281 7.12644 12.7194 6.51478L11.4722 7.34814C11.7438 7.75469 11.911 8.22196 11.959 8.70857L13.4517 8.56154ZM12.7194 6.51478C12.3107 5.90312 11.7575 5.4017 11.1087 5.05492L10.4016 6.3778C10.8328 6.6083 11.2005 6.94158 11.4722 7.34814L12.7194 6.51478ZM11.1087 5.05492C10.4599 4.70815 9.73564 4.52672 9 4.52672L9 6.02672C9.48896 6.02672 9.97037 6.14731 10.4016 6.3778L11.1087 5.05492ZM9.75 5.27672V1.5H8.25V5.27672H9.75ZM4.22703 13.773C3.28303 12.829 2.64015 11.6262 2.3797 10.3169L0.908525 10.6095C1.22685 12.2098 2.01259 13.6798 3.16637 14.8336L4.22703 13.773ZM2.3797 10.3169C2.11925 9.00749 2.25292 7.65029 2.76382 6.41689L1.378 5.84286C0.753574 7.35035 0.590197 9.00915 0.908525 10.6095L2.3797 10.3169ZM2.76382 6.41689C3.27471 5.18349 4.13987 4.12928 5.2499 3.38758L4.41655 2.14038C3.05984 3.0469 2.00242 4.33537 1.378 5.84286L2.76382 6.41689ZM5.2499 3.38758C6.35994 2.64588 7.66498 2.25 9 2.25L9 0.75C7.36831 0.75 5.77325 1.23385 4.41655 2.14038L5.2499 3.38758ZM9 4.52672C8.11527 4.52672 7.25041 4.78908 6.51478 5.28061L7.34814 6.52781C7.83709 6.2011 8.41194 6.02672 9 6.02672L9 4.52672ZM6.51478 5.28061C5.77916 5.77214 5.20581 6.47077 4.86723 7.28815L6.25305 7.86218C6.47809 7.31888 6.85919 6.85452 7.34814 6.52781L6.51478 5.28061ZM4.86723 7.28815C4.52866 8.10554 4.44008 9.00496 4.61268 9.87269L6.08386 9.58006C5.96913 9.0033 6.02801 8.40547 6.25305 7.86218L4.86723 7.28815ZM4.61268 9.87269C4.78528 10.7404 5.21132 11.5375 5.83692 12.1631L6.89758 11.1024C6.48176 10.6866 6.19858 10.1568 6.08386 9.58006L4.61268 9.87269ZM15.75 9C15.75 9.88642 15.5754 10.7642 15.2362 11.5831L16.622 12.1571C17.0366 11.1562 17.25 10.0834 17.25 9H15.75ZM15.2362 11.5831C14.897 12.4021 14.3998 13.1462 13.773 13.773L14.8336 14.8336C15.5997 14.0675 16.2074 13.1581 16.622 12.1571L15.2362 11.5831ZM14.8336 13.773L12.1631 11.1024L11.1024 12.1631L13.773 14.8336L14.8336 13.773ZM12.1631 12.1631C12.5785 11.7477 12.908 11.2546 13.1328 10.7118L11.747 10.1378C11.5975 10.4986 11.3785 10.8263 11.1024 11.1024L12.1631 12.1631ZM13.1328 10.7118C13.3576 10.1691 13.4733 9.58744 13.4733 9H11.9733C11.9733 9.39046 11.8964 9.77709 11.747 10.1378L13.1328 10.7118ZM12.7233 9.75H16.5V8.25H12.7233V9.75Z" fill="#949BA9"/>
</g>
<defs>
<clipPath id="clip0_127_4804">
<rect width="18" height="18" fill="white"/>
</clipPath>
</defs>
</svg>
