<svg width="16" height="14" viewBox="0 0 16 14" fill="none" xmlns="http://www.w3.org/2000/svg">
<path d="M7.99999 2.68282L7.45101 3.19381C7.59289 3.34624 7.79175 3.43282 7.99999 3.43282C8.20824 3.43282 8.4071 3.34624 8.54898 3.19381L7.99999 2.68282ZM8.51003 2.13486L7.96104 1.62387V1.62387L8.51003 2.13486ZM7.48996 2.13486L8.03895 1.62387V1.62387L7.48996 2.13486ZM2.38964 7.61444L2.93863 7.10345L2.38964 7.61444ZM6.97993 12.5461L7.52892 12.0351L6.97993 12.5461ZM9.02006 12.5461L8.47107 12.0351L9.02006 12.5461ZM13.6103 7.61444L13.0614 7.10345L13.6103 7.61444ZM13.6103 2.13486L14.1593 1.62387V1.62387L13.6103 2.13486ZM2.38964 2.13486L1.84065 1.62387L2.38964 2.13486ZM8.54898 3.19381L9.05901 2.64585L7.96104 1.62387L7.45101 2.17183L8.54898 3.19381ZM6.94097 2.64585L7.45101 3.19381L8.54898 2.17183L8.03895 1.62387L6.94097 2.64585ZM1.84065 8.12543L6.43094 13.057L7.52892 12.0351L2.93863 7.10345L1.84065 8.12543ZM9.56905 13.057L14.1593 8.12543L13.0614 7.10345L8.47107 12.0351L9.56905 13.057ZM13.0614 2.64585C14.2018 3.87105 14.2018 5.87825 13.0614 7.10345L14.1593 8.12543C15.8358 6.32434 15.8358 3.42496 14.1593 1.62387L13.0614 2.64585ZM14.1593 1.62387C12.4543 -0.207955 9.66607 -0.207956 7.96104 1.62387L9.05901 2.64585C10.1708 1.45138 11.9496 1.45138 13.0614 2.64585L14.1593 1.62387ZM2.93863 2.64585C4.05042 1.45138 5.82918 1.45138 6.94097 2.64585L8.03895 1.62387C6.33391 -0.207955 3.54569 -0.207956 1.84065 1.62387L2.93863 2.64585ZM6.43094 13.057C7.29093 13.981 8.70906 13.981 9.56905 13.057L8.47107 12.0351C8.20433 12.3216 7.79566 12.3216 7.52892 12.0351L6.43094 13.057ZM1.84065 1.62387C0.164221 3.42495 0.16422 6.32434 1.84065 8.12543L2.93863 7.10345C1.79823 5.87825 1.79823 3.87105 2.93863 2.64585L1.84065 1.62387Z" fill="#20212C"/>
</svg>
