<svg width="22" height="21" viewBox="0 0 22 21" fill="none" xmlns="http://www.w3.org/2000/svg">
<path fill-rule="evenodd" clip-rule="evenodd" d="M1.13585 0.532761C1.52637 0.142237 2.15954 0.142237 2.55006 0.532761L11.1061 9.08881L19.6622 0.532761C20.0527 0.142237 20.6859 0.142237 21.0764 0.532761C21.4669 0.923286 21.4669 1.55645 21.0764 1.94697L12.5203 10.503L21.0764 19.0591C21.4669 19.4496 21.4669 20.0828 21.0764 20.4733C20.6859 20.8638 20.0527 20.8638 19.6622 20.4733L11.1061 11.9172L2.55006 20.4733C2.15954 20.8638 1.52637 20.8638 1.13585 20.4733C0.745325 20.0828 0.745325 19.4496 1.13585 19.0591L9.6919 10.503L1.13585 1.94697C0.745325 1.55645 0.745325 0.923286 1.13585 0.532761Z" fill="#20212C"/>
</svg>
