<svg width="18" height="18" viewBox="0 0 18 18" fill="none" xmlns="http://www.w3.org/2000/svg">
<g clip-path="url(#clip0_127_4794)">
<path d="M15.75 9C15.75 12.7279 12.7279 15.75 9 15.75V17.25C13.5563 17.25 17.25 13.5563 17.25 9H15.75ZM9 15.75C5.27208 15.75 2.25 12.7279 2.25 9H0.75C0.75 13.5563 4.44365 17.25 9 17.25V15.75ZM2.25 9C2.25 5.27208 5.27208 2.25 9 2.25V0.75C4.44365 0.75 0.75 4.44365 0.75 9H2.25ZM9 2.25C12.7279 2.25 15.75 5.27208 15.75 9H17.25C17.25 4.44365 13.5563 0.75 9 0.75V2.25ZM11.25 9C11.25 11.0001 10.9244 12.7763 10.425 14.0248C10.1744 14.6511 9.89488 15.1076 9.62282 15.3953C9.35226 15.6814 9.14154 15.75 9 15.75V17.25C9.68689 17.25 10.2654 16.8989 10.7127 16.4259C11.1584 15.9546 11.5253 15.3128 11.8177 14.5818C12.4041 13.1159 12.75 11.1421 12.75 9H11.25ZM9 15.75C8.85846 15.75 8.64774 15.6814 8.37718 15.3953C8.10512 15.1076 7.82557 14.6511 7.57504 14.0248C7.07564 12.7763 6.75 11.0001 6.75 9H5.25C5.25 11.1421 5.59593 13.1159 6.18232 14.5818C6.47469 15.3128 6.84158 15.9546 7.28735 16.4259C7.73462 16.8989 8.31311 17.25 9 17.25V15.75ZM6.75 9C6.75 6.99992 7.07564 5.22373 7.57504 3.97524C7.82557 3.34892 8.10512 2.8924 8.37718 2.60472C8.64774 2.31862 8.85846 2.25 9 2.25V0.75C8.31311 0.75 7.73462 1.10111 7.28735 1.57406C6.84158 2.04542 6.47469 2.68725 6.18232 3.41816C5.59593 4.88414 5.25 6.85794 5.25 9H6.75ZM9 2.25C9.14154 2.25 9.35226 2.31862 9.62282 2.60472C9.89488 2.8924 10.1744 3.34892 10.425 3.97524C10.9244 5.22373 11.25 6.99992 11.25 9H12.75C12.75 6.85794 12.4041 4.88414 11.8177 3.41816C11.5253 2.68725 11.1584 2.04542 10.7127 1.57406C10.2654 1.10111 9.68689 0.75 9 0.75V2.25ZM9 10.5C6.98089 10.5 5.18189 10.2535 3.91221 9.87262C3.27259 9.68074 2.80962 9.46714 2.52329 9.26406C2.21747 9.04715 2.25 8.94705 2.25 9H0.75C0.75 9.67427 1.20226 10.1661 1.65549 10.4875C2.1282 10.8228 2.76357 11.0941 3.48119 11.3094C4.92597 11.7428 6.87697 12 9 12V10.5ZM2.25 9C2.25 9.05295 2.21747 8.95285 2.52329 8.73594C2.80962 8.53286 3.27259 8.31926 3.91221 8.12738C5.18189 7.74647 6.98089 7.5 9 7.5V6C6.87697 6 4.92597 6.25721 3.48119 6.69064C2.76357 6.90592 2.1282 7.17717 1.65549 7.51245C1.20226 7.83392 0.75 8.32573 0.75 9H2.25ZM9 7.5C11.0191 7.5 12.8181 7.74647 14.0878 8.12738C14.7274 8.31926 15.1904 8.53286 15.4767 8.73594C15.7825 8.95285 15.75 9.05295 15.75 9H17.25C17.25 8.32573 16.7977 7.83392 16.3445 7.51245C15.8718 7.17717 15.2364 6.90592 14.5188 6.69064C13.074 6.25721 11.123 6 9 6V7.5ZM15.75 9C15.75 8.94705 15.7825 9.04715 15.4767 9.26406C15.1904 9.46714 14.7274 9.68074 14.0878 9.87262C12.8181 10.2535 11.0191 10.5 9 10.5V12C11.123 12 13.074 11.7428 14.5188 11.3094C15.2364 11.0941 15.8718 10.8228 16.3445 10.4875C16.7977 10.1661 17.25 9.67427 17.25 9H15.75Z" fill="#949BA9"/>
</g>
<defs>
<clipPath id="clip0_127_4794">
<rect width="18" height="18" fill="white"/>
</clipPath>
</defs>
</svg>
