<svg width="8" height="8" viewBox="0 0 8 8" fill="none" xmlns="http://www.w3.org/2000/svg">
<path d="M1.45448 3.27269H6.54531C6.6438 3.27269 6.72906 3.23673 6.801 3.16475C6.8729 3.09279 6.909 3.00758 6.909 2.90909C6.909 2.8106 6.87292 2.72543 6.801 2.65337L4.25557 0.107941C4.18365 0.0360599 4.09846 0 3.99991 0C3.90136 0 3.81617 0.0360599 3.74419 0.107941L1.19876 2.65337C1.12678 2.72535 1.09082 2.8106 1.09082 2.90909C1.09082 3.00756 1.12678 3.09279 1.19876 3.16475C1.27082 3.23673 1.35602 3.27269 1.45448 3.27269Z" fill="#949BA9"/>
<path d="M6.54531 4.72742H1.45448C1.35594 4.72742 1.27074 4.7634 1.19876 4.8353C1.12678 4.90728 1.09082 4.99247 1.09082 5.09096C1.09082 5.18945 1.12678 5.2747 1.19876 5.34664L3.74419 7.89203C3.81625 7.96401 3.90144 8.00005 3.99991 8.00005C4.09838 8.00005 4.18365 7.96401 4.25557 7.89203L6.801 5.34662C6.8729 5.2747 6.909 5.18945 6.909 5.09094C6.909 4.99247 6.87292 4.90728 6.801 4.83528C6.72908 4.76332 6.6438 4.72742 6.54531 4.72742Z" fill="#949BA9"/>
</svg>
