<svg width="32" height="32" viewBox="0 0 32 32" fill="none" xmlns="http://www.w3.org/2000/svg">
<path d="M13.3774 4.36184C14.4503 2.10156 17.5503 2.10155 18.6232 4.36184L20.4775 8.2682C20.9036 9.16576 21.7271 9.78787 22.6798 9.9318L26.8261 10.5582C29.2252 10.9207 30.1832 13.986 28.4472 15.7454L25.4469 18.7861C24.7575 19.4847 24.4429 20.4913 24.6057 21.4779L25.3139 25.7714C25.7238 28.2556 23.2158 30.1501 21.07 28.9772L17.3614 26.9501C16.5093 26.4843 15.4913 26.4843 14.6392 26.9501L10.9307 28.9772C8.78485 30.1501 6.27689 28.2557 6.68671 25.7714L7.39498 21.4779C7.55771 20.4913 7.24314 19.4847 6.55377 18.7861L3.55349 15.7454C1.81748 13.986 2.77543 10.9207 5.17454 10.5582L9.32082 9.9318C10.2735 9.78787 11.0971 9.16576 11.5231 8.2682L13.3774 4.36184Z" fill="#FFAF36"/>
</svg>
