<svg width="25" height="25" viewBox="0 0 25 25" fill="none" xmlns="http://www.w3.org/2000/svg">
<path d="M14.1639 5.19695H7.41388C7.22491 5.19695 7.04369 5.27202 6.91007 5.40564C6.77645 5.53926 6.70138 5.72049 6.70138 5.90945V10.972C6.70138 11.1609 6.77645 11.3421 6.91007 11.4758C7.04369 11.6094 7.22491 11.6845 7.41388 11.6845H14.1639C14.3528 11.6845 14.5341 11.6094 14.6677 11.4758C14.8013 11.3421 14.8764 11.1609 14.8764 10.972V5.90945C14.8764 5.72049 14.8013 5.53926 14.6677 5.40564C14.5341 5.27202 14.3528 5.19695 14.1639 5.19695ZM13.4514 10.2595H8.12638V6.62195H13.4514V10.2595Z" fill="#949BA9" stroke="#949BA9" stroke-width="0.3"/>
<path d="M19.54 11.001L19.5402 11.0013L20.9396 13.1015C21.3881 13.7727 21.6271 14.5619 21.6264 15.3692M19.54 11.001L21.4764 15.369M19.54 11.001C19.4332 10.8413 19.3762 10.6535 19.3764 10.4613V10.4612L19.3764 8.30008L19.3764 8.29974C19.3756 7.97105 19.2987 7.64701 19.1518 7.35302C19.0048 7.05903 18.7917 6.80309 18.5292 6.60528L18.5289 6.60508L17.1264 5.5532V4.78445C17.1264 4.29712 16.9328 3.82974 16.5882 3.48515C16.2436 3.14055 15.7762 2.94695 15.2889 2.94695H6.28888C5.80154 2.94695 5.33417 3.14055 4.98957 3.48515C4.64497 3.82974 4.45138 4.29712 4.45138 4.78445V19.822M19.54 11.001L4.45138 19.822M21.6264 15.3692L21.4764 15.369M21.6264 15.3692V15.369H21.4764M21.6264 15.3692V16.8782C21.6264 17.4401 21.4032 17.979 21.0058 18.3764C20.6085 18.7737 20.0696 18.997 19.5076 18.997C18.9457 18.997 18.4068 18.7737 18.0094 18.3764C17.6121 17.979 17.3889 17.4401 17.3889 16.8782V14.347C17.3889 14.2376 17.3454 14.1326 17.2681 14.0553C17.2273 14.0146 17.179 13.9832 17.1264 13.9627M21.4764 15.369V16.8782C21.4764 17.4003 21.269 17.9011 20.8997 18.2703C20.5305 18.6395 20.0298 18.847 19.5076 18.847C18.9855 18.847 18.4847 18.6395 18.1155 18.2703C17.7463 17.9011 17.5389 17.4003 17.5389 16.8782V14.347C17.5389 14.1978 17.4796 14.0547 17.3741 13.9492C17.3048 13.8799 17.2192 13.8305 17.1264 13.8048V13.9627M17.1264 13.9627V19.822M17.1264 13.9627C17.079 13.9442 17.0282 13.9345 16.9764 13.9345V19.822H17.1264M17.1264 19.822H17.5389C17.7278 19.822 17.9091 19.897 18.0427 20.0306C18.1763 20.1643 18.2514 20.3455 18.2514 20.5345C18.2514 20.7234 18.1763 20.9046 18.0427 21.0383C17.9091 21.1719 17.7278 21.247 17.5389 21.247H4.03888C3.84991 21.247 3.66869 21.1719 3.53507 21.0383C3.40145 20.9046 3.32638 20.7234 3.32638 20.5345C3.32638 20.3455 3.40145 20.1643 3.53507 20.0306C3.66869 19.897 3.84991 19.822 4.03888 19.822H4.45138M17.1264 19.822V19.972H17.5389C17.6881 19.972 17.8311 20.0312 17.9366 20.1367C18.0421 20.2422 18.1014 20.3853 18.1014 20.5345C18.1014 20.6836 18.0421 20.8267 17.9366 20.9322C17.8311 21.0377 17.6881 21.097 17.5389 21.097H4.03888C3.8897 21.097 3.74662 21.0377 3.64113 20.9322C3.53564 20.8267 3.47638 20.6836 3.47638 20.5345C3.47638 20.3853 3.53564 20.2422 3.64113 20.1367C3.74662 20.0312 3.8897 19.972 4.03888 19.972L4.45138 19.822M19.7541 13.892L19.7541 13.8918L18.3547 11.7922C18.0912 11.3983 17.9508 10.9349 17.9514 10.461M19.7541 13.892L18.1014 8.30008L17.9514 8.30038M19.7541 13.892C20.0462 14.3291 20.2018 14.8432 20.2014 15.3689V15.369V16.8782C20.2014 17.0622 20.1283 17.2387 19.9982 17.3688C19.8681 17.4989 19.6916 17.572 19.5076 17.572C19.3236 17.572 19.1472 17.4989 19.0171 17.3688C18.887 17.2387 18.8139 17.0622 18.8139 16.8782V14.347C18.8139 13.8596 18.6203 13.3922 18.2757 13.0476C17.9666 12.7386 17.5588 12.551 17.1264 12.5156V7.33445L17.6736 7.7449M19.7541 13.892L17.6736 7.7449M17.9514 10.461L18.1014 10.4612H17.9514V10.461ZM17.9514 10.461L17.9514 8.30038M17.9514 8.30038L17.9514 8.30008M17.9514 8.30038C17.9514 8.30028 17.9514 8.30018 17.9514 8.30008M17.9514 8.30008C17.9511 8.19243 17.9259 8.08629 17.8778 7.99C17.8296 7.89368 17.7598 7.80982 17.6738 7.74501M17.9514 8.30008L17.6738 7.74501M17.6738 7.74501C17.6737 7.74497 17.6737 7.74494 17.6736 7.7449M17.6738 7.74501L17.6736 7.7449M5.87638 19.822V4.78445C5.87638 4.67505 5.91984 4.57013 5.9972 4.49277C6.07456 4.41541 6.17948 4.37195 6.28888 4.37195H15.2889C15.3983 4.37195 15.5032 4.41541 15.5806 4.49277C15.6579 4.57013 15.7014 4.67505 15.7014 4.78445V19.822H5.87638Z" fill="#949BA9" stroke="#949BA9" stroke-width="0.3"/>
</svg>
