<svg width="57" height="57" viewBox="0 0 57 57" fill="none" xmlns="http://www.w3.org/2000/svg">
<g clip-path="url(#clip0_152_6306)">
<path d="M10.8846 41.1374C8.43838 38.5391 7.125 35.625 7.125 30.9011C7.125 22.5886 12.9604 15.1382 21.4462 11.4546L23.5671 14.7274C15.6465 19.0119 14.098 24.5717 13.4805 28.0772C14.7559 27.417 16.4255 27.1866 18.0619 27.3386C22.3464 27.7352 25.7236 31.2526 25.7236 35.625C25.7236 37.8296 24.8478 39.9439 23.2889 41.5028C21.7301 43.0617 19.6157 43.9375 17.4111 43.9375C14.8627 43.9375 12.426 42.7737 10.8846 41.1374ZM34.6346 41.1374C32.1884 38.5391 30.875 35.625 30.875 30.9011C30.875 22.5886 36.7104 15.1382 45.1963 11.4546L47.3171 14.7274C39.3965 19.0119 37.848 24.5717 37.2305 28.0772C38.5059 27.417 40.1755 27.1866 41.8119 27.3386C46.0964 27.7352 49.4736 31.2526 49.4736 35.625C49.4736 37.8296 48.5978 39.9439 47.039 41.5028C45.4801 43.0617 43.3657 43.9375 41.1611 43.9375C38.6127 43.9375 36.176 42.7737 34.6346 41.1374Z" fill="#6170EF"/>
</g>
<defs>
<clipPath id="clip0_152_6306">
<rect width="57" height="57" fill="white"/>
</clipPath>
</defs>
</svg>
