<svg width="22" height="21" viewBox="0 0 22 21" fill="none" xmlns="http://www.w3.org/2000/svg">
<g clip-path="url(#clip0_773_10131)">
<path fill-rule="evenodd" clip-rule="evenodd" d="M1.13567 0.532639C1.52619 0.142115 2.15936 0.142115 2.54988 0.532639L11.1059 9.08869L19.662 0.532639C20.0525 0.142115 20.6857 0.142115 21.0762 0.532639C21.4667 0.923164 21.4667 1.55633 21.0762 1.94685L12.5201 10.5029L21.0762 19.059C21.4667 19.4495 21.4667 20.0827 21.0762 20.4732C20.6857 20.8637 20.0525 20.8637 19.662 20.4732L11.1059 11.9171L2.54988 20.4732C2.15936 20.8637 1.52619 20.8637 1.13567 20.4732C0.745142 20.0827 0.745142 19.4495 1.13567 19.059L9.69172 10.5029L1.13567 1.94685C0.745142 1.55633 0.745142 0.923164 1.13567 0.532639Z" fill="white"/>
</g>
<defs>
<clipPath id="clip0_773_10131">
<rect width="22" height="21" fill="white"/>
</clipPath>
</defs>
</svg>
