<svg width="18" height="18" viewBox="0 0 18 18" fill="none" xmlns="http://www.w3.org/2000/svg">
<path d="M2.84164 5.92077L2.50623 6.59159L2.50623 6.59159L2.84164 5.92077ZM8.32918 8.66454L8.66459 7.99372L8.32918 8.66454ZM15.1584 5.92077L15.4938 6.59159V6.59159L15.1584 5.92077ZM15.1584 4.57913L15.4938 3.90831L15.4938 3.90831L15.1584 4.57913ZM9.67082 1.83536L9.33541 2.50618L9.67082 1.83536ZM8.32918 1.83536L7.99377 1.16454V1.16454L8.32918 1.83536ZM2.84164 4.57913L2.50623 3.90831H2.50623L2.84164 4.57913ZM9.60921 16.2292L9.3046 15.5438H9.3046L9.60921 16.2292ZM16.0546 14.1853C16.4331 14.0171 16.6036 13.5739 16.4354 13.1953C16.2671 12.8168 15.8239 12.6464 15.4454 12.8146L16.0546 14.1853ZM2.5546 12.8146C2.17609 12.6464 1.73287 12.8168 1.56464 13.1953C1.39641 13.5739 1.56688 14.0171 1.9454 14.1853L2.5546 12.8146ZM8.39079 16.2292L8.6954 15.5438L8.39079 16.2292ZM9.60921 12.4792L9.3046 11.7938H9.3046L9.60921 12.4792ZM16.0546 10.4353C16.4331 10.2671 16.6036 9.82386 16.4354 9.44535C16.2671 9.06683 15.8239 8.89636 15.4454 9.06459L16.0546 10.4353ZM2.5546 9.06459C2.17609 8.89636 1.73287 9.06683 1.56464 9.44535C1.39641 9.82386 1.56688 10.2671 1.9454 10.4353L2.5546 9.06459ZM8.39079 12.4792L8.6954 11.7938L8.39079 12.4792ZM2.50623 6.59159L7.99377 9.33536L8.66459 7.99372L3.17705 5.24995L2.50623 6.59159ZM10.0062 9.33536L15.4938 6.59159L14.8229 5.24995L9.33541 7.99372L10.0062 9.33536ZM15.4938 3.90831L10.0062 1.16454L9.33541 2.50618L14.823 5.24995L15.4938 3.90831ZM7.99377 1.16454L2.50623 3.90831L3.17705 5.24995L8.66459 2.50618L7.99377 1.16454ZM10.0062 1.16454C9.37279 0.847823 8.62721 0.847822 7.99377 1.16454L8.66459 2.50618C8.87574 2.40061 9.12427 2.40061 9.33541 2.50618L10.0062 1.16454ZM15.4938 6.59159C16.5993 6.03881 16.5993 4.4611 15.4938 3.90831L14.8229 5.24995L14.8229 5.24995L15.4938 6.59159ZM7.99377 9.33536C8.62721 9.65208 9.37279 9.65208 10.0062 9.33536L9.33541 7.99372C9.12427 8.09929 8.87574 8.09929 8.66459 7.99372L7.99377 9.33536ZM3.17705 5.24995L3.17705 5.24995L2.50623 3.90831C1.40066 4.46109 1.40065 6.0388 2.50623 6.59159L3.17705 5.24995ZM9.91381 16.9146L16.0546 14.1853L15.4454 12.8146L9.3046 15.5438L9.91381 16.9146ZM1.9454 14.1853L8.08619 16.9146L8.6954 15.5438L2.5546 12.8146L1.9454 14.1853ZM9.3046 15.5438C9.11068 15.63 8.88932 15.63 8.6954 15.5438L8.08619 16.9146C8.66796 17.1731 9.33204 17.1731 9.91381 16.9146L9.3046 15.5438ZM9.91381 13.1646L16.0546 10.4353L15.4454 9.06459L9.3046 11.7938L9.91381 13.1646ZM1.9454 10.4353L8.08619 13.1646L8.6954 11.7938L2.5546 9.06459L1.9454 10.4353ZM9.3046 11.7938C9.11068 11.88 8.88932 11.88 8.6954 11.7938L8.08619 13.1646C8.66796 13.4231 9.33204 13.4231 9.91381 13.1646L9.3046 11.7938Z" fill="#949BA9"/>
</svg>
