<svg width="16" height="16" viewBox="0 0 16 16" fill="none" xmlns="http://www.w3.org/2000/svg">
<path d="M12.5303 11.803C12.2374 11.5102 11.7626 11.5102 11.4697 11.803C11.1768 12.0959 11.1768 12.5708 11.4697 12.8637L12.5303 11.803ZM13.803 15.197C14.0959 15.4899 14.5708 15.4899 14.8637 15.197C15.1566 14.9041 15.1566 14.4293 14.8637 14.1364L13.803 15.197ZM14.4167 7.66671C14.4167 3.75469 11.2453 0.583374 7.33333 0.583374V2.08337C10.4169 2.08337 12.9167 4.58312 12.9167 7.66671H14.4167ZM7.33333 0.583374C3.42132 0.583374 0.25 3.75469 0.25 7.66671H1.75C1.75 4.58312 4.24974 2.08337 7.33333 2.08337V0.583374ZM0.25 7.66671C0.25 11.5787 3.42132 14.75 7.33333 14.75V13.25C4.24974 13.25 1.75 10.7503 1.75 7.66671H0.25ZM7.33333 14.75C11.2453 14.75 14.4167 11.5787 14.4167 7.66671H12.9167C12.9167 10.7503 10.4169 13.25 7.33333 13.25V14.75ZM11.4697 12.8637L13.803 15.197L14.8637 14.1364L12.5303 11.803L11.4697 12.8637Z" fill="#949BA9"/>
</svg>
