<svg width="24" height="24" viewBox="0 0 24 24" fill="none" xmlns="http://www.w3.org/2000/svg">
<path d="M18 5H17.1H18ZM18 19H18.9H18ZM22 19H22.9H22ZM22 5H21.1H22ZM2 13H2.9H2ZM2 19H1.1H2ZM6 19H5.1H6ZM6 13H6.9H6ZM10 9H10.9H10ZM10 19H9.1H10ZM14 19H14.9H14ZM14 9H13.1H14ZM21.1 5V19H22.9V5H21.1ZM18.9 19V5H17.1V19H18.9ZM18.9 5C18.9 4.39249 19.3925 3.9 20 3.9V2.1C18.3984 2.1 17.1 3.39837 17.1 5H18.9ZM20 20.1C19.3925 20.1 18.9 19.6075 18.9 19H17.1C17.1 20.6016 18.3984 21.9 20 21.9V20.1ZM21.1 19C21.1 19.6075 20.6075 20.1 20 20.1V21.9C21.6016 21.9 22.9 20.6016 22.9 19H21.1ZM22.9 5C22.9 3.39837 21.6016 2.1 20 2.1V3.9C20.6075 3.9 21.1 4.39249 21.1 5H22.9ZM5.1 13L5.1 19H6.9L6.9 13H5.1ZM2.9 19L2.9 13H1.1L1.1 19H2.9ZM2.9 13C2.9 12.3925 3.39249 11.9 4 11.9V10.1C2.39837 10.1 1.1 11.3984 1.1 13H2.9ZM4 20.1C3.39249 20.1 2.9 19.6075 2.9 19H1.1C1.1 20.6016 2.39837 21.9 4 21.9V20.1ZM5.1 19C5.1 19.6075 4.60751 20.1 4 20.1V21.9C5.60163 21.9 6.9 20.6016 6.9 19H5.1ZM6.9 13C6.9 11.3984 5.60163 10.1 4 10.1V11.9C4.60751 11.9 5.1 12.3925 5.1 13H6.9ZM13.1 9V19H14.9V9H13.1ZM10.9 19L10.9 9H9.1L9.1 19H10.9ZM10.9 9C10.9 8.39249 11.3925 7.9 12 7.9V6.1C10.3984 6.1 9.1 7.39838 9.1 9H10.9ZM12 20.1C11.3925 20.1 10.9 19.6075 10.9 19H9.1C9.1 20.6016 10.3984 21.9 12 21.9V20.1ZM13.1 19C13.1 19.6075 12.6075 20.1 12 20.1V21.9C13.6016 21.9 14.9 20.6016 14.9 19H13.1ZM14.9 9C14.9 7.39837 13.6016 6.1 12 6.1V7.9C12.6075 7.9 13.1 8.39249 13.1 9H14.9Z" fill="#949BA9"/>
</svg>
