<svg width="24" height="24" viewBox="0 0 24 24" fill="none" xmlns="http://www.w3.org/2000/svg">
<g clip-path="url(#clip0_541_4115)">
<g clip-path="url(#clip1_541_4115)">
<path d="M12 14.312C11.4715 14.312 10.9986 14.2512 10.5943 14.1313C10.1884 14.0111 9.82613 13.828 9.51764 13.5872C9.20902 13.3463 8.94094 13.0402 8.72077 12.6772C8.53796 12.3761 8.37202 12.0278 8.2275 11.6421C8.16933 11.4868 8.24363 11.3153 8.39672 11.2516L9.64533 10.7323C9.68283 10.7166 9.7223 10.7087 9.76275 10.7087C9.87188 10.7087 9.97346 10.7674 10.028 10.8621C10.2364 11.2237 10.4924 11.658 10.5621 11.7571C10.671 11.912 10.7945 12.0479 10.9295 12.1609C11.0635 12.2735 11.2176 12.3621 11.3877 12.4242C11.5575 12.4865 11.756 12.5181 11.9776 12.5181C12.2575 12.5181 12.5039 12.4719 12.7099 12.3808C12.9163 12.2896 13.0914 12.1694 13.2303 12.0232C13.369 11.8774 13.4745 11.7101 13.5439 11.5259C13.6134 11.3411 13.6487 11.1553 13.6487 10.9736C13.6487 10.73 13.6265 10.5068 13.5828 10.3104C13.5406 10.1207 13.4419 9.95658 13.2893 9.82266C13.1347 9.68715 12.9012 9.58055 12.5951 9.50579C12.3352 9.44237 11.9918 9.40505 11.5744 9.39479C11.4061 9.39057 11.2743 9.25623 11.2743 9.08888V8.15265C11.2743 7.9868 11.4039 7.8526 11.5695 7.84707C11.9051 7.83573 12.1911 7.80001 12.4197 7.74095C12.6993 7.66857 12.921 7.56657 13.0784 7.43771C13.2342 7.31026 13.343 7.15501 13.4018 6.97623C13.4619 6.79346 13.4925 6.59068 13.4925 6.37356C13.4925 5.91765 13.3732 5.56595 13.138 5.32824C12.9029 5.09087 12.5626 4.97049 12.1266 4.97049C11.9345 4.97049 11.7557 4.99838 11.5952 5.05342C11.4345 5.10859 11.2888 5.18509 11.162 5.28076C11.0349 5.37671 10.9244 5.49085 10.8338 5.61985C10.743 5.74876 10.6753 5.89154 10.6323 6.04421C10.6042 6.11874 10.5701 6.23401 10.5307 6.36741C10.5172 6.41298 10.5032 6.46037 10.4888 6.50823C10.4502 6.63629 10.3298 6.72568 10.1961 6.72568C10.1787 6.72568 10.1611 6.72418 10.1439 6.72118L8.74111 6.47996C8.65913 6.46585 8.58816 6.4202 8.54124 6.35152C8.49356 6.28173 8.47674 6.19735 8.4938 6.11401C8.57986 5.69368 8.71599 5.31235 8.89842 4.98071C9.11869 4.58021 9.39825 4.24224 9.72933 3.97628C10.0602 3.71064 10.4424 3.50875 10.8654 3.37614C11.2876 3.24376 11.7495 3.17664 12.2382 3.17664C12.7573 3.17664 13.2298 3.25145 13.6427 3.39906C14.0562 3.54699 14.4109 3.75179 14.697 4.00773C14.9835 4.26418 15.2067 4.56765 15.3601 4.90974C15.5137 5.25207 15.5915 5.62435 15.5915 6.01623C15.5915 6.36099 15.5546 6.66957 15.4818 6.93348C15.4086 7.19846 15.2983 7.43284 15.1541 7.63018C15.0099 7.82752 14.8303 7.99684 14.6204 8.13348C14.4461 8.24687 14.2478 8.34544 14.0295 8.42738C15.1995 8.85493 15.7924 9.68832 15.7924 10.9065C15.7924 11.4621 15.6881 11.9588 15.4823 12.3828C15.2768 12.8064 14.997 13.1663 14.6508 13.4522C14.3053 13.7377 13.8978 13.9548 13.4398 14.0975C12.983 14.2398 12.4986 14.312 12 14.312Z" fill="#B9BBC1"/>
<path d="M14.1038 8.45599V13.8193C14.2998 13.7135 14.4827 13.5912 14.6507 13.4524C14.9969 13.1664 15.2767 12.8066 15.4822 12.383C15.688 11.959 15.7923 11.4623 15.7923 10.9067C15.7923 9.71473 15.2243 8.89142 14.1038 8.45599Z" fill="#A0A3AA"/>
<path d="M15.154 7.63034C15.2982 7.43299 15.4085 7.19857 15.4817 6.93363C15.5545 6.66977 15.5914 6.36115 15.5914 6.01639C15.5914 5.62451 15.5135 5.25223 15.36 4.9099C15.2066 4.56781 14.9834 4.26434 14.6969 4.00789C14.5237 3.85301 14.3251 3.71717 14.1039 3.60101V8.39754C14.2926 8.32174 14.4663 8.2339 14.6203 8.13368C14.8302 7.99699 15.0098 7.82768 15.154 7.63034Z" fill="#A0A3AA"/>
<path d="M1.83264 5.18013C2.43808 4.51957 3.07258 3.92515 3.77115 3.37329C3.85333 3.30841 3.97159 3.38608 3.94408 3.4871C3.55253 4.9263 2.86839 6.34858 1.8137 7.4059C1.76636 6.66569 1.76565 5.9193 1.83264 5.18013Z" fill="#B9BBC1"/>
<path d="M1.8138 7.40644C1.20489 6.67163 0.681672 5.91192 0.210156 5.09171C0.15625 4.99791 0.0128593 5.03138 0.00737489 5.13943C-0.0776564 6.81956 0.564297 8.78545 2.12828 9.57834C1.97242 8.86383 1.86011 8.13675 1.8138 7.40644Z" fill="#B9BBC1"/>
<path d="M2.12818 9.57781C2.51138 8.78937 2.94034 8.05578 3.44307 7.34468C3.50274 7.26031 3.63648 7.29898 3.64084 7.4022C3.7021 8.85354 3.45306 10.3878 2.75762 11.6618C2.4999 10.9837 2.2824 10.2872 2.12818 9.57781Z" fill="#B9BBC1"/>
<path d="M2.75781 11.6623C1.96717 11.1542 1.24487 10.5986 0.552061 9.97451C0.472139 9.90251 0.346748 9.9777 0.373842 10.0818C0.791217 11.6866 1.98479 13.3334 3.68415 13.6243C3.3309 12.9934 3.01445 12.3387 2.75781 11.6623Z" fill="#B9BBC1"/>
<path d="M3.68387 13.6238C3.82238 12.7636 4.02048 11.943 4.29624 11.1227C4.32905 11.0251 4.46757 11.0232 4.50193 11.1202C4.98422 12.4819 5.1796 14.018 4.8886 15.4297C4.44634 14.8573 4.03712 14.2557 3.68387 13.6238Z" fill="#B9BBC1"/>
<path d="M4.88898 15.4302C3.98767 15.1749 3.13623 14.8555 2.2929 14.4641C2.19549 14.4189 2.09785 14.5272 2.15401 14.6188C3.02106 16.0328 4.64434 17.257 6.35411 17.046C5.82925 16.5432 5.33326 16.0061 4.88898 15.4302Z" fill="#B9BBC1"/>
<path d="M6.35368 17.0457C6.23068 16.179 6.17846 15.3338 6.2026 14.4649C6.20546 14.3619 6.3376 14.3197 6.39872 14.4026C7.2623 15.5734 7.9065 16.9956 8.06067 18.4375C7.46021 18.0155 6.88365 17.5542 6.35368 17.0457Z" fill="#B9BBC1"/>
<path d="M22.1673 5.18013C21.5618 4.51957 20.9273 3.92515 20.2287 3.37329C20.1466 3.30841 20.0283 3.38608 20.0558 3.4871C20.4474 4.9263 21.1315 6.34858 22.1862 7.4059C22.2336 6.66569 22.2343 5.9193 22.1673 5.18013Z" fill="#B9BBC1"/>
<path d="M22.1861 7.40644C22.795 6.67163 23.3182 5.91192 23.7897 5.09171C23.8437 4.99791 23.987 5.03138 23.9925 5.13943C24.0776 6.81956 23.4356 8.78545 21.8716 9.57834C22.0275 8.86383 22.1398 8.13675 22.1861 7.40644Z" fill="#B9BBC1"/>
<path d="M21.8717 9.57781C21.4885 8.78937 21.0596 8.05578 20.5568 7.34468C20.4971 7.26031 20.3634 7.29898 20.3591 7.4022C20.2978 8.85354 20.5468 10.3878 21.2423 11.6618C21.5 10.9837 21.7175 10.2872 21.8717 9.57781Z" fill="#B9BBC1"/>
<path d="M21.2421 11.6623C22.0327 11.1542 22.755 10.5986 23.4478 9.97451C23.5277 9.90251 23.6531 9.9777 23.626 10.0818C23.2087 11.6866 22.0151 13.3334 20.3157 13.6243C20.669 12.9934 20.9854 12.3387 21.2421 11.6623Z" fill="#B9BBC1"/>
<path d="M20.316 13.6238C20.1775 12.7636 19.9794 11.943 19.7037 11.1227C19.6708 11.0251 19.5323 11.0232 19.498 11.1202C19.0157 12.4819 18.8203 14.018 19.1113 15.4297C19.5536 14.8573 19.9628 14.2557 20.316 13.6238Z" fill="#B9BBC1"/>
<path d="M19.1109 15.4302C20.0122 15.1749 20.8637 14.8555 21.707 14.4641C21.8044 14.4189 21.902 14.5272 21.8459 14.6188C20.9789 16.0328 19.3556 17.257 17.6458 17.046C18.1707 16.5432 18.6666 16.0061 19.1109 15.4302Z" fill="#B9BBC1"/>
<path d="M17.6462 17.0457C17.7692 16.179 17.8214 15.3338 17.7973 14.4649C17.7944 14.3619 17.6623 14.3197 17.6012 14.4026C16.7376 15.5734 16.0934 16.9956 15.9392 18.4375C16.5397 18.0155 17.1162 17.5542 17.6462 17.0457Z" fill="#B9BBC1"/>
<path d="M22.5159 5.20975C22.5158 5.20263 22.5159 5.19555 22.5154 5.18838C22.4326 4.08649 22.2295 2.98188 21.9117 1.9053C21.8551 1.71344 21.6535 1.6038 21.4618 1.66047C21.2699 1.7171 21.1603 1.91852 21.2169 2.11038C21.5172 3.12752 21.7098 4.17049 21.7902 5.21083C21.7904 5.21861 21.7905 5.22639 21.7912 5.23427C21.8522 5.90688 21.8583 6.63574 21.8094 7.40069C21.8093 7.40097 21.8093 7.4013 21.8093 7.40158C21.7672 8.06575 21.6641 8.77694 21.503 9.51541C21.503 9.51545 21.5029 9.51555 21.5029 9.51559C21.3627 10.1607 21.1564 10.8434 20.8898 11.5447C20.8897 11.545 20.8897 11.5451 20.8896 11.5454V11.5454C20.6559 12.1613 20.3524 12.804 19.9874 13.4557C19.6656 14.0313 19.2709 14.623 18.814 15.2143C18.8139 15.2144 18.8139 15.2145 18.8138 15.2146C18.8137 15.2147 18.8136 15.2148 18.8135 15.2149C18.4086 15.7397 17.9287 16.2688 17.3871 16.7878L17.387 16.7879C16.9044 17.251 16.3452 17.7067 15.7251 18.1425C15.7228 18.1441 15.7209 18.1459 15.7187 18.1475C15.7166 18.1491 15.7143 18.1504 15.7122 18.152C14.669 18.9535 14.1403 19.1535 13.5806 19.365C13.1374 19.5326 12.6848 19.7042 12.0001 20.1606C11.3153 19.7042 10.8628 19.5326 10.4195 19.365C9.8598 19.1534 9.33114 18.9535 8.28789 18.152C8.28583 18.1504 8.28358 18.1491 8.28147 18.1476C8.27927 18.1459 8.27725 18.1441 8.275 18.1425C7.65485 17.7068 7.09572 17.251 6.61305 16.7879L6.613 16.7878C6.07136 16.2689 5.59145 15.7397 5.18655 15.2149C5.18645 15.2148 5.18636 15.2147 5.18631 15.2146C5.18622 15.2145 5.18617 15.2144 5.18608 15.2143C4.72924 14.623 4.33445 14.0313 4.0127 13.4557C3.64769 12.804 3.34417 12.1613 3.1105 11.5454C3.1105 11.5454 3.1105 11.5454 3.11045 11.5454C3.11036 11.5451 3.11031 11.545 3.11022 11.5447C2.84359 10.8434 2.6373 10.1607 2.497 9.51559C2.497 9.5155 2.49695 9.51545 2.49695 9.51541C2.3358 8.77694 2.23277 8.0657 2.19067 7.40158C2.19062 7.40125 2.19058 7.40097 2.19058 7.40069C2.14164 6.63578 2.14773 5.90688 2.20877 5.23427C2.20947 5.22639 2.20952 5.21861 2.2097 5.21083C2.29014 4.17049 2.48275 3.12756 2.78303 2.11038C2.83966 1.91852 2.73002 1.7171 2.53816 1.66047C2.34648 1.6037 2.14487 1.71344 2.08825 1.9053C1.77044 2.98188 1.56733 4.08649 1.48455 5.18838C1.48398 5.19555 1.48412 5.20263 1.48403 5.20975C1.42309 5.90795 1.41733 6.6602 1.46772 7.44695C1.46772 7.44714 1.46772 7.44728 1.46772 7.44747C1.51216 8.14745 1.62025 8.89455 1.78891 9.66803C1.789 9.66855 1.78905 9.66906 1.78914 9.66958C1.93708 10.3497 2.15364 11.0671 2.43292 11.8019C2.43302 11.8021 2.43306 11.8023 2.43311 11.8024C2.67934 12.4512 2.99791 13.1263 3.38008 13.8088C3.38017 13.8089 3.38022 13.8091 3.38031 13.8092C3.7195 14.4159 4.13416 15.0377 4.61284 15.6572C4.61289 15.6572 4.61294 15.6573 4.61299 15.6573C4.61303 15.6573 4.61303 15.6573 4.61303 15.6574C5.03997 16.2108 5.5443 16.7671 6.11205 17.3111C6.11219 17.3112 6.11238 17.3114 6.11252 17.3115C6.61985 17.7982 7.20527 18.2757 7.85257 18.7309C8.97672 19.594 9.57996 19.822 10.1632 20.0426C10.5263 20.1798 10.8797 20.3137 11.3689 20.6146C10.9944 20.9017 10.5606 21.2619 10.0459 21.7224C9.89683 21.8557 9.88408 22.0847 10.0175 22.2338C10.089 22.3137 10.1881 22.3545 10.2875 22.3545C10.3735 22.3545 10.4598 22.324 10.5289 22.2622C11.1257 21.7281 11.6027 21.3378 12 21.0443C12.3972 21.3378 12.8742 21.7281 13.4711 22.2622C13.5401 22.324 13.6264 22.3545 13.7124 22.3545C13.8119 22.3545 13.9109 22.3137 13.9825 22.2338C14.1159 22.0847 14.1032 21.8557 13.9541 21.7224C13.4394 21.2618 13.0056 20.9016 12.6311 20.6146C13.1202 20.3137 13.4737 20.1798 13.8367 20.0426C14.42 19.8221 15.0232 19.594 16.1474 18.7309C16.7947 18.2757 17.3801 17.7982 17.8874 17.3115C17.8876 17.3114 17.8878 17.3112 17.8879 17.3111C18.4557 16.7671 18.96 16.2108 19.3869 15.6574C19.3869 15.6573 19.387 15.6573 19.387 15.6573C19.387 15.6573 19.3871 15.6572 19.3871 15.6572C19.8658 15.0377 20.2804 14.4159 20.6196 13.8092C20.6197 13.8091 20.6198 13.8089 20.6199 13.8088C21.002 13.1263 21.3206 12.4512 21.5668 11.8024C21.5669 11.8023 21.567 11.8021 21.567 11.8019C21.8463 11.0671 22.0629 10.3497 22.2108 9.66958C22.2109 9.66906 22.2109 9.66855 22.211 9.66803C22.3797 8.89455 22.4878 8.14745 22.5322 7.44747C22.5322 7.44728 22.5322 7.44714 22.5322 7.44695C22.5826 6.6602 22.5769 5.90795 22.5159 5.20975Z" fill="#A0A3AA"/>
</g>
</g>
<defs>
<clipPath id="clip0_541_4115">
<rect width="24" height="24" fill="white"/>
</clipPath>
<clipPath id="clip1_541_4115">
<rect width="24" height="24" fill="white"/>
</clipPath>
</defs>
</svg>
