<svg width="24" height="24" viewBox="0 0 24 24" fill="none" xmlns="http://www.w3.org/2000/svg">
<path d="M18.8905 7.66428L19.3904 6.91589L18.8905 7.66428ZM13.1095 16.3357L12.6096 17.0841L13.1095 16.3357ZM10.3999 16.7999L11.1195 17.3405L10.3999 16.7999ZM5.60009 13.2001L4.88051 12.6595L5.60009 13.2001ZM4 13.1C3.39249 13.1 2.9 12.6075 2.9 12H1.1C1.1 13.6016 2.39837 14.9 4 14.9V13.1ZM2.9 12C2.9 11.3925 3.39249 10.9 4 10.9V9.1C2.39837 9.1 1.1 10.3984 1.1 12H2.9ZM4 10.9C4.60751 10.9 5.1 11.3925 5.1 12H6.9C6.9 10.3984 5.60163 9.1 4 9.1V10.9ZM13.1 18C13.1 18.6075 12.6075 19.1 12 19.1V20.9C13.6016 20.9 14.9 19.6016 14.9 18H13.1ZM12 19.1C11.3925 19.1 10.9 18.6075 10.9 18H9.1C9.1 19.6016 10.3984 20.9 12 20.9V19.1ZM21.1 6C21.1 6.60751 20.6075 7.1 20 7.1V8.9C21.6016 8.9 22.9 7.60163 22.9 6H21.1ZM18.9 6C18.9 5.39249 19.3925 4.9 20 4.9V3.1C18.3984 3.1 17.1 4.39837 17.1 6H18.9ZM20 4.9C20.6075 4.9 21.1 5.39249 21.1 6H22.9C22.9 4.39837 21.6016 3.1 20 3.1V4.9ZM20 7.1C19.773 7.1 19.5645 7.03219 19.3904 6.91589L18.3906 8.41266C18.8514 8.72051 19.4061 8.9 20 8.9V7.1ZM19.3904 6.91589C19.0928 6.71712 18.9 6.3809 18.9 6H17.1C17.1 7.00733 17.6143 7.89415 18.3906 8.41266L19.3904 6.91589ZM13.8584 16.835L19.6393 8.16351L18.1416 7.16505L12.3607 15.8365L13.8584 16.835ZM12 16.9C12.227 16.9 12.4355 16.9678 12.6096 17.0841L13.6094 15.5873C13.1486 15.2795 12.5939 15.1 12 15.1V16.9ZM12.6096 17.0841C12.9072 17.2829 13.1 17.6191 13.1 18H14.9C14.9 16.9927 14.3857 16.1058 13.6094 15.5873L12.6096 17.0841ZM10.9 18C10.9 17.7513 10.9814 17.5242 11.1195 17.3405L9.68032 16.2594C9.31615 16.7442 9.1 17.3481 9.1 18H10.9ZM11.1195 17.3405C11.3217 17.0713 11.6407 16.9 12 16.9V15.1C11.0507 15.1 10.2079 15.5571 9.68032 16.2594L11.1195 17.3405ZM10.9399 16.0799L6.14009 12.4801L5.06009 13.9201L9.85991 17.5199L10.9399 16.0799ZM5.1 12C5.1 12.2487 5.01855 12.4758 4.88051 12.6595L6.31968 13.7406C6.68385 13.2558 6.9 12.6519 6.9 12H5.1ZM4.88051 12.6595C4.6783 12.9287 4.35928 13.1 4 13.1V14.9C4.94931 14.9 5.79212 14.4429 6.31968 13.7406L4.88051 12.6595Z" fill="#949BA9"/>
</svg>
