<svg width="24" height="24" viewBox="0 0 24 24" fill="none" xmlns="http://www.w3.org/2000/svg">
<path d="M3.32733 5.77707C2.99711 6.14858 3.03057 6.71744 3.40207 7.04767C3.77358 7.37789 4.34244 7.34443 4.67267 6.97293L3.32733 5.77707ZM5.50518 4.68167L4.83251 4.08374L4.83251 4.08374L5.50518 4.68167ZM8.49482 4.68167L9.16749 4.08374L9.16749 4.08374L8.49482 4.68167ZM8.49482 19.3183L9.16749 19.9163L8.49482 19.3183ZM10.6727 18.2229C11.0029 17.8514 10.9694 17.2826 10.5979 16.9523C10.2264 16.6221 9.65756 16.6556 9.32733 17.0271L10.6727 18.2229ZM5.50518 19.3183L4.83251 19.9163L5.50518 19.3183ZM4.67267 17.0271C4.34244 16.6556 3.77358 16.6221 3.40207 16.9523C3.03057 17.2826 2.99711 17.8514 3.32733 18.2229L4.67267 17.0271ZM4.67267 6.97293L6.17785 5.2796L4.83251 4.08374L3.32733 5.77707L4.67267 6.97293ZM7.82215 5.2796L9.32733 6.97293L10.6727 5.77707L9.16749 4.08374L7.82215 5.2796ZM9.16749 19.9163L10.6727 18.2229L9.32733 17.0271L7.82215 18.7204L9.16749 19.9163ZM6.17785 18.7204L4.67267 17.0271L3.32733 18.2229L4.83251 19.9163L6.17785 18.7204ZM7.82215 18.7204C7.38458 19.2127 6.61542 19.2127 6.17785 18.7204L4.83251 19.9163C5.98611 21.2141 8.01389 21.2141 9.16749 19.9163L7.82215 18.7204ZM6.17785 5.2796C6.61542 4.78733 7.38458 4.78733 7.82215 5.2796L9.16749 4.08374C8.01389 2.78595 5.98611 2.78595 4.83251 4.08374L6.17785 5.2796ZM17 9.1C15.8402 9.1 14.9 8.1598 14.9 7H13.1C13.1 9.15391 14.8461 10.9 17 10.9V9.1ZM19.1 7C19.1 8.1598 18.1598 9.1 17 9.1V10.9C19.1539 10.9 20.9 9.15391 20.9 7H19.1ZM17 4.9C18.1598 4.9 19.1 5.8402 19.1 7H20.9C20.9 4.84609 19.1539 3.1 17 3.1V4.9ZM17 3.1C14.8461 3.1 13.1 4.84609 13.1 7H14.9C14.9 5.8402 15.8402 4.9 17 4.9V3.1ZM17 19.1C15.8402 19.1 14.9 18.1598 14.9 17H13.1C13.1 19.1539 14.8461 20.9 17 20.9V19.1ZM19.1 17C19.1 18.1598 18.1598 19.1 17 19.1V20.9C19.1539 20.9 20.9 19.1539 20.9 17H19.1ZM17 14.9C18.1598 14.9 19.1 15.8402 19.1 17H20.9C20.9 14.8461 19.1539 13.1 17 13.1V14.9ZM17 13.1C14.8461 13.1 13.1 14.8461 13.1 17H14.9C14.9 15.8402 15.8402 14.9 17 14.9V13.1ZM6.1 4V20H7.9V4H6.1Z" fill="#949BA9"/>
</svg>
