<svg width="32" height="32" viewBox="0 0 32 32" fill="none" xmlns="http://www.w3.org/2000/svg">
<path d="M8.00002 7.83341C7.17159 7.83341 6.50002 8.50499 6.50002 9.33341C6.50002 10.1618 7.17159 10.8334 8.00002 10.8334V7.83341ZM18.6667 10.8334C19.4951 10.8334 20.1667 10.1618 20.1667 9.33341C20.1667 8.50499 19.4951 7.83341 18.6667 7.83341V10.8334ZM8.00002 14.5001C7.17159 14.5001 6.50002 15.1717 6.50002 16.0001C6.50002 16.8285 7.17159 17.5001 8.00002 17.5001V14.5001ZM18.6667 17.5001C19.4951 17.5001 20.1667 16.8285 20.1667 16.0001C20.1667 15.1717 19.4951 14.5001 18.6667 14.5001V17.5001ZM8.00002 21.1667C7.17159 21.1667 6.50002 21.8383 6.50002 22.6667C6.50002 23.4952 7.17159 24.1667 8.00002 24.1667V21.1667ZM13.3334 24.1667C14.1618 24.1667 14.8334 23.4952 14.8334 22.6667C14.8334 21.8383 14.1618 21.1667 13.3334 21.1667V24.1667ZM6.66669 4.16675H20V1.16675H6.66669V4.16675ZM26.6667 27.8334H6.66669V30.8334H26.6667V27.8334ZM4.16669 25.3334V6.66675H1.16669V25.3334H4.16669ZM24 12.1667H26.6667V9.16675H24V12.1667ZM27.8334 13.3334V26.6667H30.8334V13.3334H27.8334ZM25.5 26.6667V10.6667H22.5V26.6667H25.5ZM26.6667 27.8334C26.0224 27.8334 25.5 27.3111 25.5 26.6667H22.5C22.5 28.9679 24.3655 30.8334 26.6667 30.8334V27.8334ZM27.8334 26.6667C27.8334 27.3111 27.311 27.8334 26.6667 27.8334V30.8334C28.9679 30.8334 30.8334 28.9679 30.8334 26.6667H27.8334ZM22.5 6.66675V10.6667H25.5V6.66675H22.5ZM6.66669 27.8334C5.28598 27.8334 4.16669 26.7141 4.16669 25.3334H1.16669C1.16669 28.371 3.62912 30.8334 6.66669 30.8334V27.8334ZM20 4.16675C21.3807 4.16675 22.5 5.28604 22.5 6.66675H25.5C25.5 3.62918 23.0376 1.16675 20 1.16675V4.16675ZM26.6667 12.1667C27.311 12.1667 27.8334 12.6891 27.8334 13.3334H30.8334C30.8334 11.0322 28.9679 9.16675 26.6667 9.16675V12.1667ZM6.66669 1.16675C3.62912 1.16675 1.16669 3.62918 1.16669 6.66675H4.16669C4.16669 5.28604 5.28597 4.16675 6.66669 4.16675V1.16675ZM8.00002 10.8334H18.6667V7.83341H8.00002V10.8334ZM8.00002 17.5001H18.6667V14.5001H8.00002V17.5001ZM8.00002 24.1667H13.3334V21.1667H8.00002V24.1667Z" fill="#949BA9"/>
</svg>
