<svg width="14" height="14" viewBox="0 0 14 14" fill="none" xmlns="http://www.w3.org/2000/svg">
<path d="M4.66669 5.08333C4.25247 5.08333 3.91669 5.41912 3.91669 5.83333C3.91669 6.24755 4.25247 6.58333 4.66669 6.58333V5.08333ZM9.33335 6.58333C9.74757 6.58333 10.0834 6.24755 10.0834 5.83333C10.0834 5.41912 9.74757 5.08333 9.33335 5.08333V6.58333ZM4.66669 7.41667C4.25247 7.41667 3.91669 7.75245 3.91669 8.16667C3.91669 8.58088 4.25247 8.91667 4.66669 8.91667V7.41667ZM7.00002 8.91667C7.41423 8.91667 7.75002 8.58088 7.75002 8.16667C7.75002 7.75245 7.41423 7.41667 7.00002 7.41667V8.91667ZM6.41669 2.5H7.58335V1H6.41669V2.5ZM1.91669 9.91667V7H0.416687V9.91667H1.91669ZM7.58335 11.5H3.50002V13H7.58335V11.5ZM0.416687 9.91667C0.416687 11.6195 1.79714 13 3.50002 13V11.5C2.62557 11.5 1.91669 10.7911 1.91669 9.91667H0.416687ZM12.0834 7C12.0834 9.48528 10.0686 11.5 7.58335 11.5V13C10.8971 13 13.5834 10.3137 13.5834 7H12.0834ZM7.58335 2.5C10.0686 2.5 12.0834 4.51472 12.0834 7H13.5834C13.5834 3.68629 10.8971 1 7.58335 1V2.5ZM6.41669 1C3.10298 1 0.416687 3.68629 0.416687 7H1.91669C1.91669 4.51472 3.93141 2.5 6.41669 2.5V1ZM4.66669 6.58333H9.33335V5.08333H4.66669V6.58333ZM4.66669 8.91667H7.00002V7.41667H4.66669V8.91667Z" fill="#20212C"/>
</svg>
