<svg width="18" height="18" viewBox="0 0 18 18" fill="none" xmlns="http://www.w3.org/2000/svg">
<g clip-path="url(#clip0_127_4816)">
<path d="M1.5 4.5V3.75C1.08579 3.75 0.75 4.08579 0.75 4.5H1.5ZM1.5 5.25H13.5V3.75H1.5V5.25ZM15.75 7.5V13.5H17.25V7.5H15.75ZM13.5 15.75H4.5V17.25H13.5V15.75ZM2.25 13.5V4.5H0.75V13.5H2.25ZM4.5 15.75C3.25736 15.75 2.25 14.7426 2.25 13.5H0.75C0.75 15.5711 2.42893 17.25 4.5 17.25V15.75ZM15.75 13.5C15.75 14.7426 14.7426 15.75 13.5 15.75V17.25C15.5711 17.25 17.25 15.5711 17.25 13.5H15.75ZM13.5 5.25C14.7426 5.25 15.75 6.25736 15.75 7.5H17.25C17.25 5.42893 15.5711 3.75 13.5 3.75V5.25Z" fill="#949BA9"/>
<path d="M12 4.5V5.25C12.4142 5.25 12.75 4.91421 12.75 4.5H12ZM1.5 4.5H0.75C0.75 4.91421 1.08579 5.25 1.5 5.25L1.5 4.5ZM4.5 2.25H9V0.75H4.5V2.25ZM12 3.75H1.5V5.25H12V3.75ZM9 2.25C10.2426 2.25 11.25 3.25736 11.25 4.5H12.75C12.75 2.42893 11.0711 0.75 9 0.75V2.25ZM4.5 0.75C2.42893 0.75 0.75 2.42893 0.75 4.5H2.25C2.25 3.25736 3.25736 2.25 4.5 2.25V0.75Z" fill="#949BA9"/>
<path d="M16.5 9L17.25 9C17.25 8.80109 17.171 8.61032 17.0303 8.46967C16.8897 8.32902 16.6989 8.25 16.5 8.25V9ZM16.5 12V12.75C16.9142 12.75 17.25 12.4142 17.25 12H16.5ZM13.5 9V9.75V9ZM13.5 12L13.5 12.75H13.5V12ZM15.75 9L15.75 12L17.25 12L17.25 9L15.75 9ZM16.5 11.25H13.5V12.75H16.5V11.25ZM13.5 9.75L16.5 9.75V8.25L13.5 8.25V9.75ZM12.75 10.5C12.75 10.0858 13.0858 9.75 13.5 9.75V8.25C12.2574 8.25 11.25 9.25736 11.25 10.5L12.75 10.5ZM13.5 11.25C13.0858 11.25 12.75 10.9142 12.75 10.5L11.25 10.5C11.25 11.7426 12.2574 12.75 13.5 12.75L13.5 11.25Z" fill="#949BA9"/>
</g>
<defs>
<clipPath id="clip0_127_4816">
<rect width="18" height="18" fill="white"/>
</clipPath>
</defs>
</svg>
