<svg width="18" height="18" viewBox="0 0 18 18" fill="none" xmlns="http://www.w3.org/2000/svg">
<path d="M2.43944 4.28298C2.16425 4.59256 2.19214 5.06662 2.50173 5.34181C2.81131 5.617 3.28537 5.58911 3.56056 5.27952L2.43944 4.28298ZM4.12889 3.51125L3.56833 3.01298L3.56833 3.01298L4.12889 3.51125ZM6.37111 3.51125L6.93167 3.01298V3.01298L6.37111 3.51125ZM6.37111 14.4887L6.93167 14.987L6.37111 14.4887ZM8.06056 13.717C8.33575 13.4074 8.30786 12.9334 7.99827 12.6582C7.68869 12.383 7.21463 12.4109 6.93944 12.7205L8.06056 13.717ZM4.12889 14.4887L3.56833 14.987L4.12889 14.4887ZM3.56056 12.7205C3.28537 12.4109 2.81131 12.383 2.50173 12.6582C2.19214 12.9334 2.16425 13.4074 2.43944 13.717L3.56056 12.7205ZM3.56056 5.27952L4.68944 4.00953L3.56833 3.01298L2.43944 4.28298L3.56056 5.27952ZM5.81056 4.00953L6.93944 5.27952L8.06056 4.28298L6.93167 3.01298L5.81056 4.00953ZM6.93167 14.987L8.06056 13.717L6.93944 12.7205L5.81056 13.9905L6.93167 14.987ZM4.68944 13.9905L3.56056 12.7205L2.43944 13.717L3.56833 14.987L4.68944 13.9905ZM5.81056 13.9905C5.51221 14.3261 4.98779 14.3261 4.68944 13.9905L3.56833 14.987C4.46336 15.9939 6.03664 15.9939 6.93167 14.987L5.81056 13.9905ZM4.68944 4.00953C4.98779 3.67389 5.51221 3.67389 5.81056 4.00953L6.93167 3.01298C6.03664 2.00607 4.46336 2.00607 3.56833 3.01298L4.68944 4.00953ZM12.75 6.75C11.9216 6.75 11.25 6.07843 11.25 5.25H9.75C9.75 6.90685 11.0931 8.25 12.75 8.25V6.75ZM14.25 5.25C14.25 6.07843 13.5784 6.75 12.75 6.75V8.25C14.4069 8.25 15.75 6.90685 15.75 5.25H14.25ZM12.75 3.75C13.5784 3.75 14.25 4.42157 14.25 5.25H15.75C15.75 3.59315 14.4069 2.25 12.75 2.25V3.75ZM12.75 2.25C11.0931 2.25 9.75 3.59315 9.75 5.25H11.25C11.25 4.42157 11.9216 3.75 12.75 3.75V2.25ZM12.75 14.25C11.9216 14.25 11.25 13.5784 11.25 12.75H9.75C9.75 14.4069 11.0931 15.75 12.75 15.75V14.25ZM14.25 12.75C14.25 13.5784 13.5784 14.25 12.75 14.25V15.75C14.4069 15.75 15.75 14.4069 15.75 12.75H14.25ZM12.75 11.25C13.5784 11.25 14.25 11.9216 14.25 12.75H15.75C15.75 11.0931 14.4069 9.75 12.75 9.75V11.25ZM12.75 9.75C11.0931 9.75 9.75 11.0931 9.75 12.75H11.25C11.25 11.9216 11.9216 11.25 12.75 11.25V9.75ZM4.5 3V15H6V3H4.5Z" fill="#949BA9"/>
</svg>
