<svg width="14" height="14" viewBox="0 0 14 14" fill="none" xmlns="http://www.w3.org/2000/svg">
<path d="M12.3501 5C12.3501 5.35898 12.6411 5.65 13.0001 5.64999C13.3591 5.64999 13.6501 5.35898 13.6501 4.99999L12.3501 5ZM13.0001 1L13.6501 0.999999C13.6501 0.641014 13.3591 0.35 13.0001 0.35V1ZM9.00008 0.350001C8.64109 0.350001 8.35008 0.641016 8.35008 1C8.35008 1.35899 8.64109 1.65 9.00008 1.65L9.00008 0.350001ZM5.20713 7.87371C4.95329 8.12755 4.95329 8.53911 5.20713 8.79295C5.46097 9.04679 5.87253 9.04679 6.12637 8.79295L5.20713 7.87371ZM13.6501 4.99999L13.6501 0.999999L12.3501 1L12.3501 5L13.6501 4.99999ZM13.0001 0.35L9.00008 0.350001L9.00008 1.65L13.0001 1.65L13.0001 0.35ZM12.5405 0.540381L5.20713 7.87371L6.12637 8.79295L13.4597 1.45962L12.5405 0.540381Z" fill="#949BA9"/>
<path d="M7 2.33337H3.66667C2.19391 2.33337 1 3.52728 1 5.00004V10.3334C1 11.8061 2.19391 13 3.66667 13H9C10.4728 13 11.6667 11.8061 11.6667 10.3334V7.00004" stroke="#949BA9" stroke-width="1.3" stroke-linecap="round" stroke-linejoin="round"/>
</svg>
