<svg width="22" height="22" viewBox="0 0 22 22" fill="none" xmlns="http://www.w3.org/2000/svg">
<path d="M18.2071 16.7929C17.8166 16.4024 17.1834 16.4024 16.7929 16.7929C16.4024 17.1834 16.4024 17.8166 16.7929 18.2071L18.2071 16.7929ZM20.2929 21.7071C20.6834 22.0976 21.3166 22.0976 21.7071 21.7071C22.0976 21.3166 22.0976 20.6834 21.7071 20.2929L20.2929 21.7071ZM21 10.5C21 4.70101 16.299 0 10.5 0V2C15.1944 2 19 5.80558 19 10.5H21ZM10.5 0C4.70101 0 0 4.70101 0 10.5H2C2 5.80558 5.80558 2 10.5 2V0ZM0 10.5C0 16.299 4.70101 21 10.5 21V19C5.80558 19 2 15.1944 2 10.5H0ZM10.5 21C16.299 21 21 16.299 21 10.5H19C19 15.1944 15.1944 19 10.5 19V21ZM16.7929 18.2071L20.2929 21.7071L21.7071 20.2929L18.2071 16.7929L16.7929 18.2071Z" fill="#20212C"/>
</svg>
