<svg width="16" height="17" viewBox="0 0 16 17" fill="none" xmlns="http://www.w3.org/2000/svg">
<g clip-path="url(#clip0_541_870)">
<path d="M13.9132 9.70511C13.7866 9.79236 13.6388 9.84386 13.4853 9.85416C13.3319 9.86446 13.1785 9.8332 13.0413 9.76365C12.7193 9.58174 12.5457 9.15518 12.5457 8.5739V6.7924C12.5457 5.9372 12.207 5.32873 11.6404 5.16355C10.6827 4.88336 9.96759 6.05639 9.69158 6.49758L7.99791 9.23882V5.89329C7.97909 5.12173 7.72818 4.65963 7.25353 4.52163C6.93989 4.42962 6.46942 4.46726 6.0115 5.16564L2.22478 11.2441C1.72094 10.2801 1.45969 9.20784 1.46367 8.12016C1.46367 4.45681 4.39101 1.47719 7.99791 1.47719C11.6048 1.47719 14.5426 4.45681 14.5426 8.12016V8.13898C14.5426 8.13898 14.5426 8.15152 14.5426 8.1578C14.5782 8.86663 14.3481 9.43119 13.9153 9.70511H13.9132ZM16.0042 8.12225V8.08671C15.9749 3.62251 12.3952 0.000976562 7.99791 0.000976562C3.60063 0.000976562 0 3.64342 0 8.12016C0 12.5969 3.58808 16.2414 7.99791 16.2414C10.0204 16.2413 11.966 15.4661 13.4344 14.0752C13.5769 13.9409 13.6608 13.7559 13.6678 13.5602C13.6749 13.3645 13.6045 13.1739 13.472 13.0297C13.4086 12.9596 13.332 12.9027 13.2465 12.8623C13.161 12.8219 13.0684 12.7988 12.9739 12.7943C12.8795 12.7898 12.7851 12.8041 12.6962 12.8362C12.6073 12.8684 12.5256 12.9178 12.4558 12.9816C11.8237 13.5813 11.0768 14.047 10.2602 14.3509C9.4435 14.6547 8.57387 14.7904 7.70347 14.7498C6.83306 14.7092 5.97985 14.4931 5.19504 14.1145C4.41023 13.7359 3.71001 13.2027 3.13644 12.5467L6.54469 7.06841V9.59638C6.54469 10.8112 7.01516 11.2043 7.41035 11.3193C7.80554 11.4343 8.40983 11.3549 9.04339 10.3261L10.9252 7.2796C10.9838 7.18132 11.0403 7.09768 11.0904 7.0245V8.5739C11.0904 9.70929 11.5463 10.6168 12.345 11.0642C12.7082 11.2603 13.1175 11.355 13.5299 11.3385C13.9423 11.3219 14.3427 11.1947 14.689 10.9701C15.5672 10.3993 16.046 9.36637 15.9958 8.12225H16.0042Z" fill="#949BA9"/>
</g>
<defs>
<clipPath id="clip0_541_870">
<rect width="16" height="16.2405" fill="white" transform="translate(0 0.000976562)"/>
</clipPath>
</defs>
</svg>
