<svg width="24" height="24" viewBox="0 0 24 24" fill="none" xmlns="http://www.w3.org/2000/svg">
<path d="M16.6768 10.489C16.9469 10.9063 17.5041 11.0256 17.9214 10.7556C18.3387 10.4856 18.4581 9.92835 18.188 9.51104L16.6768 10.489ZM5.81191 9.51105C5.54187 9.92835 5.66125 10.4856 6.07855 10.7556C6.49585 11.0256 7.05306 10.9063 7.3231 10.489L5.81191 9.51105ZM15.7717 12.463C16.0275 12.0368 15.8893 11.484 15.463 11.2283C15.0368 10.9725 14.484 11.1107 14.2283 11.537L15.7717 12.463ZM6 20.9H18V19.1H6V20.9ZM22.9 16V14H21.1V16H22.9ZM1.1 14V16H2.9V14H1.1ZM12 3.1C5.9801 3.1 1.1 7.9801 1.1 14H2.9C2.9 8.97421 6.97421 4.9 12 4.9V3.1ZM22.9 14C22.9 7.9801 18.0199 3.1 12 3.1V4.9C17.0258 4.9 21.1 8.97421 21.1 14H22.9ZM18 20.9C20.7062 20.9 22.9 18.7062 22.9 16H21.1C21.1 17.7121 19.7121 19.1 18 19.1V20.9ZM6 19.1C4.28792 19.1 2.9 17.7121 2.9 16H1.1C1.1 18.7062 3.2938 20.9 6 20.9V19.1ZM9.9 20C9.9 18.8402 10.8402 17.9 12 17.9V16.1C9.84609 16.1 8.1 17.8461 8.1 20H9.9ZM12 17.9C13.1598 17.9 14.1 18.8402 14.1 20H15.9C15.9 17.8461 14.1539 16.1 12 16.1V17.9ZM12 7.9C14.3768 7.9 15.752 9.05978 16.6768 10.489L18.188 9.51104C17.0209 7.70742 15.1355 6.1 12 6.1V7.9ZM7.3231 10.489C8.24794 9.05978 9.62314 7.9 12 7.9V6.1C8.86449 6.1 6.97906 7.70742 5.81191 9.51105L7.3231 10.489ZM12.7717 17.463L15.7717 12.463L14.2283 11.537L11.2283 16.537L12.7717 17.463Z" fill="#949BA9"/>
</svg>
