<svg width="27" height="35" viewBox="0 0 27 35" fill="none" xmlns="http://www.w3.org/2000/svg">
<path d="M6.94022 0.179527C2.11224 7.32377 8.23603 17.8313 8.23603 17.8313C8.23603 17.8313 4.80176 18.2873 2.64061 13.8563C0.112988 17.6189 -0.354922 22.7095 1.77524 27.077C4.95813 33.6029 12.8286 36.3129 19.3545 33.13C25.8804 29.9471 28.5905 22.0766 25.4076 15.5507C20.725 5.95017 10.9024 8.30312 6.94022 0.179527L6.94022 0.179527ZM18.4067 28.5523C16.321 30.3024 13.2114 30.0304 11.4611 27.9447C9.71103 25.859 9.98296 22.7492 12.0688 20.9991C17.1042 16.7738 16.2504 13.1998 16.2504 13.1998C16.2504 13.1998 24.701 23.2707 18.4067 28.5523Z" fill="url(#paint0_linear_13_2508)"/>
<defs>
<linearGradient id="paint0_linear_13_2508" x1="3.98621" y1="1.62029" x2="19.3545" y2="33.13" gradientUnits="userSpaceOnUse">
<stop stop-color="#FF1A1A"/>
<stop offset="1" stop-color="#FFA552"/>
</linearGradient>
</defs>
</svg>
