<svg width="16" height="14" viewBox="0 0 16 14" fill="none" xmlns="http://www.w3.org/2000/svg">
<path d="M8.51001 2.13486L7.99998 2.68282L7.48995 2.13486C6.08153 0.621714 3.79804 0.621714 2.38962 2.13486C0.98121 3.648 0.981209 6.10129 2.38962 7.61444L6.97991 12.5461C7.54328 13.1513 8.45668 13.1513 9.02004 12.5461L13.6103 7.61444C15.0188 6.10129 15.0187 3.648 13.6103 2.13486C12.2019 0.621714 9.91842 0.621714 8.51001 2.13486Z" fill="white"/>
<path d="M7.99998 2.68282L7.45099 3.19381C7.59287 3.34624 7.79174 3.43282 7.99998 3.43282C8.20822 3.43282 8.40709 3.34624 8.54897 3.19381L7.99998 2.68282ZM8.51001 2.13486L7.96102 1.62387V1.62387L8.51001 2.13486ZM7.48995 2.13486L8.03894 1.62387V1.62387L7.48995 2.13486ZM2.38962 7.61444L2.93861 7.10345L2.38962 7.61444ZM6.97991 12.5461L7.5289 12.0351L6.97991 12.5461ZM9.02004 12.5461L8.47106 12.0351L9.02004 12.5461ZM13.6103 7.61444L13.0613 7.10345L13.6103 7.61444ZM13.6103 2.13486L14.1593 1.62387V1.62387L13.6103 2.13486ZM2.38962 2.13486L1.84064 1.62387L2.38962 2.13486ZM8.54897 3.19381L9.059 2.64585L7.96102 1.62387L7.45099 2.17183L8.54897 3.19381ZM6.94096 2.64585L7.45099 3.19381L8.54897 2.17183L8.03894 1.62387L6.94096 2.64585ZM1.84064 8.12543L6.43093 13.057L7.5289 12.0351L2.93861 7.10345L1.84064 8.12543ZM9.56903 13.057L14.1593 8.12543L13.0613 7.10345L8.47106 12.0351L9.56903 13.057ZM13.0613 2.64585C14.2017 3.87105 14.2017 5.87825 13.0613 7.10345L14.1593 8.12543C15.8358 6.32434 15.8358 3.42496 14.1593 1.62387L13.0613 2.64585ZM14.1593 1.62387C12.4543 -0.207955 9.66606 -0.207956 7.96102 1.62387L9.059 2.64585C10.1708 1.45138 11.9496 1.45138 13.0613 2.64585L14.1593 1.62387ZM2.93861 2.64585C4.05041 1.45138 5.82917 1.45138 6.94096 2.64585L8.03894 1.62387C6.3339 -0.207955 3.54567 -0.207956 1.84064 1.62387L2.93861 2.64585ZM6.43093 13.057C7.29091 13.981 8.70904 13.981 9.56903 13.057L8.47106 12.0351C8.20431 12.3216 7.79565 12.3216 7.5289 12.0351L6.43093 13.057ZM1.84064 1.62387C0.164206 3.42495 0.164205 6.32434 1.84064 8.12543L2.93861 7.10345C1.79821 5.87825 1.79821 3.87105 2.93861 2.64585L1.84064 1.62387Z" fill="white"/>
</svg>
