<svg width="3" height="9" viewBox="0 0 3 9" fill="none" xmlns="http://www.w3.org/2000/svg">
<path d="M1.722 2.939C1.50267 2.939 1.31367 2.89467 1.155 2.806C0.996333 2.71267 0.872667 2.589 0.784 2.435C0.7 2.27633 0.658 2.09433 0.658 1.889C0.658 1.581 0.753667 1.33367 0.945 1.147C1.141 0.960333 1.40233 0.867 1.729 0.867C1.94833 0.867 2.13733 0.911333 2.296 1C2.45467 1.084 2.576 1.203 2.66 1.357C2.744 1.511 2.786 1.68833 2.786 1.889C2.786 2.19233 2.69267 2.44433 2.506 2.645C2.31933 2.841 2.058 2.939 1.722 2.939ZM1.722 8.168C1.50267 8.168 1.31367 8.12133 1.155 8.028C0.996333 7.93933 0.872667 7.818 0.784 7.664C0.7 7.50533 0.658 7.32333 0.658 7.118C0.658 6.81 0.753667 6.56267 0.945 6.376C1.141 6.18933 1.40233 6.096 1.729 6.096C1.94833 6.096 2.13733 6.14033 2.296 6.229C2.45467 6.313 2.576 6.432 2.66 6.586C2.744 6.74 2.786 6.91733 2.786 7.118C2.786 7.42133 2.69267 7.67333 2.506 7.874C2.31933 8.07 2.058 8.168 1.722 8.168Z" fill="#20212C"/>
</svg>
