<svg width="1097" height="225" viewBox="0 0 1097 225" fill="none" xmlns="http://www.w3.org/2000/svg">
<path fill-rule="evenodd" clip-rule="evenodd" d="M923.288 174.346C936.622 174.346 947.288 185.133 947.288 198.345C947.288 211.678 936.501 222.345 923.288 222.345C910.076 222.466 899.288 211.678 899.288 198.345C899.288 185.133 910.076 174.346 923.288 174.346Z" fill="url(#paint0_linear_770_10124)" stroke="white" stroke-width="4"/>
<circle cx="923.788" cy="197.846" r="20.5" fill="white"/>
<path d="M928.67 193.718C928.374 192.588 927.674 191.861 926.517 191.538C925.548 191.269 924.553 191.162 923.557 191.108C922.427 191.135 921.27 191.216 920.167 191.538C919.01 191.861 918.311 192.588 918.015 193.718C917.853 194.337 917.8 194.982 917.773 195.601C917.719 196.193 917.719 196.274 918.122 196.274H928.293C928.992 196.274 928.992 196.274 928.912 195.574C928.885 194.982 928.804 194.337 928.67 193.718Z" fill="#496DDB"/>
<path d="M928.481 200.417H918.338C917.638 200.417 917.638 200.417 917.719 201.117C917.746 201.736 917.8 202.382 917.961 203C918.257 204.13 918.957 204.857 920.114 205.18C921.082 205.449 922.078 205.556 923.073 205.61C924.203 205.583 925.36 205.503 926.463 205.18C927.62 204.857 928.32 204.13 928.616 203C928.777 202.382 928.831 201.736 928.858 201.117C928.912 200.525 928.912 200.444 928.481 200.417Z" fill="#496DDB"/>
<path d="M923.288 174.346C910.051 174.346 899.288 185.108 899.288 198.346C899.288 211.583 910.051 222.346 923.288 222.346C936.553 222.346 947.288 211.583 947.288 198.346C947.288 185.108 936.553 174.346 923.288 174.346ZM933.405 192.938C933.513 193.637 933.593 194.337 933.674 195.063V196.301H937.387C937.683 196.301 937.952 196.301 938.221 196.355C938.867 196.462 939.27 196.839 939.297 197.458V199.261C939.27 199.879 938.867 200.256 938.221 200.364C937.952 200.417 937.683 200.417 937.387 200.417H933.62V201.628C933.54 202.355 933.459 203.054 933.351 203.754C933.244 204.453 933.055 205.072 932.813 205.61H937.575C938.14 205.61 938.679 205.664 939.055 206.202C939.62 207.09 939.324 208.274 938.436 208.839C938.329 208.92 938.194 209 938.06 209.027C937.064 209.35 936.042 209.404 934.992 209.458C930.714 209.539 926.329 209.565 923.369 209.565C919.871 209.565 915.19 209.512 911.638 209.431C910.589 209.404 909.566 209.35 908.598 209C908.436 208.974 908.329 208.92 908.221 208.812C907.333 208.247 907.037 207.09 907.602 206.175C907.952 205.637 908.49 205.583 909.055 205.583H913.764C913.548 205.045 913.36 204.426 913.253 203.754C913.145 203.054 913.064 202.355 912.983 201.628V200.391H909.217C908.921 200.391 908.652 200.391 908.383 200.337C907.737 200.229 907.333 199.852 907.306 199.234V197.431C907.333 196.812 907.737 196.435 908.383 196.328C908.652 196.274 908.921 196.274 909.217 196.274H912.983V195.063C913.064 194.337 913.145 193.637 913.253 192.938C913.36 192.238 913.548 191.619 913.791 191.081H909.028C908.463 191.081 907.925 191.027 907.548 190.489C906.983 189.601 907.279 188.417 908.167 187.852C908.275 187.772 908.409 187.691 908.544 187.664C909.54 187.341 910.562 187.287 911.584 187.234C915.862 187.153 920.248 187.126 923.208 187.126C926.705 187.126 931.414 187.18 934.939 187.261C935.988 187.287 937.01 187.341 937.979 187.691C938.14 187.718 938.248 187.772 938.356 187.879C939.244 188.444 939.54 189.601 938.974 190.516C938.625 191.054 938.087 191.108 937.522 191.108H932.813C933.109 191.646 933.27 192.238 933.405 192.938Z" fill="#496DDB"/>
<path d="M160.273 222.346C173.532 222.346 184.273 211.605 184.273 198.346C184.273 185.086 173.532 174.346 160.273 174.346C147.013 174.346 136.288 185.086 136.288 198.346C136.288 211.605 147.029 222.346 160.273 222.346Z" fill="#FF473E"/>
<g clip-path="url(#clip0_770_10124)">
<path d="M170.673 207.107C169.907 207.107 169.256 207.64 169.093 208.381L162.994 208.091C163.017 207.976 163.029 207.86 163.029 207.744C163.029 207.536 162.994 207.327 162.936 207.119L165.155 205.845C165.701 206.516 166.688 206.655 167.397 206.146C168.106 205.636 168.292 204.663 167.815 203.934C167.339 203.204 166.375 202.972 165.619 203.401C164.864 203.829 164.574 204.779 164.969 205.555L162.819 206.794C162.308 205.717 161.042 205.231 159.938 205.682C158.834 206.134 158.277 207.373 158.672 208.497L154.675 209.458C154.652 208.914 154.419 208.404 154.036 208.01L154.756 207.014C155.57 207.292 156.464 206.887 156.79 206.088C157.115 205.289 156.755 204.374 155.976 204.015C155.198 203.644 154.257 203.957 153.85 204.71C153.444 205.462 153.699 206.412 154.431 206.864L153.769 207.779C153.304 207.431 152.712 207.281 152.131 207.35L151.445 203.447C152.305 203.262 152.967 202.59 153.153 201.745C153.339 200.888 153.014 200.007 152.317 199.486C151.619 198.954 150.678 198.884 149.912 199.289L148.18 195.919C148.552 195.734 148.854 195.444 149.075 195.097L150.516 195.479C150.504 195.56 150.492 195.63 150.492 195.711C150.492 196.545 151.131 197.251 151.968 197.332C152.805 197.413 153.571 196.846 153.722 196.012C153.873 195.178 153.374 194.379 152.561 194.159C151.747 193.927 150.899 194.356 150.597 195.143L149.238 194.784C149.424 194.344 149.458 193.858 149.342 193.394L153.351 191.553C154.094 192.479 155.442 192.676 156.418 191.981C157.394 191.286 157.649 189.955 156.999 188.959L159.555 186.469C159.868 186.665 160.229 186.793 160.589 186.816V187.916C159.741 188.009 159.102 188.75 159.148 189.607C159.195 190.464 159.903 191.136 160.763 191.136C161.623 191.136 162.331 190.464 162.378 189.607C162.424 188.75 161.797 188.009 160.937 187.916V186.816C161.263 186.793 161.565 186.7 161.844 186.55L164.644 189.735C163.993 190.592 164.039 191.785 164.748 192.584C165.468 193.383 166.653 193.568 167.583 193.012C168.512 192.456 168.907 191.333 168.547 190.325L169.419 189.839C169.976 190.487 170.941 190.603 171.626 190.082C172.312 189.572 172.474 188.611 171.998 187.905C171.522 187.198 170.569 186.978 169.837 187.418C169.105 187.858 168.838 188.785 169.233 189.549L168.408 190.013C168.071 189.399 167.467 188.982 166.781 188.878C166.096 188.773 165.387 188.993 164.888 189.48L162.146 186.364C162.413 186.156 162.634 185.878 162.785 185.577L165.19 185.971C165.375 186.804 166.189 187.349 167.025 187.198C167.873 187.059 168.454 186.283 168.361 185.438C168.268 184.592 167.525 183.955 166.677 184.002C165.817 184.048 165.155 184.743 165.143 185.6L162.912 185.229C163.226 184.164 162.715 183.029 161.704 182.554C160.693 182.079 159.497 182.427 158.881 183.353C158.265 184.28 158.428 185.519 159.264 186.26L156.778 188.681C156.395 188.241 155.849 187.963 155.268 187.916V186.225C156.116 186.133 156.755 185.391 156.708 184.534C156.662 183.677 155.965 183.017 155.105 183.017C154.245 183.017 153.536 183.689 153.49 184.546C153.444 185.403 154.071 186.144 154.931 186.237V187.916C154.164 187.974 153.478 188.426 153.118 189.098C152.758 189.781 152.77 190.592 153.153 191.263L149.249 193.047C149.11 192.711 148.889 192.421 148.61 192.19L150.132 189.457C150.272 189.491 150.4 189.515 150.539 189.515C151.364 189.515 152.049 188.901 152.154 188.09C152.258 187.279 151.724 186.526 150.934 186.33C150.132 186.133 149.319 186.561 149.029 187.326C148.738 188.09 149.075 188.947 149.795 189.329L148.32 191.993C147.425 191.46 146.298 191.611 145.566 192.352C144.846 193.093 144.718 194.217 145.264 195.097C145.81 195.977 146.879 196.371 147.867 196.058L149.621 199.475C149.18 199.799 148.866 200.285 148.761 200.818L147.483 200.448C147.518 200.32 147.53 200.181 147.53 200.054C147.53 199.231 146.914 198.548 146.101 198.456C145.288 198.363 144.532 198.884 144.335 199.683C144.137 200.482 144.579 201.293 145.357 201.571C146.124 201.849 146.984 201.513 147.356 200.783L148.715 201.177C148.715 201.212 148.715 201.247 148.715 201.281C148.715 202.046 149.098 202.752 149.749 203.158L148.878 204.293C148.239 203.725 147.263 203.76 146.658 204.374C146.054 204.988 146.031 205.949 146.612 206.586C147.193 207.223 148.157 207.292 148.831 206.748C149.505 206.204 149.621 205.242 149.122 204.547L150.063 203.32C150.341 203.447 150.655 203.505 150.969 203.505C151.015 203.505 151.062 203.505 151.108 203.494L151.805 207.42C150.876 207.698 150.225 208.543 150.19 209.504C150.167 210.477 150.771 211.346 151.689 211.67C152.607 211.994 153.629 211.693 154.222 210.917L157.475 212.365C157.452 212.481 157.429 212.608 157.429 212.724C157.429 213.546 158.044 214.241 158.869 214.334C159.694 214.427 160.449 213.894 160.635 213.095C160.821 212.296 160.368 211.485 159.59 211.207C158.811 210.929 157.951 211.288 157.591 212.029L154.419 210.616C154.559 210.361 154.652 210.083 154.675 209.794L158.811 208.786C159.125 209.365 159.683 209.771 160.333 209.91C160.984 210.037 161.658 209.875 162.169 209.47L163.714 210.802C163.354 211.589 163.668 212.516 164.434 212.909C165.201 213.315 166.142 213.048 166.584 212.307C167.025 211.566 166.816 210.616 166.107 210.13C165.387 209.643 164.423 209.806 163.9 210.489L162.424 209.226C162.645 208.995 162.808 208.705 162.912 208.404L169.058 208.705C169.07 209.597 169.79 210.304 170.685 210.304C171.58 210.304 172.3 209.574 172.288 208.694C172.288 207.825 171.568 207.107 170.673 207.107Z" fill="white"/>
</g>
<path fill-rule="evenodd" clip-rule="evenodd" d="M972.288 4.3457C985.622 4.3457 996.288 15.1334 996.288 28.3452C996.288 41.6782 985.501 52.3447 972.288 52.3447C959.076 52.4659 948.288 41.6782 948.288 28.3452C948.288 15.1334 959.076 4.3457 972.288 4.3457Z" fill="url(#paint1_linear_770_10124)" stroke="white" stroke-width="4"/>
<g clip-path="url(#clip1_770_10124)">
<path d="M972.288 52.3457C985.543 52.3457 996.288 41.6005 996.288 28.3457C996.288 15.0909 985.543 4.3457 972.288 4.3457C959.034 4.3457 948.288 15.0909 948.288 28.3457C948.288 41.6005 959.034 52.3457 972.288 52.3457Z" fill="#6747ED"/>
<path fill-rule="evenodd" clip-rule="evenodd" d="M971.938 31.4458C968.388 31.4458 965.538 28.5958 965.538 25.0458C965.538 21.4958 968.388 18.6458 971.938 18.6458C975.488 18.6458 978.338 21.4958 978.338 25.0458C978.338 28.5958 975.488 31.4458 971.938 31.4458ZM971.938 15.4458C977.238 15.4458 981.538 19.7458 981.538 25.0458C981.538 30.3458 977.238 34.6458 971.938 34.6458C966.638 34.6458 962.338 30.3458 962.338 25.0458C962.338 19.7458 966.638 15.4458 971.938 15.4458ZM981.088 35.1458C981.738 35.7958 981.738 36.7958 981.088 37.3958L974.688 43.7958C974.038 44.4458 973.038 44.4458 972.438 43.7958C971.788 43.1458 971.788 42.1458 972.438 41.5458L978.838 35.1458C979.438 34.4958 980.488 34.4958 981.088 35.1458ZM984.788 17.0458C984.788 17.9458 984.088 18.6458 983.188 18.6458C982.288 18.6458 981.588 17.9458 981.588 17.0458C981.588 16.1458 982.288 15.4458 983.188 15.4458C984.038 15.4458 984.788 16.1458 984.788 17.0458Z" fill="white"/>
</g>
<circle cx="112.288" cy="28.3457" r="26" fill="#FD2E53" stroke="white" stroke-width="4"/>
<circle cx="112.288" cy="28.3457" r="24" fill="#FD2E53"/>
<g clip-path="url(#clip2_770_10124)">
<path d="M127.091 12.5852H97.454V39.5393H127.091V12.5852Z" fill="white"/>
<path fill-rule="evenodd" clip-rule="evenodd" d="M136.272 28.3617C136.272 41.6079 125.535 52.3457 112.288 52.3457C99.0424 52.3457 88.3044 41.6079 88.3044 28.3617C88.3044 15.1157 99.0424 4.37769 112.288 4.37769C125.535 4.37769 136.272 15.1157 136.272 28.3617ZM105.492 37.9061H100.837C99.8593 37.9061 99.3762 37.9061 99.0816 37.7177C98.7634 37.5114 98.569 37.1697 98.5454 36.7925C98.5277 36.4451 98.7693 36.0207 99.2525 35.1723L110.745 14.9145C111.234 14.0543 111.482 13.6242 111.794 13.4651C112.13 13.2943 112.531 13.2943 112.866 13.4651C113.179 13.6242 113.426 14.0543 113.915 14.9145L116.278 19.0389L116.29 19.0599C116.818 19.9828 117.086 20.4508 117.203 20.942C117.333 21.4781 117.333 22.0438 117.203 22.5799C117.085 23.0749 116.82 23.5462 116.284 24.483L110.247 35.1546L110.231 35.1819C109.7 36.1124 109.43 36.584 109.057 36.9398C108.65 37.3287 108.161 37.6114 107.625 37.7707C107.136 37.9061 106.588 37.9061 105.492 37.9061ZM117.246 37.9061H123.916C124.9 37.9061 125.395 37.9062 125.69 37.712C126.008 37.5057 126.208 37.1579 126.226 36.781C126.243 36.4448 126.007 36.0369 125.544 35.2378C125.528 35.2106 125.512 35.1829 125.495 35.1547L122.154 29.4396L122.116 29.3752C121.647 28.5813 121.41 28.1804 121.106 28.0255C120.77 27.8546 120.375 27.8546 120.039 28.0255C119.733 28.1846 119.485 28.6029 118.996 29.4454L115.667 35.1606L115.656 35.1803C115.169 36.0215 114.925 36.4419 114.943 36.7868C114.966 37.164 115.161 37.5114 115.479 37.7177C115.768 37.9061 116.263 37.9061 117.246 37.9061Z" fill="#E84142"/>
</g>
<circle cx="26.2884" cy="150.346" r="24" fill="url(#paint2_linear_770_10124)" stroke="white" stroke-width="4"/>
<circle cx="26.2884" cy="150.346" r="24" fill="#2D2D2D"/>
<g clip-path="url(#clip3_770_10124)">
<path d="M14.2884 135.046H38.2884C40.0884 135.046 41.5884 136.546 41.5884 138.346V162.346C41.5884 164.146 40.0884 165.646 38.2884 165.646H14.2884C12.4884 165.646 10.9884 164.146 10.9884 162.346V138.346C10.9884 136.546 12.4884 135.046 14.2884 135.046Z" fill="#2D2D2D"/>
<path d="M26.2884 162.346C26.7316 162.346 27.027 162.196 27.3225 162.046C27.6179 161.746 27.7657 161.446 27.7657 160.996L28.0611 159.196C26.8793 159.496 25.6975 159.496 24.5157 159.196L24.8111 160.996C24.8111 161.446 24.9588 161.746 25.2543 162.046C25.5498 162.196 25.8452 162.346 26.2884 162.346ZM36.4816 162.046H39.2884V145.696C39.2884 143.446 38.2543 141.946 36.4816 141.346V162.046ZM13.2884 162.046H16.0952V141.346C14.3225 141.946 13.2884 143.446 13.2884 145.696V162.046ZM28.0611 159.196C29.8338 158.746 31.1634 157.396 31.4588 154.996L33.2316 141.196C31.1634 141.646 30.1293 143.296 29.6861 145.846L28.0611 159.196ZM24.5157 159.196L22.8907 145.846C22.5952 143.296 21.4134 141.646 19.4929 141.196L21.2657 154.996C21.5611 157.396 22.7429 158.746 24.5157 159.196ZM36.4816 141.346V140.146C36.4816 138.946 35.8907 138.346 35.0043 138.346C34.1179 138.346 33.527 138.946 33.3793 139.996L33.2316 141.196C34.2657 141.046 35.4475 141.046 36.4816 141.346ZM16.0952 141.346C16.6861 141.196 17.4248 141.046 18.0157 141.046C18.4588 141.046 18.902 141.046 19.4929 141.196L19.3452 139.996C19.0498 138.796 18.4588 138.346 17.5725 138.346C16.6861 138.346 16.0952 138.946 16.0952 140.146V141.346Z" fill="#2D2D2D" stroke="white" stroke-width="1.3333" stroke-miterlimit="5.3333"/>
</g>
<circle cx="1070.29" cy="150.346" r="24" fill="url(#paint3_linear_770_10124)" stroke="white" stroke-width="4"/>
<path fill-rule="evenodd" clip-rule="evenodd" d="M1070.29 126.346C1083.62 126.346 1094.29 137.133 1094.29 150.345C1094.29 163.678 1083.5 174.345 1070.29 174.345C1057.08 174.466 1046.29 163.678 1046.29 150.345C1046.29 137.133 1057.08 126.346 1070.29 126.346Z" fill="url(#paint4_linear_770_10124)" stroke="white" stroke-width="4"/>
<g clip-path="url(#clip4_770_10124)">
<path d="M1070.29 174.346C1083.54 174.346 1094.29 163.601 1094.29 150.346C1094.29 137.091 1083.54 126.346 1070.29 126.346C1057.03 126.346 1046.29 137.091 1046.29 150.346C1046.29 163.601 1057.03 174.346 1070.29 174.346Z" fill="#17B5CB"/>
<g clip-path="url(#clip5_770_10124)">
<path d="M1082.86 137.346H1086.22L1072.59 152.908C1072.25 153.3 1072.22 153.898 1072.57 154.313L1080.42 163.452H1076.92L1069.67 154.98L1069.3 154.52C1068.95 154.128 1068.98 153.507 1069.32 153.115L1082.86 137.346Z" fill="white"/>
<path d="M1075.28 154.313C1075.05 154.059 1074.98 153.691 1075.05 153.369C1075.12 153.185 1075.24 153 1075.38 152.862L1076.27 151.872L1086.29 163.452H1083.11C1083.11 163.452 1077.24 156.592 1075.28 154.313Z" fill="white"/>
<path d="M1057.79 163.452H1054.29L1065.02 151.044C1065.36 150.652 1065.36 150.054 1065.02 149.662L1054.38 137.346H1057.74L1068.45 149.754C1068.72 150.123 1068.77 150.652 1068.47 150.998C1065.66 154.244 1057.79 163.452 1057.79 163.452Z" fill="white"/>
<path d="M1063.64 137.346H1060.41L1070.33 148.833C1070.33 148.833 1070.36 148.81 1071.46 147.498C1071.76 147.153 1071.83 146.715 1071.49 146.37C1069.41 144.252 1063.64 137.346 1063.64 137.346Z" fill="white"/>
<path d="M1073.3 145.357L1080.19 137.346H1076.92L1073.33 141.536L1072.29 142.756C1071.95 143.147 1071.92 143.746 1072.27 144.16C1072.52 144.459 1073.3 145.357 1073.3 145.357Z" fill="white"/>
<path d="M1067.32 155.441L1060.44 163.452H1063.68L1067.27 159.262L1068.31 158.042C1068.65 157.651 1068.68 157.052 1068.33 156.638C1068.08 156.339 1067.32 155.441 1067.32 155.441Z" fill="white"/>
</g>
</g>
<defs>
<linearGradient id="paint0_linear_770_10124" x1="971.388" y1="198.378" x2="923.321" y2="150.312" gradientUnits="userSpaceOnUse">
<stop stop-color="#4B81EB"/>
<stop offset="1" stop-color="#6752F4"/>
</linearGradient>
<linearGradient id="paint1_linear_770_10124" x1="1020.39" y1="28.378" x2="972.321" y2="-19.6876" gradientUnits="userSpaceOnUse">
<stop stop-color="#4B81EB"/>
<stop offset="1" stop-color="#6752F4"/>
</linearGradient>
<linearGradient id="paint2_linear_770_10124" x1="-7.61871" y1="155.675" x2="30.8998" y2="182.03" gradientUnits="userSpaceOnUse">
<stop stop-color="#FF3B3B"/>
<stop offset="1" stop-color="#FF9914"/>
</linearGradient>
<linearGradient id="paint3_linear_770_10124" x1="1070.29" y1="116.405" x2="1036.35" y2="150.346" gradientUnits="userSpaceOnUse">
<stop stop-color="#FF2D55"/>
<stop offset="1" stop-color="#FFBC5B"/>
</linearGradient>
<linearGradient id="paint4_linear_770_10124" x1="1118.39" y1="150.378" x2="1070.32" y2="102.312" gradientUnits="userSpaceOnUse">
<stop stop-color="#4B81EB"/>
<stop offset="1" stop-color="#6752F4"/>
</linearGradient>
<clipPath id="clip0_770_10124">
<rect width="28" height="32" fill="white" transform="translate(144.288 182.346)"/>
</clipPath>
<clipPath id="clip1_770_10124">
<rect width="48" height="48" fill="white" transform="translate(948.288 4.3457)"/>
</clipPath>
<clipPath id="clip2_770_10124">
<rect width="48" height="48.0319" fill="white" transform="translate(88.2884 4.3457)"/>
</clipPath>
<clipPath id="clip3_770_10124">
<rect width="32" height="32" fill="white" transform="translate(10.2884 134.346)"/>
</clipPath>
<clipPath id="clip4_770_10124">
<rect width="48" height="48" fill="white" transform="translate(1046.29 126.346)"/>
</clipPath>
<clipPath id="clip5_770_10124">
<rect width="32" height="26.0144" fill="white" transform="translate(1054.29 137.346)"/>
</clipPath>
</defs>
</svg>
