<svg width="190" height="33" viewBox="0 0 190 33" fill="none" xmlns="http://www.w3.org/2000/svg">
<path fill-rule="evenodd" clip-rule="evenodd" d="M37.8602 21.6612L39.1847 0.574829L27.3627 15.4027C30.8619 17.4887 34.3613 19.5745 37.8602 21.6612Z" fill="#6671F2"/>
<path fill-rule="evenodd" clip-rule="evenodd" d="M38.6232 29.7816L44.1585 29.299L38.8133 23.7964L38.6232 29.7816Z" fill="#6671F2"/>
<path fill-rule="evenodd" clip-rule="evenodd" d="M8.9441 28.0604L1.60156 33.0095L33.2099 30.2536L8.9441 28.0604Z" fill="#6671F2"/>
<path fill-rule="evenodd" clip-rule="evenodd" d="M21.9887 19.2679L10.3123 27.1383L37.5819 29.603L37.7966 22.8382L26.5977 16.1614L21.9887 19.2679Z" fill="url(#paint0_linear_274_10475)"/>
<path fill-rule="evenodd" clip-rule="evenodd" d="M61.5191 11.9141H54.524C53.6076 11.9141 52.7743 12.2875 52.1703 12.8889C51.5662 13.4902 51.1912 14.3197 51.1912 15.2321V19.0635C51.1912 19.9759 51.5662 20.8055 52.1703 21.4069C52.7743 22.0082 53.6076 22.3816 54.524 22.3816H61.5191V20.2293H54.524C54.3673 20.2293 54.2168 20.1975 54.0792 20.14C53.9364 20.0804 53.8073 19.9931 53.6988 19.8851C53.5904 19.7771 53.5026 19.6485 53.4427 19.5065C53.385 19.3693 53.353 19.2195 53.353 19.0635V15.2321C53.353 15.0761 53.385 14.9263 53.4427 14.7893C53.5026 14.6472 53.5904 14.5186 53.6988 14.4106C53.8073 14.3026 53.9364 14.2153 54.0792 14.1556C54.2168 14.0982 54.3673 14.0663 54.524 14.0663H61.5191V11.9141ZM89.318 14.1548H95.7886C96.0186 14.1548 96.2391 14.2013 96.441 14.2854C96.6509 14.3729 96.8405 14.5007 96.9991 14.6586C97.1578 14.8166 97.2861 15.0053 97.374 15.2142C97.4584 15.4153 97.5052 15.6349 97.5052 15.8638C97.5052 16.0927 97.4584 16.3123 97.374 16.5134C97.2861 16.7224 97.1578 16.9111 96.9991 17.069C96.8405 17.227 96.651 17.3548 96.4411 17.4422C96.2391 17.5262 96.0186 17.5728 95.7886 17.5728H89.318V17.575H89.3184V22.3756H91.4808L91.4802 19.7251H95.7886C96.8551 19.7251 97.8247 19.2906 98.5277 18.5908C99.2306 17.891 99.667 16.9256 99.667 15.8638C99.667 14.8021 99.2306 13.8367 98.5277 13.1369C97.8247 12.4371 96.8551 12.0026 95.7886 12.0026H89.3184V14.1398H89.318V14.1548ZM78.6186 16.5435L77.512 12.0026H75.2545L76.5518 17.1658C76.6684 17.5511 76.8417 17.9041 77.0611 18.2174C77.2862 18.5385 77.5605 18.819 77.8729 19.0502C78.1833 19.2801 78.53 19.4601 78.9015 19.5824C79.2656 19.7021 79.653 19.7664 80.0529 19.7674L80.173 19.7677V22.3756H82.3354V19.767H82.4598C82.8632 19.767 83.2524 19.7035 83.6172 19.5841C83.9902 19.462 84.3383 19.2812 84.6504 19.0502C84.9628 18.819 85.2371 18.5385 85.4622 18.2174C85.6817 17.9041 85.8549 17.5511 85.9715 17.1658L87.2662 12.0026H85.0091L83.9033 16.5496C83.8548 16.7103 83.7839 16.8571 83.6948 16.9863C83.6034 17.119 83.4925 17.2338 83.3668 17.3267C83.2416 17.4194 83.0989 17.4921 82.9435 17.5412C82.7916 17.5892 82.6289 17.6148 82.4598 17.6148H80.0635C79.8933 17.6148 79.7307 17.5893 79.5799 17.5417C79.4244 17.492 79.2817 17.4194 79.1565 17.3267C79.0309 17.2337 78.9199 17.119 78.8285 16.9863C78.7396 16.8571 78.6686 16.7104 78.6201 16.5496L78.6186 16.5435ZM63.6965 14.1548H70.1667C70.3967 14.1548 70.6172 14.2013 70.8192 14.2854C71.0291 14.3729 71.2186 14.5007 71.3773 14.6586C71.5359 14.8166 71.6643 15.0053 71.7521 15.2142C71.8365 15.4153 71.8833 15.6349 71.8833 15.8638C71.8833 16.0927 71.8365 16.3123 71.7521 16.5134C71.6643 16.7224 71.5359 16.9111 71.3773 17.069C71.2186 17.227 71.0292 17.3548 70.8192 17.4422C70.6172 17.5262 70.3967 17.5728 70.1667 17.5728H63.6965C63.6965 19.1737 63.6965 20.7747 63.6965 22.3756H65.8589L65.8583 19.7251H68.099L68.3712 20.2234H68.3628L69.56 22.3756H72.0276L70.5416 19.7109L70.7139 19.6864C71.6585 19.5522 72.4965 19.0756 73.0956 18.3882C73.6864 17.7103 74.0452 16.8268 74.0452 15.8638C74.0452 14.8021 73.6088 13.8367 72.9058 13.1369C72.2029 12.4371 71.2332 12.0026 70.1667 12.0026H63.6965C63.6965 12.7199 63.6965 13.4374 63.6965 14.1548ZM121.415 11.9141H116.681C115.764 11.9141 114.931 12.2875 114.327 12.8889C113.723 13.4902 113.348 14.3197 113.348 15.2321V19.0635C113.348 19.9759 113.723 20.8055 114.327 21.4069C114.931 22.0082 115.764 22.3816 116.681 22.3816H121.415C122.331 22.3816 123.165 22.0082 123.769 21.4069C124.373 20.8055 124.748 19.9759 124.748 19.0635V15.2321C124.748 14.3197 124.373 13.4902 123.769 12.8889C123.165 12.2875 122.331 11.9141 121.415 11.9141ZM116.681 14.0663H121.415C121.572 14.0663 121.722 14.0982 121.86 14.1556C122.003 14.2153 122.132 14.3026 122.24 14.4106C122.349 14.5186 122.436 14.6472 122.496 14.7893C122.554 14.9263 122.586 15.0761 122.586 15.2321V19.0635C122.586 19.2195 122.554 19.3694 122.496 19.5065C122.436 19.6485 122.349 19.7771 122.24 19.8851C122.132 19.9931 122.003 20.0804 121.86 20.14C121.722 20.1975 121.572 20.2293 121.415 20.2293H116.681C116.524 20.2293 116.374 20.1975 116.236 20.14C116.093 20.0804 115.964 19.9931 115.856 19.8851C115.747 19.7771 115.659 19.6485 115.6 19.5065C115.542 19.3693 115.51 19.2195 115.51 19.0635V15.2321C115.51 15.0761 115.542 14.9263 115.6 14.7893C115.659 14.6472 115.747 14.5186 115.856 14.4106C115.964 14.3026 116.093 14.2153 116.236 14.1556C116.374 14.0982 116.524 14.0663 116.681 14.0663ZM111.802 11.9141H101.015V14.0663L105.327 14.0663V22.4127H107.489V14.0663H111.802V11.9141Z" fill="black"/>
<path fill-rule="evenodd" clip-rule="evenodd" d="M137.448 11.9664H129.75C128.958 11.9664 128.237 12.2892 127.715 12.8091C127.193 13.329 126.869 14.0461 126.869 14.835V15.3825C126.869 16.1713 127.193 16.8884 127.715 17.4084C128.237 17.9282 128.958 18.251 129.75 18.251H132.779V18.2438H134.957C135.153 18.2438 135.332 18.3251 135.463 18.456C135.53 18.5218 135.583 18.6008 135.621 18.6885C135.657 18.7735 135.677 18.8653 135.677 18.9601V19.5076C135.677 19.6024 135.657 19.6942 135.621 19.7792C135.583 19.8669 135.53 19.9458 135.463 20.0117C135.397 20.0776 135.318 20.1312 135.23 20.1683C135.145 20.204 135.052 20.2239 134.957 20.2239H127.229V22.3762H134.957C135.749 22.3762 136.47 22.0533 136.992 21.5335C137.514 21.0136 137.838 20.2963 137.838 19.5076V18.9601C137.838 18.1713 137.514 17.4541 136.992 16.9342C136.47 16.4143 135.749 16.0915 134.957 16.0915H130.457V16.0988H129.75C129.555 16.0988 129.375 16.0174 129.244 15.8866C129.177 15.8207 129.124 15.7418 129.086 15.654C129.05 15.5691 129.03 15.4772 129.03 15.3825V14.835C129.03 14.7402 129.05 14.6483 129.086 14.5634C129.124 14.4756 129.177 14.3967 129.244 14.3308C129.31 14.2649 129.389 14.2114 129.477 14.1743C129.562 14.1385 129.655 14.1186 129.75 14.1186H137.448V11.9664ZM186.933 17.5101C187.941 15.6631 188.956 13.8409 189.987 12.0055H187.519L185.987 14.7373H185.995L184.979 16.5991H181.347V11.9648H179.185V22.3755H181.347L181.347 18.7514H185.097L185.901 20.2233H185.893L187.09 22.3755H189.558C188.664 20.7735 187.782 19.1761 186.902 17.5671L186.933 17.5101ZM166.757 14.1547H173.228C173.458 14.1547 173.678 14.2013 173.88 14.2854C174.09 14.3728 174.28 14.5006 174.438 14.6586C174.597 14.8165 174.725 15.0052 174.813 15.2142C174.897 15.4153 174.944 15.6349 174.944 15.8638C174.944 16.0927 174.897 16.3123 174.813 16.5134C174.725 16.7223 174.597 16.911 174.438 17.0689C174.28 17.2269 174.09 17.3547 173.88 17.4421C173.678 17.5261 173.458 17.5727 173.228 17.5727H166.757V17.5749V22.3755H168.92L168.919 19.725H171.16L171.432 20.2233H171.424L172.621 22.3755H175.089L173.602 19.7108L173.775 19.6863C174.72 19.5522 175.557 19.0755 176.157 18.3881C176.747 17.7102 177.106 16.8268 177.106 15.8638C177.106 14.802 176.67 13.8366 175.967 13.1368C175.264 12.437 174.294 12.0025 173.228 12.0025H166.757V14.1397V14.1547ZM148.237 16.1656H142.2V11.98H140.039V22.4127H142.2V18.3179H148.357V22.4127H150.519V11.98H148.357V16.1656H148.237ZM154.933 22.405L156.709 15.1825C156.757 15.0217 156.828 14.875 156.917 14.7458C157.009 14.613 157.12 14.4983 157.245 14.4053C157.37 14.3126 157.513 14.2401 157.669 14.1908C157.819 14.1428 157.982 14.1173 158.152 14.1173H159.1C159.269 14.1173 159.431 14.1428 159.583 14.1908C159.739 14.2399 159.881 14.3126 160.007 14.4053C160.132 14.4983 160.243 14.613 160.335 14.7458C160.424 14.875 160.495 15.0218 160.543 15.1825C160.736 16.0039 160.945 16.8252 161.145 17.6453H158.794V19.7976H161.671L162.309 22.4124H164.567L162.612 14.5683C162.495 14.1823 162.322 13.8285 162.102 13.5147C161.877 13.1936 161.603 12.913 161.29 12.6819C160.978 12.4508 160.63 12.2701 160.257 12.148C159.892 12.0286 159.503 11.965 159.1 11.965H158.152C157.749 11.965 157.36 12.0286 156.995 12.148C156.622 12.2701 156.274 12.4508 155.962 12.6819C155.649 12.913 155.375 13.1936 155.15 13.5147C154.93 13.828 154.757 14.181 154.64 14.5662L152.675 22.405H154.933Z" fill="#6671F2"/>
<defs>
<linearGradient id="paint0_linear_274_10475" x1="21.826" y1="24.1624" x2="59.6665" y2="21.2456" gradientUnits="userSpaceOnUse">
<stop stop-color="#6671F2"/>
<stop offset="0.411765" stop-color="#B2B8F8"/>
<stop offset="1" stop-color="white"/>
</linearGradient>
</defs>
</svg>
