<svg width="190" height="33" viewBox="0 0 190 33" fill="none" xmlns="http://www.w3.org/2000/svg">
<g clip-path="url(#clip0_541_5630)">
<path fill-rule="evenodd" clip-rule="evenodd" d="M30.865 17.6524L31.9448 0.460693L22.3063 12.5498C25.1593 14.2506 28.0124 15.9511 30.865 17.6524Z" fill="#20212C"/>
<path fill-rule="evenodd" clip-rule="evenodd" d="M31.4871 24.273L36 23.8795L31.642 19.3932L31.4871 24.273Z" fill="#20212C"/>
<path fill-rule="evenodd" clip-rule="evenodd" d="M7.28971 22.8696L1.30334 26.9046L27.0736 24.6577L7.28971 22.8696Z" fill="#20212C"/>
<path fill-rule="evenodd" clip-rule="evenodd" d="M17.925 15.7011L8.40515 22.1178L30.638 24.1272L30.8132 18.612L21.6826 13.1683L17.925 15.7011Z" fill="#20212C"/>
<path fill-rule="evenodd" clip-rule="evenodd" d="M61.5191 11.9139H54.524C53.6076 11.9139 52.7743 12.2873 52.1703 12.8887C51.5662 13.4901 51.1912 14.3196 51.1912 15.232V19.0634C51.1912 19.9758 51.5662 20.8054 52.1703 21.4068C52.7743 22.0081 53.6076 22.3814 54.524 22.3814H61.5191V20.2292H54.524C54.3673 20.2292 54.2168 20.1974 54.0792 20.1399C53.9364 20.0803 53.8073 19.9929 53.6988 19.885C53.5904 19.777 53.5026 19.6484 53.4427 19.5063C53.385 19.3692 53.353 19.2194 53.353 19.0634V15.232C53.353 15.076 53.385 14.9262 53.4427 14.7892C53.5026 14.6471 53.5904 14.5185 53.6988 14.4105C53.8073 14.3025 53.9364 14.2151 54.0792 14.1555C54.2168 14.0981 54.3673 14.0662 54.524 14.0662H61.5191V11.9139ZM89.318 14.1547H95.7886C96.0186 14.1547 96.2391 14.2012 96.441 14.2853C96.6509 14.3727 96.8405 14.5006 96.9991 14.6585C97.1578 14.8165 97.2861 15.0051 97.374 15.2141C97.4584 15.4152 97.5052 15.6348 97.5052 15.8637C97.5052 16.0926 97.4584 16.3122 97.374 16.5133C97.2861 16.7223 97.1578 16.9109 96.9991 17.0689C96.8405 17.2268 96.651 17.3546 96.4411 17.4421C96.2391 17.5261 96.0186 17.5727 95.7886 17.5727H89.318V17.5749H89.3184V22.3755H91.4808L91.4802 19.7249H95.7886C96.8551 19.7249 97.8247 19.2905 98.5277 18.5906C99.2306 17.8908 99.667 16.9255 99.667 15.8637C99.667 14.802 99.2306 13.8366 98.5277 13.1368C97.8247 12.4369 96.8551 12.0024 95.7886 12.0024H89.3184V14.1397H89.318V14.1547ZM78.6186 16.5434L77.512 12.0024H75.2545L76.5518 17.1657C76.6684 17.5509 76.8417 17.9039 77.0611 18.2172C77.2862 18.5384 77.5605 18.8189 77.8729 19.05C78.1833 19.2799 78.53 19.46 78.9015 19.5823C79.2656 19.702 79.653 19.7663 80.0529 19.7673L80.173 19.7675V22.3755H82.3354V19.7669H82.4598C82.8632 19.7669 83.2524 19.7034 83.6172 19.5839C83.9902 19.4618 84.3383 19.2811 84.6504 19.05C84.9628 18.8189 85.2371 18.5384 85.4622 18.2172C85.6817 17.9039 85.8549 17.5509 85.9715 17.1657L87.2662 12.0024H85.0091L83.9033 16.5495C83.8548 16.7101 83.7839 16.8569 83.6948 16.9862C83.6034 17.1189 83.4925 17.2337 83.3668 17.3266C83.2416 17.4193 83.0989 17.492 82.9435 17.5411C82.7916 17.5891 82.6289 17.6146 82.4598 17.6146H80.0635C79.8933 17.6146 79.7307 17.5892 79.5799 17.5416C79.4244 17.4919 79.2817 17.4193 79.1565 17.3266C79.0309 17.2336 78.9199 17.1189 78.8285 16.9862C78.7396 16.8569 78.6686 16.7103 78.6201 16.5495L78.6186 16.5434ZM63.6965 14.1547H70.1667C70.3967 14.1547 70.6172 14.2012 70.8192 14.2853C71.0291 14.3727 71.2186 14.5006 71.3773 14.6585C71.5359 14.8165 71.6643 15.0051 71.7521 15.2141C71.8365 15.4152 71.8833 15.6348 71.8833 15.8637C71.8833 16.0926 71.8365 16.3122 71.7521 16.5133C71.6643 16.7223 71.5359 16.9109 71.3773 17.0689C71.2186 17.2268 71.0292 17.3546 70.8192 17.4421C70.6172 17.5261 70.3967 17.5727 70.1667 17.5727H63.6965C63.6965 19.1736 63.6965 20.7745 63.6965 22.3755H65.8589L65.8583 19.7249H68.099L68.3712 20.2233H68.3628L69.56 22.3755H72.0276L70.5416 19.7108L70.7139 19.6863C71.6585 19.5521 72.4965 19.0755 73.0956 18.3881C73.6864 17.7102 74.0452 16.8267 74.0452 15.8637C74.0452 14.802 73.6088 13.8366 72.9058 13.1368C72.2029 12.4369 71.2332 12.0024 70.1667 12.0024H63.6965C63.6965 12.7198 63.6965 13.4373 63.6965 14.1547ZM121.415 11.9139H116.681C115.764 11.9139 114.931 12.2873 114.327 12.8887C113.723 13.4901 113.348 14.3196 113.348 15.232V19.0634C113.348 19.9758 113.723 20.8054 114.327 21.4068C114.931 22.0081 115.764 22.3814 116.681 22.3814H121.415C122.331 22.3814 123.165 22.0081 123.769 21.4068C124.373 20.8054 124.748 19.9758 124.748 19.0634V15.232C124.748 14.3196 124.373 13.4901 123.769 12.8887C123.165 12.2873 122.331 11.9139 121.415 11.9139ZM116.681 14.0662H121.415C121.572 14.0662 121.722 14.0981 121.86 14.1555C122.003 14.2151 122.132 14.3025 122.24 14.4105C122.349 14.5185 122.436 14.6471 122.496 14.7892C122.554 14.9262 122.586 15.076 122.586 15.232V19.0634C122.586 19.2194 122.554 19.3693 122.496 19.5063C122.436 19.6484 122.349 19.777 122.24 19.885C122.132 19.9929 122.003 20.0803 121.86 20.1399C121.722 20.1974 121.572 20.2292 121.415 20.2292H116.681C116.524 20.2292 116.374 20.1974 116.236 20.1399C116.093 20.0803 115.964 19.9929 115.856 19.885C115.747 19.777 115.659 19.6484 115.6 19.5063C115.542 19.3692 115.51 19.2194 115.51 19.0634V15.232C115.51 15.076 115.542 14.9262 115.6 14.7892C115.659 14.6471 115.747 14.5185 115.856 14.4105C115.964 14.3025 116.093 14.2151 116.236 14.1555C116.374 14.0981 116.524 14.0662 116.681 14.0662ZM111.802 11.9139H101.015V14.0662L105.327 14.0661V22.4126H107.489V14.0662H111.802V11.9139Z" fill="black"/>
<path fill-rule="evenodd" clip-rule="evenodd" d="M137.448 11.9664H129.75C128.958 11.9664 128.237 12.2892 127.715 12.8091C127.193 13.329 126.869 14.0461 126.869 14.835V15.3825C126.869 16.1713 127.193 16.8884 127.715 17.4084C128.237 17.9282 128.958 18.251 129.75 18.251H132.779V18.2438H134.957C135.153 18.2438 135.332 18.3251 135.463 18.456C135.53 18.5218 135.583 18.6008 135.621 18.6885C135.657 18.7735 135.677 18.8653 135.677 18.9601V19.5076C135.677 19.6024 135.657 19.6942 135.621 19.7792C135.583 19.8669 135.53 19.9458 135.463 20.0117C135.397 20.0776 135.318 20.1312 135.23 20.1683C135.145 20.204 135.052 20.2239 134.957 20.2239H127.229V22.3762H134.957C135.749 22.3762 136.47 22.0533 136.992 21.5335C137.514 21.0136 137.838 20.2963 137.838 19.5076V18.9601C137.838 18.1713 137.514 17.4541 136.992 16.9342C136.47 16.4143 135.749 16.0915 134.957 16.0915H130.457V16.0988H129.75C129.555 16.0988 129.375 16.0174 129.244 15.8866C129.177 15.8207 129.124 15.7418 129.086 15.654C129.05 15.5691 129.03 15.4772 129.03 15.3825V14.835C129.03 14.7402 129.05 14.6483 129.086 14.5634C129.124 14.4756 129.177 14.3967 129.244 14.3308C129.31 14.2649 129.389 14.2114 129.477 14.1743C129.562 14.1385 129.655 14.1186 129.75 14.1186H137.448V11.9664ZM186.933 17.5101C187.941 15.6631 188.956 13.8409 189.987 12.0055H187.519L185.987 14.7373H185.995L184.979 16.5991H181.347V11.9648H179.185V22.3755H181.347L181.347 18.7514H185.097L185.901 20.2233H185.893L187.09 22.3755H189.558C188.664 20.7735 187.782 19.1761 186.902 17.5671L186.933 17.5101ZM166.757 14.1547H173.228C173.458 14.1547 173.678 14.2013 173.88 14.2854C174.09 14.3728 174.28 14.5006 174.438 14.6586C174.597 14.8165 174.725 15.0052 174.813 15.2142C174.897 15.4153 174.944 15.6349 174.944 15.8638C174.944 16.0927 174.897 16.3123 174.813 16.5134C174.725 16.7223 174.597 16.911 174.438 17.0689C174.28 17.2269 174.09 17.3547 173.88 17.4421C173.678 17.5261 173.458 17.5727 173.228 17.5727H166.757V17.5749V22.3755H168.92L168.919 19.725H171.16L171.432 20.2233H171.424L172.621 22.3755H175.089L173.602 19.7108L173.775 19.6863C174.72 19.5522 175.557 19.0755 176.157 18.3881C176.747 17.7102 177.106 16.8268 177.106 15.8638C177.106 14.802 176.67 13.8366 175.967 13.1368C175.264 12.437 174.294 12.0025 173.228 12.0025H166.757V14.1397V14.1547ZM148.237 16.1656H142.2V11.98H140.039V22.4127H142.2V18.3179H148.357V22.4127H150.519V11.98H148.357V16.1656H148.237ZM154.933 22.405L156.709 15.1825C156.757 15.0217 156.828 14.875 156.917 14.7458C157.009 14.613 157.12 14.4983 157.245 14.4053C157.37 14.3126 157.513 14.2401 157.669 14.1908C157.819 14.1428 157.982 14.1173 158.152 14.1173H159.1C159.269 14.1173 159.431 14.1428 159.583 14.1908C159.739 14.2399 159.881 14.3126 160.007 14.4053C160.132 14.4983 160.243 14.613 160.335 14.7458C160.424 14.875 160.495 15.0218 160.543 15.1825C160.736 16.0039 160.945 16.8252 161.145 17.6453H158.794V19.7976H161.671L162.309 22.4124H164.567L162.612 14.5683C162.495 14.1823 162.322 13.8285 162.102 13.5147C161.877 13.1936 161.603 12.913 161.29 12.6819C160.978 12.4508 160.63 12.2701 160.257 12.148C159.892 12.0286 159.503 11.965 159.1 11.965H158.152C157.749 11.965 157.36 12.0286 156.995 12.148C156.622 12.2701 156.274 12.4508 155.962 12.6819C155.649 12.913 155.375 13.1936 155.15 13.5147C154.93 13.828 154.757 14.181 154.64 14.5662L152.675 22.405H154.933Z" fill="#20212C"/>
</g>
<defs>
<clipPath id="clip0_541_5630">
<rect width="190" height="33" fill="white"/>
</clipPath>
</defs>
</svg>
