<svg width="263" height="162" viewBox="0 0 263 162" fill="none" xmlns="http://www.w3.org/2000/svg">
<g filter="url(#filter0_b_529_10016)">
<path d="M261 130C261 112.928 257.637 96.0235 251.104 80.2512C244.571 64.4788 234.995 50.1477 222.924 38.0761C210.852 26.0045 196.521 16.4288 180.749 9.89566C164.977 3.36255 148.072 0 131 0C113.928 0 97.0235 3.36255 81.2511 9.89566C65.4788 16.4288 51.1477 26.0045 39.0761 38.0761C27.0045 50.1477 17.4288 64.4788 10.8957 80.2512C4.36255 96.0235 0.999999 112.928 1 130H40C40 118.05 42.3538 106.216 46.927 95.1758C51.5001 84.1352 58.2032 74.1034 66.6533 65.6533C75.1034 57.2032 85.1352 50.5002 96.1758 45.927C107.216 41.3538 119.05 39 131 39C142.95 39 154.784 41.3538 165.824 45.927C176.865 50.5001 186.897 57.2031 195.347 65.6533C203.797 74.1034 210.5 84.1352 215.073 95.1758C219.646 106.216 222 118.05 222 130H261Z" fill="url(#paint0_linear_529_10016)"/>
</g>
<g filter="url(#filter1_b_529_10016)">
<path d="M12 130C12 114.373 15.078 98.8984 21.0583 84.4607C27.0387 70.023 35.8041 56.9045 46.8543 45.8543C57.9045 34.8041 71.0229 26.0387 85.4607 20.0584C99.8984 14.0781 115.373 11 131 11C146.627 11 162.102 14.078 176.539 20.0584C190.977 26.0387 204.096 34.8042 215.146 45.8543C226.196 56.9045 234.961 70.023 240.942 84.4607C246.922 98.8984 250 114.373 250 130H214.3C214.3 119.061 212.145 108.229 207.959 98.1225C203.773 88.0161 197.637 78.8332 189.902 71.098C182.167 63.3629 172.984 57.2271 162.878 53.0409C152.771 48.8547 141.939 46.7 131 46.7C120.061 46.7 109.229 48.8546 99.1225 53.0409C89.0161 57.2271 79.8331 63.3629 72.098 71.098C64.3629 78.8331 58.2271 88.0161 54.0408 98.1225C49.8546 108.229 47.7 119.061 47.7 130H12Z" fill="white"/>
</g>
<path d="M16 130C16 114.898 18.9746 99.9439 24.7539 85.9914C30.5332 72.039 39.004 59.3615 49.6827 48.6827C60.3615 38.004 73.039 29.5332 86.9914 23.7539C100.944 17.9746 115.898 15 131 15C146.102 15 161.056 17.9746 175.009 23.7539C188.961 29.5332 201.639 38.004 212.317 48.6827C222.996 59.3615 231.467 72.039 237.246 85.9914C243.025 99.9439 246 114.898 246 130L131 130L16 130Z" fill="#F0F2F5"/>
<g filter="url(#filter2_di_529_10016)">
<path d="M24 130C24 115.817 26.7806 101.773 32.183 88.6702C37.5853 75.567 45.5037 63.6612 55.486 53.6325C65.4683 43.6038 77.319 35.6485 90.3615 30.221C103.404 24.7935 117.383 22 131.5 22C145.617 22 159.596 24.7935 172.638 30.221C185.681 35.6485 197.532 43.6038 207.514 53.6325C217.496 63.6612 225.415 75.5671 230.817 88.6702C236.219 101.773 239 115.817 239 130L131.5 130L24 130Z" fill="white"/>
</g>
<defs>
<filter id="filter0_b_529_10016" x="-3" y="-4" width="268" height="138" filterUnits="userSpaceOnUse" color-interpolation-filters="sRGB">
<feFlood flood-opacity="0" result="BackgroundImageFix"/>
<feGaussianBlur in="BackgroundImageFix" stdDeviation="2"/>
<feComposite in2="SourceAlpha" operator="in" result="effect1_backgroundBlur_529_10016"/>
<feBlend mode="normal" in="SourceGraphic" in2="effect1_backgroundBlur_529_10016" result="shape"/>
</filter>
<filter id="filter1_b_529_10016" x="8" y="7.00003" width="246" height="127" filterUnits="userSpaceOnUse" color-interpolation-filters="sRGB">
<feFlood flood-opacity="0" result="BackgroundImageFix"/>
<feGaussianBlur in="BackgroundImageFix" stdDeviation="2"/>
<feComposite in2="SourceAlpha" operator="in" result="effect1_backgroundBlur_529_10016"/>
<feBlend mode="normal" in="SourceGraphic" in2="effect1_backgroundBlur_529_10016" result="shape"/>
</filter>
<filter id="filter2_di_529_10016" x="0" y="6" width="263" height="156" filterUnits="userSpaceOnUse" color-interpolation-filters="sRGB">
<feFlood flood-opacity="0" result="BackgroundImageFix"/>
<feColorMatrix in="SourceAlpha" type="matrix" values="0 0 0 0 0 0 0 0 0 0 0 0 0 0 0 0 0 0 127 0" result="hardAlpha"/>
<feOffset dy="8"/>
<feGaussianBlur stdDeviation="12"/>
<feComposite in2="hardAlpha" operator="out"/>
<feColorMatrix type="matrix" values="0 0 0 0 0.913725 0 0 0 0 0.913725 0 0 0 0 0.913725 0 0 0 0.84 0"/>
<feBlend mode="normal" in2="BackgroundImageFix" result="effect1_dropShadow_529_10016"/>
<feBlend mode="normal" in="SourceGraphic" in2="effect1_dropShadow_529_10016" result="shape"/>
<feColorMatrix in="SourceAlpha" type="matrix" values="0 0 0 0 0 0 0 0 0 0 0 0 0 0 0 0 0 0 127 0" result="hardAlpha"/>
<feOffset dy="8"/>
<feGaussianBlur stdDeviation="16"/>
<feComposite in2="hardAlpha" operator="arithmetic" k2="-1" k3="1"/>
<feColorMatrix type="matrix" values="0 0 0 0 0.704167 0 0 0 0 0.744508 0 0 0 0 1 0 0 0 0.28 0"/>
<feBlend mode="normal" in2="shape" result="effect2_innerShadow_529_10016"/>
</filter>
<linearGradient id="paint0_linear_529_10016" x1="1" y1="130" x2="261" y2="129.999" gradientUnits="userSpaceOnUse">
<stop stop-color="#EF1B0D"/>
<stop offset="0.326116" stop-color="#FBEE7D"/>
<stop offset="0.60673" stop-color="#FBEE7D"/>
<stop offset="0.953125" stop-color="#33E815"/>
</linearGradient>
</defs>
</svg>
