<svg width="48" height="48" viewBox="0 0 48 48" fill="none" xmlns="http://www.w3.org/2000/svg">
<circle cx="24" cy="24" r="24" fill="#20212C"/>
<path fill-rule="evenodd" clip-rule="evenodd" d="M31.7689 26.1403C32.3079 25.5552 32.8352 24.9944 33.3941 24.4034C34.4305 23.3073 33.7264 23.3813 35.5734 23.2437C36.5351 23.1719 37.7488 23.2275 38.6669 23.0938C39.0516 23.0378 40.2622 22.0283 40.6762 21.7588C39.6814 21.663 37.5347 22.003 36.428 22.0999C35.6261 22.1701 33.3836 21.4735 32.495 21.2373C31.2312 20.9013 29.9294 20.6098 28.6366 20.3099C27.7185 20.0969 25.6128 19.4719 24.7891 19.4481C24.8592 19.5017 28.0205 22.8488 28.9991 23.7224L30.854 25.3393C31.1642 25.5995 31.4696 25.9133 31.7689 26.1403ZM24.6597 16.5685L25.9237 17.2363L25.0176 15.6358C24.9552 15.5349 24.8975 15.4323 24.8575 15.3773L24.6292 15.1277L24.6595 16.5685H24.6597ZM11.731 23.1655L11.8232 23.9787C12.1839 23.904 12.8991 23.6374 13.1444 23.42L12.8447 22.7847L11.731 23.1655ZM11.456 21.8674C11.7701 22.0801 12.6962 22.4379 13.108 22.3183C13.4869 22.2082 14.4904 21.7032 14.7337 21.6908C14.2081 21.582 12.1169 21.8084 11.456 21.8674ZM22.8418 15.223C23.1973 15.5242 23.9635 16.0633 24.3619 16.2868L24.3335 14.7079C24.09 14.7197 23.0021 15.0696 22.8418 15.223ZM9.41306 22.3845C9.65832 22.5438 10.6286 22.6911 10.9812 22.7853C11.5148 22.9276 11.931 22.9134 12.3486 22.554C10.6483 21.9293 10.5077 21.8285 9.41302 22.3845H9.41306ZM22.5001 14.913L24.1019 14.4198C23.9143 14.1604 22.5732 13.1612 22.283 13L22.5001 14.913ZM20.0325 23.7168C19.9385 23.6155 20.0296 23.6909 19.8755 23.5783L18.4702 22.8571C17.9981 22.6252 17.318 22.2177 16.8581 22.0829C17.0719 22.4382 17.7825 23.0108 18.0551 23.3267C18.2839 23.5919 18.3631 23.7203 18.8254 23.7332C19.2063 23.7438 19.6511 23.7348 20.0325 23.7167V23.7168ZM27.7536 28.9529L25.7098 26.3781C25.7266 26.5326 25.9678 28.4262 25.9745 28.4434C26.0708 28.6911 26.3176 28.6496 26.7958 28.7548C27.1383 28.83 27.41 28.8938 27.7536 28.9529ZM21.6152 17.7287C22.0261 17.5972 23.9822 16.7644 24.1801 16.5729L22.5001 15.353L21.6152 17.7288V17.7287ZM22.7821 26.6695L21.306 24.684C21.1695 24.4853 20.9256 24.207 20.777 24.0453L18.9235 24.0339C19.2733 24.4138 20.3029 25.1995 20.771 25.4712C21.4575 25.8698 22.1165 26.2917 22.7821 26.6693V26.6695ZM24.7912 32L27.0844 30.0075C27.3496 29.7872 27.6181 29.6014 27.8381 29.318L25.8816 28.87C25.7502 29.7213 24.8462 31.3262 24.7912 31.9999V32ZM28.1734 28.8981L29.1096 26.9382L25.9397 26.0634C26.0583 26.3135 27.9926 28.766 28.1736 28.8981H28.1734ZM24.7244 19.0924L29.3551 20.1553C29.1038 19.8127 27.5848 18.731 27.122 18.3912C26.5859 17.9975 26.5729 17.7709 25.9473 18.2039L24.7244 19.0924ZM21.814 18.0788C22.1114 18.2324 23.8173 18.849 24.0942 18.9006C24.3812 18.954 25.8153 17.9839 26.073 17.7228C25.8365 17.4636 25.4244 17.316 25.1031 17.1387C24.5608 16.8395 24.5903 16.771 23.999 17.0497C23.5845 17.2451 22.0127 17.8395 21.814 18.0788ZM7.02276 21.606C8.20035 21.9509 9.544 21.6997 10.7895 21.5991C12.0829 21.4947 13.4277 21.4507 14.7185 21.3032C14.4726 21.113 13.2049 20.8279 12.9141 20.7497C11.5461 20.3819 8.25214 21.0788 7.02276 21.606ZM32.2974 26.0852C33.0369 25.9869 33.861 25.7669 34.6091 25.605C35.1231 25.4938 36.5194 25.3587 36.8196 25.0224C36.6672 24.6915 34.5903 23.6963 34.3721 23.6588C33.8773 24.4936 32.5649 25.4936 32.2974 26.0852ZM23.9691 27.1177L25.5011 27.1189C25.6003 25.5717 24.8224 25.6475 23.3758 25.0774C22.848 24.8696 21.8959 24.3894 21.4148 24.3024C21.6013 24.6765 21.7459 24.7426 21.9809 25.0693L23.1406 26.5925C23.4074 26.9874 23.3578 27.1153 23.9691 27.1177ZM17.0092 20.8811C17.3492 20.8903 23.4788 19.2074 23.6457 19.0805C23.0141 18.8353 22.4304 18.6527 21.8029 18.4199C21.1057 18.1613 21.3597 18.2262 20.143 18.9536L17.0092 20.8811ZM16.5295 25.0428L18.5972 25.4013L20.1017 25.3439C19.7676 25.1828 18.5643 24.1433 18.4114 24.1116C18.2455 24.0775 16.7411 24.9017 16.5295 25.0428ZM21.6375 23.9791C21.9741 24.2562 24.3424 25.1365 24.964 25.3972C25.4513 25.6015 25.427 25.6015 25.7514 25.2814C26.2773 24.7623 27.2022 24.0309 27.6794 23.5091C27.3978 23.3554 22.3872 23.8639 21.6375 23.9791ZM12.8355 19.3698C12.6617 19.623 12.54 20.0011 12.4842 20.3272C13.2108 20.469 13.9128 20.7007 14.6544 20.896C16.4546 21.3702 15.6452 21.2553 18.3698 19.6876C18.7778 19.4528 19.7577 18.8992 20.0616 18.622C19.1607 18.7189 17.3309 19.3442 16.3808 19.624C13.5736 20.4509 14.9427 19.9987 12.8355 19.3699V19.3698ZM4.51028 26.225C5.05002 26.0317 5.20897 25.8957 5.767 25.6574C6.86449 25.1887 6.52329 25.4396 7.15345 24.5788C7.35001 24.3103 7.5205 24.167 7.71552 23.887C7.91365 23.6024 8.0668 23.4677 8.27852 23.1953C8.63338 22.7385 8.82747 22.2808 9.52637 22.0445C8.99568 21.978 8.46088 22.1283 7.92762 22.1215C7.4576 22.1155 6.89827 21.8906 6.42561 21.8163C5.95946 23.6224 6.32336 23.9493 5.22841 25.0455C5.03428 25.3816 5.01993 25.3846 4.51028 26.225ZM13.1275 22.6104C13.3412 23.5891 14.2536 23.7913 15.4534 24.338C16.0588 24.614 16.1617 24.8681 16.7748 24.5379C17.1935 24.3127 17.7026 24.1091 18.0975 23.8434C17.7352 23.3489 16.9712 22.7062 16.5696 22.2677C15.6967 21.3142 15.8024 21.6078 14.661 22.0383C14.142 22.2341 13.6473 22.4912 13.1275 22.6104ZM25.8058 25.6858C26.7139 26.0039 28.9688 26.7385 29.8974 26.5565C30.3944 26.459 30.8898 26.3783 31.3833 26.2814C31.1993 25.94 30.1192 25.1164 29.8125 24.839L28.2299 23.4656L25.8058 25.6858ZM34.1324 18.702C34.1147 18.6885 34.0871 18.6464 34.0774 18.6653L33.4003 18.4086C33.1644 18.3397 32.8549 18.2248 32.5954 18.1798L27.0207 17.9083C27.197 18.1201 30.0604 20.2608 30.2109 20.2826C30.4594 20.3187 33.8563 18.9018 34.1324 18.702ZM6.39548 21.4241C6.87049 21.3149 8.63115 20.9261 8.89736 20.6605L6.06351 17.4228C5.84917 17.2272 5.80075 16.8221 5.48023 16.6751C5.06087 16.4829 4.30454 15.9918 4 15.9556C5.18322 18.9933 5.22155 18.9621 6.39548 21.424V21.4241ZM16.4297 21.4616L20.8402 23.6896L23.8462 19.4466C23.3971 19.4333 16.6273 21.3032 16.4297 21.4616H16.4297ZM21.2372 23.6818L27.8222 23.1158C27.7424 22.8975 27.5662 22.7807 27.4377 22.659C26.9941 22.2387 24.5529 19.5522 24.2806 19.4031L21.2372 23.6818ZM30.8154 20.4902C32.3559 20.9359 34.0049 21.3022 35.5867 21.7133C36.3668 21.916 39.9947 21.4972 41 21.3635C40.5794 20.4216 39.8471 20.3788 38.7537 20.0483C37.8494 19.7748 36.9533 19.4919 36.0491 19.2183C34.5302 18.7586 34.8076 18.7822 33.3725 19.3939C32.7935 19.6406 31.1939 20.154 30.8153 20.4902L30.8154 20.4902Z" fill="#FFE072"/>
</svg>
