<svg width="48" height="48" viewBox="0 0 48 48" fill="none" xmlns="http://www.w3.org/2000/svg">
<circle cx="24" cy="24" r="24" fill="#20212C"/>
<path d="M25.7895 34.0679C25.7895 34.3345 25.9683 34.5679 26.2257 34.6372L32.7099 36.3829C33.0845 36.4837 33.4526 36.2017 33.4526 35.8138V15.1476C33.4526 14.9186 33.3201 14.7104 33.1128 14.6135L26.6737 11.604L21.3271 9.05798C20.9359 8.87171 20.4842 9.15693 20.4842 9.59019V14.6177C20.4842 15.02 20.8784 15.3041 21.2601 15.1769L25.0136 13.9258C25.3953 13.7985 25.7895 14.0826 25.7895 14.485V34.0679Z" fill="#02AB78"/>
<path d="M18.4 32.6776L23.2605 33.9566C23.6343 34.055 24 33.7731 24 33.3866V21.4V16.2993C24 15.8841 23.5823 15.599 23.1957 15.7504L13.9115 19.3846C13.6855 19.4731 13.5369 19.6909 13.5369 19.9336V30.9011C13.5369 31.1669 13.7148 31.3998 13.9712 31.4698L18.4 32.6776Z" fill="#DF5A51"/>
</svg>
