<svg width="32" height="32" viewBox="0 0 32 32" fill="none" xmlns="http://www.w3.org/2000/svg">
<mask id="mask0_7_1750" style="mask-type:alpha" maskUnits="userSpaceOnUse" x="0" y="0" width="32" height="32">
<circle cx="16" cy="16" r="16" fill="#D9D9D9"/>
</mask>
<g mask="url(#mask0_7_1750)">
<rect width="32" height="32" rx="16" fill="#F7931A"/>
<path d="M23.0513 13.7236C23.3698 11.5946 21.7488 10.4501 19.5323 9.68663L20.2513 6.80263L18.4958 6.36513L17.7958 9.17313C17.3343 9.05813 16.8603 8.94963 16.3893 8.84213L17.0943 6.01562L15.3398 5.57812L14.6203 8.46112C14.2383 8.37412 13.8633 8.28813 13.4993 8.19763L13.5013 8.18863L11.0803 7.58412L10.6133 9.45912C10.6133 9.45912 11.9158 9.75762 11.8883 9.77612C12.5993 9.95362 12.7278 10.4241 12.7063 10.7971L11.8873 14.0826C11.9363 14.0951 11.9998 14.1131 12.0698 14.1411C12.0113 14.1266 11.9488 14.1106 11.8843 14.0951L10.7363 18.6976C10.6493 18.9136 10.4288 19.2376 9.93181 19.1146C9.94931 19.1401 8.65581 18.7961 8.65581 18.7961L7.7843 20.8056L10.0688 21.3751C10.4938 21.4816 10.9103 21.5931 11.3203 21.6981L10.5938 24.6151L12.3473 25.0526L13.0668 22.1666C13.5458 22.2966 14.0108 22.4166 14.4658 22.5296L13.7488 25.4021L15.5043 25.8396L16.2308 22.9281C19.2243 23.4946 21.4753 23.2661 22.4228 20.5586C23.1863 18.3786 22.3848 17.1211 20.8098 16.3011C21.9568 16.0366 22.8208 15.2821 23.0513 13.7236ZM19.0403 19.3481C18.4978 21.5281 14.8273 20.3496 13.6373 20.0541L14.6013 16.1896C15.7913 16.4866 19.6073 17.0746 19.0403 19.3481ZM19.5833 13.6921C19.0883 15.6751 16.0333 14.6676 15.0423 14.4206L15.9163 10.9156C16.9073 11.1626 20.0988 11.6236 19.5833 13.6921Z" fill="white"/>
</g>
</svg>
