<svg width="32" height="32" viewBox="0 0 32 32" fill="none" xmlns="http://www.w3.org/2000/svg">
<mask id="mask0_7_1825" style="mask-type:alpha" maskUnits="userSpaceOnUse" x="0" y="0" width="32" height="32">
<circle cx="16" cy="16" r="16" fill="#D9D9D9"/>
</mask>
<g mask="url(#mask0_7_1825)">
<rect x="-1" y="-1" width="34" height="34" rx="17" fill="#1273BF"/>
<path d="M13.9334 14.8631H6.26219L5.35373 17.7638H13.025L13.9334 14.8631Z" fill="white"/>
<path d="M26.3488 12.8656C25.6953 15.1766 25.0206 17.4981 24.1122 19.7134C23.3419 21.5941 21.7694 22.6353 19.6603 22.6406C15.3784 22.6512 11.1019 22.6459 6.82001 22.6459C6.55438 22.2794 6.31001 21.8916 6.09219 21.4931C6.25688 20.9778 6.43219 20.4306 6.55438 20.0375L6.74563 19.4425H7.29813C10.9531 19.4372 14.6134 19.4372 18.2684 19.4372C19.7559 19.4372 19.7559 19.4372 20.2075 18.0347C20.675 16.5791 21.1159 15.1181 21.61 13.6784C21.78 13.1791 21.6791 13.0941 21.1797 13.0994C17.2909 13.1206 8.78032 13.1153 8.78032 13.1153L9.78969 9.95437C9.78969 9.95437 19.5966 9.94374 24.2609 9.95968C24.8613 9.95968 25.3819 10.1775 25.7697 10.5387C26.1469 10.8894 26.3913 11.3781 26.4391 11.9359C26.4656 12.2281 26.4391 12.5416 26.3488 12.8656Z" fill="white"/>
<path d="M8.77493 13.132L8.78049 13.1153H8.77493V13.132Z" fill="white"/>
</g>
</svg>
