<svg width="24" height="24" viewBox="0 0 24 24" fill="none" xmlns="http://www.w3.org/2000/svg">
<circle cx="12" cy="12" r="12" fill="#F0F2F5"/>
<path d="M16.9275 7.92522C16.6011 7.92517 16.2758 7.96439 15.9588 8.04203C15.781 8.76554 15.4086 9.42655 14.8818 9.95335C14.355 10.4802 13.6939 10.8526 12.9704 11.0304C12.8145 11.6671 12.8145 12.332 12.9704 12.9687C13.694 13.1465 14.355 13.5191 14.8818 14.046C15.4086 14.5728 15.781 15.2339 15.9588 15.9574C16.5184 16.0941 17.1007 16.1106 17.6672 16.0057C18.2337 15.9009 18.7716 15.6771 19.2452 15.3491C19.7189 15.0212 20.1176 14.5965 20.4151 14.1031C20.7126 13.6097 20.9021 13.0589 20.9711 12.4869C21.04 11.9149 20.9869 11.3348 20.8153 10.7849C20.6436 10.2349 20.3572 9.72761 19.9751 9.29644C19.593 8.86528 19.1238 8.52005 18.5985 8.28353C18.0731 8.04701 17.5036 7.92458 16.9275 7.92432V7.92522Z" fill="#4494F7"/>
<path d="M11.0316 11.0313C11.6683 11.1872 12.3332 11.1872 12.9699 11.0313C13.1477 10.3077 13.5202 9.6466 14.0471 9.11972C14.574 8.59285 15.2351 8.22031 15.9587 8.04252C16.1053 7.44274 16.1138 6.81748 15.9833 6.21397C15.8529 5.61045 15.587 5.04447 15.2058 4.55879C14.8245 4.0731 14.3379 3.6804 13.7826 3.41036C13.2273 3.14032 12.618 3 12.0005 3C11.3831 3 10.7737 3.14032 10.2184 3.41036C9.66318 3.6804 9.17654 4.0731 8.7953 4.55879C8.41405 5.04447 8.14817 5.61045 8.01774 6.21397C7.8873 6.81748 7.89573 7.44274 8.04238 8.04252C8.76606 8.22023 9.42725 8.59274 9.95421 9.11963C10.4812 9.64651 10.8538 10.3076 11.0316 11.0313Z" fill="#7ABDF7"/>
<path d="M12.9695 12.9687C12.3328 12.8128 11.6678 12.8128 11.0312 12.9687C10.8532 13.6923 10.4806 14.3533 9.95379 14.8802C9.42693 15.407 8.76591 15.7796 8.04238 15.9575C7.89573 16.5573 7.8873 17.1826 8.01774 17.7861C8.14817 18.3896 8.41405 18.9556 8.7953 19.4412C9.17654 19.9269 9.66318 20.3196 10.2184 20.5897C10.7737 20.8597 11.3831 21 12.0005 21C12.618 21 13.2273 20.8597 13.7826 20.5897C14.3379 20.3196 14.8245 19.9269 15.2058 19.4412C15.587 18.9556 15.8529 18.3896 15.9833 17.7861C16.1138 17.1826 16.1053 16.5573 15.9587 15.9575C15.235 15.7798 14.5738 15.4073 14.0468 14.8804C13.5199 14.3535 13.1473 13.6924 12.9695 12.9687Z" fill="#0D74F5"/>
<path d="M11.0313 12.9688C11.1872 12.3321 11.1872 11.6672 11.0313 11.0305C10.3078 10.8527 9.6467 10.4802 9.11982 9.95344C8.59295 9.42665 8.22038 8.76565 8.04252 8.04213C7.44274 7.89548 6.81748 7.88706 6.21397 8.01749C5.61045 8.14793 5.04447 8.41381 4.55879 8.79505C4.0731 9.1763 3.6804 9.66293 3.41036 10.2182C3.14032 10.7735 3 11.3828 3 12.0003C3 12.6177 3.14032 13.2271 3.41036 13.7824C3.6804 14.3376 4.0731 14.8243 4.55879 15.2055C5.04447 15.5868 5.61045 15.8526 6.21397 15.9831C6.81748 16.1135 7.44274 16.1051 8.04252 15.9584C8.22021 15.2347 8.5927 14.5734 9.11958 14.0464C9.64646 13.5194 10.3076 13.1467 11.0313 12.9688Z" fill="#005CF4"/>
<path d="M12.9697 12.9688C13.1475 13.6923 13.5201 14.3534 14.0469 14.8803C14.5738 15.4072 15.2349 15.7797 15.9585 15.9575C15.7806 15.234 15.408 14.573 14.8811 14.0461C14.3543 13.5193 13.6933 13.1467 12.9697 12.9688Z" fill="#0246F2"/>
</svg>
