<svg width="24" height="24" viewBox="0 0 24 24" fill="none" xmlns="http://www.w3.org/2000/svg">
<circle cx="12" cy="12" r="12" fill="#3BBEAA"/>
<path d="M13.9399 9.05394C13.74 11.3126 11.484 13.3561 10.7214 14.6468C9.96986 15.9187 9.72164 17.1189 10.3166 19.5038C10.3272 19.5464 10.286 19.5847 10.2458 19.567C9.46683 19.225 6.67871 17.9539 6.67871 14.5953C6.67871 10.1246 11.6753 10.0095 11.3345 3.83564C11.3322 3.79279 11.3791 3.76235 11.4149 3.78593C13.1083 4.89919 14.1365 6.83296 13.9399 9.05394Z" fill="white"/>
<path d="M10.6861 19.6476C10.6658 19.641 10.6514 19.6222 10.6503 19.6008C10.5688 18.0968 11.3686 17.12 12.267 16.398C14.3218 14.7467 15.553 12.4904 14.8891 9.87888C14.876 9.82708 14.9377 9.78983 14.9746 9.82846C15.5039 10.3823 16.095 11.2942 16.3993 11.9301C17.6566 14.631 16.9856 17.7261 13.9771 19.2881C13.0188 19.7638 11.8779 20.0334 10.6861 19.6476Z" fill="white"/>
</svg>
