<svg width="24" height="24" viewBox="0 0 24 24" fill="none" xmlns="http://www.w3.org/2000/svg">
<circle cx="12" cy="12" r="12" fill="#20212C"/>
<path d="M8.99796 10.6805L11.8543 7.82429L14.7122 10.682L16.3742 9.02001L11.8543 4.5L7.33594 9.0185L8.99796 10.6805Z" fill="#F3BA2F"/>
<path d="M7.82411 11.8539L6.16211 10.1919L4.50003 11.854L6.16203 13.516L7.82411 11.8539Z" fill="#F3BA2F"/>
<path d="M8.99747 13.0278L11.8538 15.884L14.7116 13.0264L16.3745 14.6875L16.3737 14.6884L11.8538 19.2083L7.33533 14.6899L7.33301 14.6876L8.99747 13.0278Z" fill="#F3BA2F"/>
<path d="M17.5459 13.5167L19.208 11.8546L17.546 10.1926L15.8839 11.8547L17.5459 13.5167Z" fill="#F3BA2F"/>
<path d="M13.5402 11.8533H13.5409L11.8543 10.1667L10.608 11.4131H10.6079L10.4647 11.5564L10.1693 11.8518L10.167 11.8541L10.1693 11.8565L11.8543 13.5416L13.5409 11.855L13.5417 11.8541L13.5402 11.8533Z" fill="#F3BA2F"/>
</svg>
