<svg width="113" height="28" viewBox="0 0 113 28" fill="none" xmlns="http://www.w3.org/2000/svg">
<path fill-rule="evenodd" clip-rule="evenodd" d="M112.059 13.9555V13.762H107.027V14C107.027 18.9802 102.945 23.0198 97.9122 23.0198C92.8798 23.0198 88.7969 18.9802 88.7969 14C88.7969 9.01982 92.8798 4.98018 97.9122 4.98018H98.0624V0H97.9122C90.1091 0 83.7658 6.27709 83.7658 14C83.7658 21.7229 90.1078 28 97.9122 28C105.717 28 112.059 21.7229 112.059 14V13.9555ZM46.6887 0.506545L37.5887 27.4935H42.7865L43.8111 24.4669C43.9613 24.0342 44.2184 23.7669 44.7758 23.7669H53.0918C53.6493 23.7669 53.9191 24.0342 54.0553 24.4669L55.0798 27.4935H60.2776L51.1776 0.506545H46.6887ZM51.4347 19.0693H46.4164C45.8895 19.0693 45.5878 18.7562 45.7673 18.2191L48.4044 10.3765C48.6462 9.67655 49.2329 9.67655 49.4595 10.3765L52.066 18.2191C52.262 18.7855 51.9604 19.0693 51.4335 19.0693H51.4347ZM75.6916 16.758C76.1282 17.5929 76.8065 17.4147 76.8065 16.4907V0.505273H81.8224V27.4782H75.7515L67.088 11.242C66.6515 10.4071 65.9731 10.5853 65.9731 11.5093V27.4935H60.9573V0.506545H67.3298L75.6916 16.7593V16.758ZM25.7473 21.8273V0.506545H20.7302V27.4935H36.8505V22.7818H26.7273C26.5987 22.7895 26.47 22.7703 26.3493 22.7254C26.2286 22.6805 26.1187 22.6109 26.0264 22.521C25.9342 22.4312 25.8617 22.3231 25.8136 22.2036C25.7656 22.0841 25.743 21.956 25.7473 21.8273ZM17.9582 7.94691C17.9582 10.2276 16.9629 12.0922 15.2307 13.3433C17.2938 14.7153 18.5296 17.0418 18.5296 19.6509C18.5296 24.1831 15.26 27.4935 10.8907 27.4935H0V0.506545H10.3498C15.0513 0.506545 17.9582 3.56364 17.9582 7.94691ZM5.72345 4.94964C5.28691 4.94964 5.01582 5.21818 5.01582 5.64964V10.7787C5.01582 11.1975 5.28691 11.5105 5.72345 11.5105H9.43091C11.2993 11.5105 12.6255 10.094 12.6255 8.22945C12.6255 6.39673 11.3145 4.94964 9.43091 4.94964H5.72473H5.72345ZM5.78455 22.9905H9.50473C11.7193 22.9905 13.0913 21.4544 13.1065 19.4422C13.1065 17.4593 11.7193 15.9536 9.52 15.9536H5.78582C5.33273 15.9536 5.01709 16.2807 5.01709 16.7427V22.2307C5.01709 22.6762 5.348 22.9905 5.78582 22.9905H5.78455Z" fill="#1D1D1B"/>
</svg>
