<svg width="121" height="23" viewBox="0 0 121 23" fill="none" xmlns="http://www.w3.org/2000/svg">
<path d="M33.2219 22.9939C30.1376 23.0909 27.1338 22.0307 24.8372 20.0345C23.6069 18.9493 22.6423 17.6118 22.0137 16.1196C21.3851 14.6274 21.1085 13.0181 21.2039 11.4091C21.1312 8.68161 22.0886 6.02216 23.8963 3.92949C25.5859 2.04669 27.885 0.774441 30.4177 0.320523C33.5262 -0.381602 36.7937 0.0791733 39.5663 1.61073C41.2376 2.50278 42.6352 3.80742 43.617 5.39221C44.5989 6.97691 45.1299 8.78519 45.1561 10.6332C45.3424 14.1248 44.4853 17.2646 41.8208 19.7548C39.5282 21.8591 36.4732 23.0062 33.3151 22.9488L33.2219 22.9939ZM33.3803 5.58962C32.1584 5.52358 30.9505 5.86814 29.9608 6.56522C28.9712 7.26229 28.2604 8.26901 27.9489 9.41513C27.4937 10.8096 27.4937 12.3063 27.9489 13.7008C28.2259 14.649 28.779 15.4998 29.5419 16.1518C30.3047 16.8038 31.2453 17.2295 32.2511 17.3778C33.2569 17.5262 34.2856 17.3911 35.2145 16.9887C36.1432 16.5862 36.9327 15.9335 37.4888 15.1083C38.1387 14.1221 38.5093 12.9877 38.5632 11.8189C38.6172 10.6501 38.3527 9.48812 37.7962 8.44973C37.4062 7.59531 36.7636 6.87198 35.9494 6.37096C35.1354 5.87004 34.1862 5.6138 33.2219 5.63473L33.3803 5.58962ZM83.8466 13.6647C82.6914 13.7279 81.6014 13.8091 80.3903 13.8722V22.4616H73.8689V0.699465H80.2599V8.73845C81.6508 8.85511 83.0519 8.74531 84.4056 8.41364C85.2049 8.18781 85.9316 7.76745 86.5148 7.19246C87.0989 6.61755 87.521 5.9073 87.7408 5.12948C88.1694 3.69491 88.3464 2.19719 88.6725 0.618263H94.6069C94.7281 5.12948 93.8151 9.06326 89.3991 11.4993C89.5855 11.8241 89.7066 12.0858 89.8836 12.3474C91.7468 15.2797 93.5169 18.212 95.3336 21.1714C95.5442 21.5809 95.7277 22.0028 95.8833 22.4345H89.0731C87.3123 19.5563 85.5608 16.597 83.8 13.6376L83.8466 13.6647ZM112.681 9.41513C112.726 8.79033 112.726 8.16327 112.681 7.53847C112.59 7.05342 112.356 6.60419 112.007 6.24537C111.659 5.88664 111.21 5.63374 110.715 5.51744C109.008 4.97321 107.197 4.80368 105.414 5.02121C103.741 5.12668 102.105 5.54649 100.597 6.25728C100.327 4.70542 100.048 3.23477 99.7495 1.74607C101.053 1.13633 102.439 0.710924 103.867 0.482927C106.837 -0.108493 109.905 -0.0684345 112.858 0.600218C116.006 1.36712 118.214 3.1265 118.82 6.34751C118.946 7.15348 118.995 7.96884 118.969 8.78356V16.9037C119.09 18.5729 119.239 18.7082 121 19.015V22.4796C119.261 23.0331 117.376 22.9821 115.671 22.3353C115.221 22.1106 114.833 21.7857 114.538 21.3873C114.244 20.9888 114.051 20.5283 113.976 20.0436C113.924 19.8119 113.893 19.5765 113.882 19.3398C111.73 22.3352 108.675 23.0661 105.283 22.8856C101.501 22.6781 98.5943 20.1789 98.0447 17.3098C97.1689 12.591 99.6471 9.07228 104.566 8.33244C107.743 7.89034 108.628 8.09786 112.653 9.41513H112.681ZM112.634 13.5474C111.614 12.8801 110.439 12.4679 109.215 12.3474C108.594 12.2254 107.954 12.2273 107.335 12.353C106.714 12.4787 106.127 12.7255 105.609 13.0782C105.116 13.4358 104.752 13.9362 104.571 14.5071C104.39 15.0781 104.401 15.6899 104.603 16.2541C104.773 16.7559 105.095 17.1965 105.527 17.5184C105.959 17.8403 106.481 18.0286 107.026 18.0586C108.13 18.1673 109.245 18.006 110.268 17.5895C111.108 17.3176 111.814 16.7543 112.251 16.008C112.688 15.2617 112.825 14.3852 112.634 13.5474ZM62.4751 0.672397H68.7729V22.4886H62.4192V15.5143C61.236 15.7759 60.1739 16.0737 59.056 16.218C56.1493 16.597 53.3917 16.218 51.0626 14.4136C49.3435 12.982 48.2045 11.0061 47.8485 8.8377C47.2988 6.13097 47.6342 3.42424 47.541 0.717509H54.109V1.68291C54.109 3.4874 54.109 5.20166 54.2022 6.9881C54.2201 7.51663 54.3464 8.03641 54.5736 8.51731C54.8009 8.99811 55.1247 9.43038 55.5261 9.78893C55.9275 10.1474 56.3985 10.425 56.9117 10.6056C57.425 10.7862 57.9702 10.8661 58.5156 10.8407C59.9358 10.8833 61.331 10.471 62.4844 9.66776L62.4751 0.672397ZM12.959 22.4074H6.6332V6.24826H0V0.699465H19.5642V6.1851H12.959V22.4074Z" fill="#333333"/>
</svg>
