<svg width="200" height="50" viewBox="0 0 200 50" fill="none" xmlns="http://www.w3.org/2000/svg">
<path d="M59.4657 31.0506H50.287L62.0117 15.7435C62.0967 15.6281 62.1479 15.4919 62.16 15.3498C62.172 15.2077 62.1444 15.0651 62.0801 14.9374C62.0158 14.8097 61.9173 14.7018 61.7953 14.6254C61.6732 14.549 61.5322 14.507 61.3878 14.504H44.4289C44.0714 14.504 43.7176 14.5735 43.3873 14.7085C43.0571 14.8434 42.7571 15.0412 42.5043 15.2906C42.2516 15.54 42.051 15.836 41.9143 16.1618C41.7775 16.4876 41.707 16.8368 41.707 17.1895C41.707 17.5421 41.7775 17.8913 41.9143 18.2172C42.051 18.543 42.2516 18.839 42.5043 19.0884C42.7571 19.3378 43.0571 19.5356 43.3873 19.6705C43.7176 19.8055 44.0714 19.8749 44.4289 19.8749H52.0542L40.2876 35.1697C40.1961 35.2833 40.1392 35.4203 40.1239 35.5647C40.1084 35.7091 40.1349 35.8549 40.2004 35.9848C40.2659 36.1149 40.3676 36.2239 40.4934 36.299C40.6193 36.3741 40.7644 36.4122 40.9116 36.409H59.4657C60.1571 36.3711 60.8076 36.0734 61.2834 35.577C61.7592 35.0806 62.0244 34.4234 62.0244 33.7401C62.0244 33.0569 61.7592 32.3996 61.2834 31.9032C60.8076 31.4069 60.1571 31.1092 59.4657 31.0712V31.0506ZM118.734 14.504C118.378 14.504 118.025 14.5733 117.696 14.7079C117.367 14.8425 117.068 15.0398 116.817 15.2884C116.565 15.5371 116.366 15.8322 116.23 16.157C116.094 16.4818 116.024 16.8298 116.025 17.1812V26.1506L101.369 14.6776C101.208 14.5509 101.004 14.4916 100.799 14.5125C100.595 14.5333 100.407 14.6327 100.276 14.7891C100.16 14.9271 100.097 15.1014 100.1 15.2808V33.7194C100.128 34.4107 100.425 35.0647 100.931 35.5442C101.436 36.0236 102.11 36.2914 102.811 36.2914C103.513 36.2914 104.187 36.0236 104.692 35.5442C105.198 35.0647 105.495 34.4107 105.523 33.7194V24.7418L120.179 36.2189C120.294 36.3055 120.432 36.3586 120.576 36.3725C120.721 36.3862 120.866 36.3602 120.996 36.2972C121.127 36.2342 121.237 36.1367 121.314 36.0157C121.391 35.8946 121.433 35.7547 121.435 35.6116V17.1812C121.435 16.8298 121.366 16.4818 121.23 16.157C121.094 15.8322 120.894 15.5371 120.643 15.2884C120.391 15.0398 120.092 14.8425 119.763 14.7079C119.434 14.5733 119.082 14.504 118.726 14.504H118.734ZM79.9714 31.5587C73.7741 31.5587 69.1387 28.332 69.1387 25.4483C69.1387 22.5645 73.7741 19.342 79.9714 19.342C86.1687 19.342 90.7915 22.5645 90.7915 25.4483C90.7915 28.332 86.1854 31.5587 79.9714 31.5587ZM79.9714 14C70.9978 14 63.7243 19.123 63.7243 25.4483C63.7243 31.7735 70.9978 36.8965 79.9714 36.8965C88.9449 36.8965 96.2352 31.7653 96.2352 25.4483C96.2352 19.1313 88.9449 14 79.9714 14ZM26.62 31.5629C25.3943 31.5645 24.1956 31.2074 23.1755 30.5369C22.1555 29.8664 21.3598 28.9125 20.8892 27.7958C20.4187 26.6792 20.2942 25.4499 20.5317 24.2635C20.7692 23.0771 21.358 21.9868 22.2235 21.1305C23.0891 20.2742 24.1925 19.6904 25.3944 19.4528C26.5962 19.2153 27.8424 19.3347 28.9755 19.796C30.1085 20.2573 31.0775 21.0397 31.7599 22.0443C32.4421 23.049 32.8072 24.2307 32.8089 25.44C32.8089 27.0603 32.1571 28.6142 30.9967 29.7607C29.8363 30.9072 28.2622 31.5524 26.62 31.5545V31.5629ZM26.62 14C24.3234 13.9984 22.0779 14.6687 20.1675 15.9262C18.2571 17.1837 16.7675 18.9719 15.8871 21.0647C15.0067 23.1575 14.7751 25.4608 15.2215 27.6834C15.6679 29.9061 16.7723 31.9483 18.3951 33.5517C20.0178 35.1551 22.086 36.2476 24.3381 36.6914C26.5902 37.1349 28.9251 36.9097 31.0474 36.0441C33.1698 35.1785 34.9844 33.7114 36.2616 31.8283C37.539 29.9452 38.2216 27.7307 38.2232 25.4648C38.2254 23.96 37.9269 22.4695 37.3448 21.0787C36.7626 19.6878 35.9083 18.4238 34.8306 17.359C33.7529 16.2941 32.4731 15.4494 31.0642 14.873C29.6553 14.2967 28.1451 14 26.62 14Z" fill="#005BFF"/>
<path fill-rule="evenodd" clip-rule="evenodd" d="M139.172 36.5399C142.211 36.5399 144.644 34.7529 144.644 31.3301C144.644 27.8821 142.203 26.0951 139.181 26.0951H135.106V21.6043H143.773V19.1739H132.521V36.5399H139.172ZM138.916 28.5255C140.818 28.5255 141.862 29.6188 141.862 31.3301C141.862 33.0162 140.818 34.1096 138.916 34.1096H135.089V28.5255H138.916ZM151.72 24.7021C148.689 24.7021 146.134 26.9854 146.134 30.8076C146.134 34.6299 148.689 36.9088 151.72 36.913C153.61 36.913 154.878 36.1184 155.597 34.8569H155.643V36.5388H158.081V25.0806H155.643V26.7626H155.597C154.878 25.5221 153.61 24.7021 151.72 24.7021ZM152.242 27.0863C154.38 27.0863 155.77 28.6252 155.77 30.8076C155.77 32.99 154.376 34.5289 152.242 34.5289C150.108 34.5289 148.715 32.99 148.715 30.8076C148.715 28.6252 150.104 27.0863 152.242 27.0863ZM171.766 25.0774V36.5398H169.328V31.7251H163.494V36.5398H161.057V25.0774H163.494V29.442H169.328V25.0774H171.766ZM177.167 30.9095L181.797 36.5398H185L179.666 30.2872L184.478 25.0774H181.274L177.179 29.9633V25.0774H174.741V36.5398H177.167V30.9095Z" fill="#001A34"/>
</svg>
