<svg width="171" height="27" viewBox="0 0 171 27" fill="none" xmlns="http://www.w3.org/2000/svg">
<path d="M0 16.3463C0 21.6562 3.00577 27 9.72055 27C16.4353 27 19.4411 21.6562 19.4411 16.3463C19.4411 12.7238 18.2048 8.55 16.1518 5.18625C14.1555 1.935 11.7509 0 9.72055 0C7.69024 0 5.28562 1.935 3.30068 5.18625C1.23634 8.56125 0 12.7238 0 16.3463ZM69.0306 7.95375H62.2251V1.45125H83.1294V7.965H76.3239V25.56H69.0306V7.95375ZM98.68 7.95375H109.376V1.45125H98.68C88.8574 1.45125 83.6058 6.3 83.6058 13.5C83.6058 20.7113 88.8574 25.5487 98.68 25.5487H109.376V19.035H98.68C94.1317 19.035 91.1372 17.4263 91.1372 13.4887C91.1372 9.5625 94.1317 7.95375 98.68 7.95375ZM43.4986 15.84L47.3891 1.45125H60.2742V25.56H52.981V5.92875L47.684 25.5487H39.3246L34.0276 5.94V25.5487H26.7343V1.45125H39.6195L43.4986 15.84ZM127.535 8.4375H124.961V10.8H127.535C128.182 10.8 128.579 10.4625 128.579 9.855V9.41625C128.568 8.78625 128.239 8.4375 127.535 8.4375ZM128.182 13.5H121.524V1.45125H131.312V4.33125H124.949V5.90625H128.171C130.87 5.90625 132.175 7.23375 132.175 9.57375C132.186 12.0375 130.881 13.5 128.182 13.5ZM140.103 8.5725H137.392L138.753 4.1175L140.103 8.5725ZM145.321 13.5L141.566 1.45125H136.462L132.708 13.5H135.918L136.609 11.1938H140.908L141.612 13.5H145.321ZM153.998 13.5V8.83125H150.073V13.5H146.557V1.45125H150.073V5.8725H153.998V1.45125H157.525V13.5H153.998ZM163.775 5.86125H163.162V1.45125H159.646V13.5H163.162V8.83125H163.673L166.928 13.5H171L166.599 7.18875L170.648 1.44H166.928L163.775 5.86125Z" fill="#E30600"/>
</svg>
