<svg width="111" height="39" viewBox="0 0 111 39" fill="none" xmlns="http://www.w3.org/2000/svg">
<path d="M57.5046 36.2993V26.5333C58.7353 28.0118 60.9563 29.5933 64.0665 29.5933C69.1583 29.5933 72.7466 25.7079 72.7466 20.3098C72.7466 14.9113 69.1583 11.0259 64.0665 11.0259C60.8197 11.0259 58.5643 12.7448 57.3341 14.258L56.5138 11.3696H53.5747V36.2993H57.5046ZM63.1095 26.0521C59.7945 26.0521 57.5046 23.6799 57.5046 20.3103C57.5046 16.9402 59.7945 14.5676 63.1095 14.5676C66.3902 14.5676 68.6457 16.9402 68.6457 20.3103C68.6457 23.6799 66.3902 26.0526 63.1095 26.0526V26.0521ZM83.4133 11.0264C79.9621 11.0264 76.9203 12.8145 76.0316 15.9087L79.6544 16.5278C80.2009 15.4275 81.4311 14.396 83.2083 14.396C85.3615 14.396 86.6256 15.9433 86.7967 18.2813H82.969C77.7405 18.2813 75.143 20.5853 75.143 23.8861C75.143 27.2216 77.7061 29.5938 81.3289 29.5938C84.2336 29.5938 86.1818 27.909 87.036 26.4304L87.8563 29.2501H90.761V19.2095C90.761 14.0177 87.9586 11.0264 83.4133 11.0264V11.0264ZM82.2514 26.2588C80.3376 26.2588 79.1074 25.2614 79.1074 23.714C79.1074 22.3388 80.0987 21.376 83.1061 21.376H86.8311C86.8311 24.2986 84.9855 26.2588 82.2514 26.2588V26.2588ZM102.456 24.2644H101.909L96.6808 11.3701H92.4772L100.371 30.2129L100.166 30.7628C99.6539 32.2073 99.039 32.6884 97.74 32.6884H94.4254L94.767 36.2989H97.4667C100.747 36.2989 102.525 34.8203 103.721 31.4853L111 11.3701H107.002L102.456 24.2644V24.2644Z" fill="black"/>
<path d="M0 18.72C0 9.89528 0 5.48291 2.72493 2.7417C5.44938 0 9.83475 0 18.6055 0H20.156C28.9267 0 33.3121 0 36.0365 2.7417C38.7615 5.48291 38.7615 9.89528 38.7615 18.72V20.28C38.7615 29.1047 38.7615 33.5171 36.0365 36.2583C33.3121 39 28.9267 39 20.156 39H18.6055C9.83475 39 5.44938 39 2.72493 36.2583C0 33.5171 0 29.1047 0 20.28V18.72Z" fill="#0077FF"/>
<path d="M20.6245 28.0967C11.7898 28.0967 6.7513 22.0029 6.54102 11.8629H10.9661C11.1115 19.3056 14.3742 22.4587 16.9582 23.1081V11.8634H21.125V18.2818C23.677 18.0054 26.3578 15.0804 27.2619 11.8634H31.4288C30.7345 15.8282 27.8274 18.7532 25.7599 19.9559C27.8274 20.9309 31.1381 23.482 32.3978 28.0972H27.8114C26.8263 25.0093 24.3713 22.6206 21.125 22.2959V28.0972H20.6245V28.0967Z" fill="white"/>
</svg>
