<svg width="48" height="48" viewBox="0 0 48 48" fill="none" xmlns="http://www.w3.org/2000/svg">
<path fill-rule="evenodd" clip-rule="evenodd" d="M47.984 24.016C47.984 37.2622 37.2461 48 24 48C10.754 48 0.0159607 37.2622 0.0159607 24.016C0.0159607 10.77 10.754 0.0319824 24 0.0319824C37.2461 0.0319824 47.984 10.77 47.984 24.016ZM17.2036 33.5604H12.549C11.5709 33.5604 11.0878 33.5604 10.7932 33.372C10.475 33.1657 10.2806 32.824 10.257 32.4468C10.2393 32.0994 10.4809 31.675 10.964 30.8266L22.4569 10.5688C22.9459 9.7086 23.1934 9.27848 23.5057 9.11941C23.8415 8.94855 24.2422 8.94855 24.578 9.11941C24.8903 9.27848 25.1377 9.7086 25.6268 10.5688L27.9895 14.6932L28.0015 14.7142C28.5297 15.6371 28.7975 16.1051 28.9145 16.5963C29.0441 17.1324 29.0441 17.6981 28.9145 18.2342C28.7966 18.7291 28.5315 19.2005 27.9953 20.1373L21.9584 30.8089L21.9428 30.8362C21.4111 31.7667 21.1417 32.2383 20.7682 32.5941C20.3617 32.983 19.8727 33.2657 19.3365 33.425C18.8475 33.5604 18.2995 33.5604 17.2036 33.5604ZM28.9581 33.5604H35.6276C36.6116 33.5604 37.1066 33.5604 37.4013 33.3663C37.7194 33.16 37.9197 32.8122 37.9376 32.4353C37.9545 32.099 37.7182 31.6912 37.2551 30.8921C37.2391 30.8649 37.2231 30.8372 37.2069 30.809L33.866 25.0939L33.828 25.0295C33.3586 24.2356 33.1216 23.8347 32.8172 23.6798C32.4816 23.5089 32.0865 23.5089 31.7509 23.6798C31.4445 23.8389 31.197 24.2572 30.708 25.0997L27.379 30.8149L27.3676 30.8346C26.8803 31.6758 26.6368 32.0962 26.6543 32.4411C26.6779 32.8182 26.8723 33.1657 27.1905 33.372C27.4792 33.5604 27.9741 33.5604 28.9581 33.5604Z" fill="#E84142"/>
</svg>
