<svg width="48" height="48" viewBox="0 0 48 48" fill="none" xmlns="http://www.w3.org/2000/svg">
<circle cx="24" cy="24" r="24" fill="#2D2D2D"/>
<g clip-path="url(#clip0_13_706)">
<path d="M12 8.69995H36C37.8 8.69995 39.3 10.2 39.3 12V36C39.3 37.7999 37.8 39.2999 36 39.2999H12C10.2 39.2999 8.70001 37.7999 8.70001 36V12C8.70001 10.2 10.2 8.69995 12 8.69995Z" fill="#2D2D2D"/>
<path d="M24 36C24.4432 36 24.7386 35.85 25.0341 35.7C25.3295 35.4 25.4773 35.1 25.4773 34.65L25.7727 32.85C24.5909 33.15 23.4091 33.15 22.2273 32.85L22.5227 34.65C22.5227 35.1 22.6705 35.4 22.9659 35.7C23.2614 35.85 23.5568 36 24 36ZM34.1932 35.7H37V19.35C37 17.1 35.9659 15.6 34.1932 15V35.7ZM11 35.7H13.8068V15C12.0341 15.6 11 17.1 11 19.35V35.7ZM25.7727 32.85C27.5455 32.4 28.875 31.05 29.1705 28.65L30.9432 14.85C28.875 15.3 27.8409 16.95 27.3977 19.5L25.7727 32.85ZM22.2273 32.85L20.6023 19.5C20.3068 16.95 19.125 15.3 17.2045 14.85L18.9773 28.65C19.2727 31.05 20.4545 32.4 22.2273 32.85ZM34.1932 15V13.8C34.1932 12.6 33.6023 12 32.7159 12C31.8295 12 31.2386 12.6 31.0909 13.65L30.9432 14.85C31.9773 14.7 33.1591 14.7 34.1932 15ZM13.8068 15C14.3977 14.85 15.1364 14.7 15.7273 14.7C16.1705 14.7 16.6136 14.7 17.2045 14.85L17.0568 13.65C16.7614 12.45 16.1705 12 15.2841 12C14.3977 12 13.8068 12.6 13.8068 13.8V15Z" fill="#2D2D2D" stroke="white" stroke-width="1.3333" stroke-miterlimit="5.3333"/>
</g>
<defs>
<clipPath id="clip0_13_706">
<rect width="32" height="32" fill="white" transform="translate(8 8)"/>
</clipPath>
</defs>
</svg>
