<svg width="48" height="48" viewBox="0 0 48 48" fill="none" xmlns="http://www.w3.org/2000/svg">
<path d="M23.9845 48C37.244 48 47.9845 37.2595 47.9845 24C47.9845 10.7405 37.244 0 23.9845 0C10.725 0 0 10.7405 0 24C0 37.2595 10.7405 48 23.9845 48Z" fill="#FF473E"/>
<g clip-path="url(#clip0_13_660)">
<path d="M34.385 32.7613C33.6182 32.7613 32.9676 33.294 32.805 34.0353L26.7054 33.7457C26.7286 33.6299 26.7402 33.5141 26.7402 33.3983C26.7402 33.1898 26.7054 32.9813 26.6473 32.7729L28.8664 31.4989C29.4124 32.1706 30.4 32.3096 31.1087 31.8C31.8174 31.2904 32.0033 30.3176 31.5269 29.5879C31.0506 28.8583 30.0863 28.6266 29.3311 29.0552C28.5759 29.4837 28.2855 30.4334 28.6805 31.2093L26.5311 32.4486C26.0199 31.3715 24.7535 30.8851 23.6498 31.3367C22.546 31.7884 21.9884 33.0277 22.3834 34.1511L18.3867 35.1124C18.3635 34.568 18.1311 34.0584 17.7477 33.6646L18.468 32.6686C19.2813 32.9466 20.1759 32.5412 20.5012 31.7421C20.8265 30.943 20.4664 30.028 19.6879 29.669C18.9095 29.2984 17.9684 29.6111 17.5618 30.3639C17.1552 31.1167 17.4108 32.0664 18.1427 32.5181L17.4805 33.433C17.0157 33.0856 16.4232 32.935 15.8423 33.0045L15.1568 29.1015C16.0166 28.9162 16.6788 28.2445 16.8647 27.399C17.0506 26.542 16.7253 25.6618 16.0282 25.1406C15.3311 24.6078 14.39 24.5383 13.6232 24.9437L11.8921 21.5734C12.2639 21.3881 12.566 21.0986 12.7867 20.7511L14.2274 21.1333C14.2157 21.2144 14.2041 21.2839 14.2041 21.365C14.2041 22.1988 14.8431 22.9053 15.6796 22.9864C16.5162 23.0675 17.283 22.5 17.434 21.6661C17.585 20.8322 17.0855 20.0331 16.2722 19.813C15.4589 19.5814 14.6108 20.0099 14.3087 20.7975L12.9494 20.4384C13.1352 19.9983 13.1701 19.5119 13.0539 19.0486L17.0622 17.2072C17.8058 18.1337 19.1535 18.3306 20.1294 17.6357C21.1054 16.9408 21.361 15.6089 20.7103 14.6129L23.2664 12.1228C23.5801 12.3197 23.9402 12.4471 24.3004 12.4703V13.5705C23.4523 13.6632 22.8133 14.4044 22.8597 15.2615C22.9062 16.1185 23.6149 16.7902 24.4747 16.7902C25.3344 16.7902 26.0431 16.1185 26.0896 15.2615C26.1361 14.4044 25.5087 13.6632 24.6489 13.5705V12.4703C24.9743 12.4471 25.2763 12.3545 25.5552 12.2039L28.3552 15.3889C27.7045 16.2459 27.751 17.4388 28.4597 18.2379C29.1801 19.0371 30.3651 19.2224 31.2946 18.6665C32.224 18.1105 32.6191 16.9871 32.2589 15.9795L33.1303 15.4931C33.6879 16.1417 34.6523 16.2575 35.3377 15.7363C36.0232 15.2267 36.1859 14.2654 35.7095 13.559C35.2332 12.8525 34.2805 12.6324 33.5485 13.0725C32.8166 13.5126 32.5494 14.4392 32.9444 15.2036L32.1195 15.6668C31.7825 15.053 31.1784 14.6361 30.4929 14.5318C29.8074 14.4276 29.0987 14.6476 28.5991 15.1341L25.8572 12.0186C26.1245 11.8101 26.3452 11.5322 26.4962 11.2311L28.9012 11.6248C29.0871 12.4587 29.9004 13.003 30.7369 12.8525C31.585 12.7135 32.166 11.9375 32.073 11.0921C31.9801 10.2466 31.2365 9.60963 30.3884 9.65596C29.5286 9.70229 28.8664 10.3972 28.8547 11.2542L26.624 10.8836C26.9377 9.8181 26.4265 8.6831 25.4157 8.20826C24.405 7.73341 23.2083 8.08086 22.5925 9.00739C21.9767 9.93392 22.1394 11.1732 22.9759 11.9144L20.4896 14.3349C20.1062 13.8948 19.5601 13.6169 18.9792 13.5705V11.8796C19.8274 11.787 20.4664 11.0458 20.4199 10.1887C20.3734 9.33167 19.6763 8.67152 18.8166 8.67152C17.9568 8.67152 17.2481 9.34326 17.2016 10.2003C17.1552 11.0573 17.7825 11.7986 18.6423 11.8912V13.5705C17.8755 13.6285 17.19 14.0801 16.8299 14.7519C16.4697 15.4352 16.4813 16.2459 16.8647 16.9176L12.961 18.7012C12.8216 18.3653 12.6008 18.0758 12.322 17.8442L13.844 15.1109C13.9834 15.1456 14.1112 15.1688 14.2506 15.1688C15.0755 15.1688 15.761 14.555 15.8655 13.7443C15.9701 12.9336 15.4357 12.1808 14.6456 11.9839C13.844 11.787 13.0307 12.2155 12.7402 12.9799C12.4498 13.7443 12.7867 14.6013 13.507 14.9835L12.0315 17.6473C11.1369 17.1145 10.0099 17.2651 9.27798 18.0063C8.55765 18.7475 8.42985 19.8709 8.97591 20.7511C9.52197 21.6313 10.5908 22.0251 11.5784 21.7124L13.3328 25.129C12.8913 25.4533 12.5776 25.9397 12.473 26.4725L11.195 26.1019C11.2299 25.9745 11.2415 25.8355 11.2415 25.7081C11.2415 24.8858 10.6257 24.2025 9.81242 24.1098C8.99915 24.0172 8.24396 24.5383 8.04645 25.3375C7.84894 26.1366 8.29043 26.9473 9.06886 27.2253C9.83566 27.5032 10.6954 27.1674 11.0672 26.4377L12.4265 26.8315C12.4265 26.8662 12.4265 26.901 12.4265 26.9357C12.4265 27.7001 12.8099 28.4066 13.4606 28.812L12.5892 29.9469C11.9502 29.3794 10.9742 29.4142 10.3701 30.028C9.76595 30.6418 9.74271 31.6031 10.3236 32.2401C10.9045 32.8771 11.8689 32.9466 12.5427 32.4023C13.2166 31.8579 13.3328 30.8966 12.8332 30.2017L13.7742 28.9741C14.0531 29.1015 14.3668 29.1594 14.6805 29.1594C14.7269 29.1594 14.7734 29.1594 14.8199 29.1478L15.517 33.074C14.5875 33.3519 13.9369 34.1974 13.9021 35.1587C13.8788 36.1315 14.483 37.0002 15.4008 37.3244C16.3186 37.6487 17.3411 37.3476 17.9336 36.5716L21.1867 38.0193C21.1635 38.1352 21.1402 38.2625 21.1402 38.3784C21.1402 39.2007 21.756 39.8956 22.5809 39.9882C23.4058 40.0809 24.161 39.5481 24.3469 38.749C24.5328 37.9498 24.0796 37.1391 23.3012 36.8612C22.5228 36.5832 21.663 36.9422 21.3029 37.6835L18.1311 36.2705C18.2705 36.0157 18.3635 35.7378 18.3867 35.4482L22.5228 34.4406C22.8365 35.0197 23.3942 35.4251 24.0448 35.564C24.6954 35.6914 25.3693 35.5293 25.8805 35.1239L27.4257 36.4558C27.0655 37.2434 27.3792 38.1699 28.146 38.5637C28.9128 38.969 29.8539 38.7027 30.2954 37.9614C30.7369 37.2202 30.5278 36.2705 29.8191 35.7841C29.0987 35.2977 28.1344 35.4598 27.6116 36.1431L26.1361 34.8807C26.3568 34.6491 26.5195 34.3595 26.624 34.0584L32.7701 34.3595C32.7817 35.2513 33.5021 35.9578 34.3967 35.9578C35.2913 35.9578 36.0116 35.2282 36 34.348C36 33.4793 35.2796 32.7613 34.385 32.7613Z" fill="white"/>
</g>
<defs>
<clipPath id="clip0_13_660">
<rect width="28" height="32" fill="white" transform="translate(8 8)"/>
</clipPath>
</defs>
</svg>
