<svg width="48" height="48" viewBox="0 0 48 48" fill="none" xmlns="http://www.w3.org/2000/svg">
<g clip-path="url(#clip0_23_938)">
<path d="M24 48C37.2548 48 48 37.2548 48 24C48 10.7452 37.2548 0 24 0C10.7452 0 0 10.7452 0 24C0 37.2548 10.7452 48 24 48Z" fill="#6747ED"/>
<path fill-rule="evenodd" clip-rule="evenodd" d="M23.65 27.1C20.1 27.1 17.25 24.25 17.25 20.7C17.25 17.15 20.1 14.3 23.65 14.3C27.2 14.3 30.05 17.15 30.05 20.7C30.05 24.25 27.2 27.1 23.65 27.1ZM23.65 11.1C28.95 11.1 33.25 15.4 33.25 20.7C33.25 26 28.95 30.3 23.65 30.3C18.35 30.3 14.05 26 14.05 20.7C14.05 15.4 18.35 11.1 23.65 11.1ZM32.8 30.8C33.45 31.45 33.45 32.45 32.8 33.05L26.4 39.45C25.75 40.1 24.75 40.1 24.15 39.45C23.5 38.8 23.5 37.8 24.15 37.2L30.55 30.8C31.15 30.15 32.2 30.15 32.8 30.8ZM36.5 12.7C36.5 13.6 35.8 14.3 34.9 14.3C34 14.3 33.3 13.6 33.3 12.7C33.3 11.8 34 11.1 34.9 11.1C35.75 11.1 36.5 11.8 36.5 12.7Z" fill="white"/>
</g>
<defs>
<clipPath id="clip0_23_938">
<rect width="48" height="48" fill="white"/>
</clipPath>
</defs>
</svg>
