<svg width="52" height="52" viewBox="0 0 52 52" fill="none" xmlns="http://www.w3.org/2000/svg">
<path fill-rule="evenodd" clip-rule="evenodd" d="M26 2C39.3333 2 50 12.7877 50 25.9995C50 39.3325 39.2121 49.999 26 49.999C12.7879 50.1202 2 39.3325 2 25.9995C2 12.7877 12.7879 2 26 2Z" fill="url(#paint0_linear_23_943)" stroke="white" stroke-width="4"/>
<g clip-path="url(#clip0_23_943)">
<path d="M26 50C39.2548 50 50 39.2548 50 26C50 12.7452 39.2548 2 26 2C12.7452 2 2 12.7452 2 26C2 39.2548 12.7452 50 26 50Z" fill="#17B5CB"/>
<g clip-path="url(#clip1_23_943)">
<path d="M38.5698 13H41.9309L28.3022 28.5626C27.9568 28.954 27.9338 29.5525 28.2791 29.9669L36.1295 39.1065H32.6302L25.3784 30.6345L25.0101 30.1741C24.6647 29.7827 24.6878 29.1612 25.0331 28.7698L38.5698 13Z" fill="white"/>
<path d="M30.9957 29.9669C30.7655 29.7137 30.6964 29.3453 30.7655 29.023C30.8345 28.8388 30.9497 28.6547 31.0878 28.5165L31.9856 27.5266L42 39.1065H38.823C38.823 39.1065 32.9525 32.246 30.9957 29.9669Z" fill="white"/>
<path d="M13.4993 39.1065H10L20.7281 26.6978C21.0734 26.3065 21.0734 25.7079 20.7281 25.3165L10.0921 13H13.4532L24.1583 25.4086C24.4345 25.777 24.4806 26.3065 24.1813 26.6518C21.3727 29.8978 13.4993 39.1065 13.4993 39.1065Z" fill="white"/>
<path d="M19.3468 13H16.1237L26.0461 24.4878C26.0461 24.4878 26.0691 24.4647 27.1741 23.1525C27.4734 22.8072 27.5425 22.3698 27.1971 22.0245C25.1252 19.9065 19.3468 13 19.3468 13Z" fill="white"/>
<path d="M29.0158 21.0115L35.8993 13H32.6302L29.0388 17.1899L28.0029 18.4101C27.6576 18.8014 27.6345 19.4 27.9799 19.8144C28.2331 20.1137 29.0158 21.0115 29.0158 21.0115Z" fill="white"/>
<path d="M23.0302 31.095L16.1468 39.1065H19.3928L22.9842 34.9166L24.0201 33.6964C24.3655 33.305 24.3885 32.7065 24.0432 32.2921C23.7899 31.9928 23.0302 31.095 23.0302 31.095Z" fill="white"/>
</g>
</g>
<defs>
<linearGradient id="paint0_linear_23_943" x1="74.0995" y1="26.0323" x2="26.0328" y2="-22.0333" gradientUnits="userSpaceOnUse">
<stop stop-color="#4B81EB"/>
<stop offset="1" stop-color="#6752F4"/>
</linearGradient>
<clipPath id="clip0_23_943">
<rect width="48" height="48" fill="white" transform="translate(2 2)"/>
</clipPath>
<clipPath id="clip1_23_943">
<rect width="32" height="26.0144" fill="white" transform="translate(10 13)"/>
</clipPath>
</defs>
</svg>
