<svg width="48" height="48" viewBox="0 0 48 48" fill="none" xmlns="http://www.w3.org/2000/svg">
<circle cx="24.5" cy="23.5" r="20.5" fill="white"/>
<path d="M29.3811 19.3722C29.0852 18.2422 28.3856 17.5157 27.2287 17.1928C26.2601 16.9238 25.2646 16.8161 24.269 16.7623C23.139 16.7892 21.982 16.87 20.8789 17.1928C19.722 17.5157 19.0224 18.2422 18.7264 19.3722C18.565 19.991 18.5112 20.6368 18.4843 21.2556C18.4305 21.8475 18.4305 21.9282 18.8341 21.9282H29.0045C29.704 21.9282 29.704 21.9282 29.6233 21.2287C29.5964 20.6368 29.5157 19.991 29.3811 19.3722Z" fill="#496DDB"/>
<path d="M29.1929 26.0718H19.0494C18.3498 26.0718 18.3498 26.0718 18.4305 26.7713C18.4574 27.3902 18.5112 28.0359 18.6727 28.6547C18.9686 29.7848 19.6682 30.5112 20.8251 30.8341C21.7937 31.1032 22.7893 31.2108 23.7848 31.2646C24.9148 31.2377 26.0718 31.157 27.1749 30.8341C28.3319 30.5112 29.0314 29.7848 29.3274 28.6547C29.4888 28.0359 29.5426 27.3902 29.5695 26.7713C29.6233 26.1794 29.6233 26.0987 29.1929 26.0718Z" fill="#496DDB"/>
<path d="M24 0C10.7623 0 0 10.7623 0 24C0 37.2377 10.7623 48 24 48C37.2646 48 48 37.2377 48 24C48 10.7623 37.2646 0 24 0ZM34.1166 18.5919C34.2242 19.2915 34.3049 19.991 34.3857 20.7175V21.9552H38.0987C38.3946 21.9552 38.6637 21.9552 38.9327 22.009C39.5785 22.1166 39.9821 22.4933 40.009 23.1121V24.9148C39.9821 25.5336 39.5785 25.9103 38.9327 26.0179C38.6637 26.0718 38.3946 26.0718 38.0987 26.0718H34.3318V27.2825C34.2511 28.009 34.1704 28.7085 34.0628 29.4081C33.9552 30.1076 33.7668 30.7265 33.5247 31.2646H38.287C38.852 31.2646 39.3901 31.3184 39.7668 31.8565C40.3318 32.7444 40.0359 33.9283 39.148 34.4933C39.0404 34.574 38.9058 34.6547 38.7713 34.6816C37.7758 35.0045 36.7534 35.0583 35.704 35.1121C31.426 35.1928 27.0404 35.2197 24.0807 35.2197C20.583 35.2197 15.9013 35.1659 12.3498 35.0852C11.3004 35.0583 10.278 35.0045 9.30942 34.6547C9.14798 34.6278 9.04036 34.574 8.93274 34.4664C8.04484 33.9013 7.74888 32.7444 8.3139 31.8296C8.66368 31.2915 9.20179 31.2377 9.76682 31.2377H14.4753C14.2601 30.6996 14.0718 30.0807 13.9641 29.4081C13.8565 28.7085 13.7758 28.009 13.6951 27.2825V26.0448H9.92825C9.63229 26.0448 9.36323 26.0448 9.09417 25.991C8.44843 25.8834 8.04484 25.5067 8.01794 24.8879V23.0852C8.04484 22.4664 8.44843 22.0897 9.09417 21.9821C9.36323 21.9283 9.63229 21.9283 9.92825 21.9283H13.6951V20.7175C13.7758 19.991 13.8565 19.2915 13.9641 18.5919C14.0718 17.8924 14.2601 17.2735 14.5022 16.7354H9.73991C9.17489 16.7354 8.63677 16.6816 8.26009 16.1435C7.69507 15.2556 7.99103 14.0717 8.87892 13.5067C8.98655 13.426 9.12108 13.3453 9.25561 13.3184C10.2511 12.9955 11.2735 12.9417 12.296 12.8879C16.574 12.8072 20.9596 12.7803 23.9193 12.7803C27.417 12.7803 32.1256 12.8341 35.6502 12.9148C36.6996 12.9417 37.722 12.9955 38.6906 13.3453C38.852 13.3722 38.9596 13.426 39.0673 13.5336C39.9552 14.0987 40.2511 15.2556 39.6861 16.1704C39.3363 16.7085 38.7982 16.7623 38.2332 16.7623H33.5247C33.8206 17.3004 33.9821 17.8924 34.1166 18.5919Z" fill="#496DDB"/>
</svg>
